G75*
G70*
%OFA0B0*%
%FSLAX24Y24*%
%IPPOS*%
%LPD*%
%AMOC8*
5,1,8,0,0,1.08239X$1,22.5*
%
%ADD10C,0.1340*%
%ADD11R,0.0513X0.0474*%
%ADD12R,0.0474X0.0513*%
%ADD13C,0.0820*%
%ADD14R,0.0580X0.0300*%
%ADD15R,0.0300X0.0580*%
%ADD16OC8,0.0600*%
%ADD17C,0.0840*%
%ADD18C,0.0513*%
%ADD19C,0.1080*%
%ADD20OC8,0.1080*%
%ADD21R,0.1025X0.0474*%
%ADD22R,0.0710X0.0789*%
%ADD23OC8,0.0820*%
%ADD24OC8,0.1310*%
%ADD25C,0.0050*%
%ADD26C,0.1680*%
%ADD27R,0.0789X0.0552*%
%ADD28R,0.0552X0.0552*%
D10*
X003349Y001680D03*
X026849Y001680D03*
X026849Y018180D03*
X003349Y018180D03*
D11*
X007514Y016305D03*
X008184Y016305D03*
X010514Y012680D03*
X011184Y012680D03*
X011184Y011180D03*
X010514Y011180D03*
X010264Y008180D03*
X010934Y008180D03*
X015764Y008180D03*
X016434Y008180D03*
X015684Y016680D03*
X015014Y016680D03*
D12*
X019014Y016180D03*
X019684Y016180D03*
X019514Y012680D03*
X020184Y012680D03*
X023014Y009680D03*
X023684Y009680D03*
X024514Y003680D03*
X025184Y003680D03*
X013809Y002680D03*
X013139Y002680D03*
X008184Y007680D03*
X007514Y007680D03*
X007514Y009180D03*
X008184Y009180D03*
X008184Y013180D03*
X007514Y013180D03*
X007514Y014680D03*
X008184Y014680D03*
D13*
X009349Y018180D03*
X010349Y018180D03*
X011349Y018180D03*
X012349Y018180D03*
X013349Y018180D03*
X014349Y018180D03*
X026849Y010930D03*
X026849Y009930D03*
X026849Y008930D03*
X025849Y006180D03*
X024849Y006180D03*
X024849Y005180D03*
X025849Y005180D03*
X027349Y013180D03*
X027349Y014180D03*
X027349Y015180D03*
X027349Y016180D03*
X006349Y007180D03*
D14*
X013159Y011078D03*
X013159Y011393D03*
X013159Y011708D03*
X013159Y012023D03*
X013159Y012337D03*
X013159Y012652D03*
X013159Y012967D03*
X013159Y013282D03*
X016539Y013282D03*
X016539Y012967D03*
X016539Y012652D03*
X016539Y012337D03*
X016539Y012023D03*
X016539Y011708D03*
X016539Y011393D03*
X016539Y011078D03*
D15*
X015951Y010490D03*
X015636Y010490D03*
X015321Y010490D03*
X015007Y010490D03*
X014692Y010490D03*
X014377Y010490D03*
X014062Y010490D03*
X013747Y010490D03*
X013747Y013870D03*
X014062Y013870D03*
X014377Y013870D03*
X014692Y013870D03*
X015007Y013870D03*
X015321Y013870D03*
X015636Y013870D03*
X015951Y013870D03*
D16*
X019349Y011180D03*
X020349Y011180D03*
X020349Y010180D03*
X019349Y010180D03*
X019349Y009180D03*
X020349Y009180D03*
D17*
X004668Y008696D03*
X004668Y007711D03*
X002699Y009680D03*
X004668Y010664D03*
X004668Y011649D03*
X004668Y012711D03*
X004668Y013696D03*
X002699Y014680D03*
X004668Y015664D03*
X004668Y016649D03*
D18*
X002699Y016649D03*
X004668Y014680D03*
X002699Y012711D03*
X002699Y011649D03*
X004668Y009680D03*
X002699Y007711D03*
D19*
X022349Y014680D03*
D20*
X024349Y014680D03*
D21*
X023030Y006467D03*
X023030Y004893D03*
X023030Y003467D03*
X023030Y001893D03*
X020668Y001893D03*
X020668Y003467D03*
X020668Y004893D03*
X020668Y006467D03*
D22*
X008400Y011180D03*
X007298Y011180D03*
D23*
X008990Y001924D03*
X009974Y001924D03*
X010958Y001924D03*
X015865Y001924D03*
X016849Y001924D03*
X017833Y001924D03*
D24*
X018581Y004680D03*
X015117Y004680D03*
X011706Y004680D03*
X008242Y004680D03*
D25*
X024961Y001248D02*
X024955Y001180D01*
X024961Y001112D01*
X024979Y001045D01*
X025008Y000983D01*
X025047Y000927D01*
X025096Y000878D01*
X025152Y000839D01*
X025214Y000810D01*
X025281Y000792D01*
X025349Y000786D01*
X025417Y000792D01*
X025484Y000810D01*
X025546Y000839D01*
X025602Y000878D01*
X025651Y000927D01*
X025690Y000983D01*
X025719Y001045D01*
X025737Y001112D01*
X025743Y001180D01*
X025737Y001248D01*
X025719Y001315D01*
X025690Y001377D01*
X025651Y001433D01*
X025602Y001482D01*
X025546Y001521D01*
X025484Y001550D01*
X025417Y001568D01*
X025349Y001574D01*
X025281Y001568D01*
X025214Y001550D01*
X025152Y001521D01*
X025096Y001482D01*
X025047Y001433D01*
X025008Y001377D01*
X024979Y001315D01*
X024961Y001248D01*
X024961Y001247D02*
X025737Y001247D01*
X025741Y001199D02*
X024957Y001199D01*
X024958Y001150D02*
X025740Y001150D01*
X025734Y001102D02*
X024964Y001102D01*
X024977Y001053D02*
X025721Y001053D01*
X025700Y001005D02*
X024998Y001005D01*
X025027Y000956D02*
X025671Y000956D01*
X025631Y000908D02*
X025067Y000908D01*
X025124Y000859D02*
X025574Y000859D01*
X025485Y000811D02*
X025213Y000811D01*
X024974Y001296D02*
X025724Y001296D01*
X025705Y001344D02*
X024993Y001344D01*
X025019Y001393D02*
X025679Y001393D01*
X025643Y001441D02*
X025055Y001441D01*
X025107Y001490D02*
X025591Y001490D01*
X025509Y001538D02*
X025189Y001538D01*
X025349Y018286D02*
X025417Y018292D01*
X025484Y018310D01*
X025546Y018339D01*
X025602Y018378D01*
X025651Y018427D01*
X025690Y018483D01*
X025719Y018545D01*
X025737Y018612D01*
X025743Y018680D01*
X025737Y018748D01*
X025719Y018815D01*
X025690Y018877D01*
X025651Y018933D01*
X025602Y018982D01*
X025546Y019021D01*
X025484Y019050D01*
X025417Y019068D01*
X025349Y019074D01*
X025281Y019068D01*
X025214Y019050D01*
X025152Y019021D01*
X025096Y018982D01*
X025047Y018933D01*
X025008Y018877D01*
X024979Y018815D01*
X024961Y018748D01*
X024955Y018680D01*
X024961Y018612D01*
X024979Y018545D01*
X025008Y018483D01*
X025047Y018427D01*
X025096Y018378D01*
X025152Y018339D01*
X025214Y018310D01*
X025281Y018292D01*
X025349Y018286D01*
X025195Y018319D02*
X025503Y018319D01*
X025587Y018368D02*
X025111Y018368D01*
X025058Y018416D02*
X025640Y018416D01*
X025677Y018465D02*
X025021Y018465D01*
X024994Y018513D02*
X025704Y018513D01*
X025723Y018562D02*
X024975Y018562D01*
X024962Y018610D02*
X025736Y018610D01*
X025741Y018659D02*
X024957Y018659D01*
X024958Y018707D02*
X025740Y018707D01*
X025735Y018756D02*
X024963Y018756D01*
X024976Y018804D02*
X025722Y018804D01*
X025701Y018853D02*
X024997Y018853D01*
X025025Y018901D02*
X025673Y018901D01*
X025634Y018950D02*
X025064Y018950D01*
X025120Y018998D02*
X025579Y018998D01*
X025491Y019047D02*
X025207Y019047D01*
X005243Y018680D02*
X005237Y018612D01*
X005219Y018545D01*
X005190Y018483D01*
X005151Y018427D01*
X005102Y018378D01*
X005046Y018339D01*
X004984Y018310D01*
X004917Y018292D01*
X004849Y018286D01*
X004781Y018292D01*
X004714Y018310D01*
X004652Y018339D01*
X004596Y018378D01*
X004547Y018427D01*
X004508Y018483D01*
X004479Y018545D01*
X004461Y018612D01*
X004455Y018680D01*
X004461Y018748D01*
X004479Y018815D01*
X004508Y018877D01*
X004547Y018933D01*
X004596Y018982D01*
X004652Y019021D01*
X004714Y019050D01*
X004781Y019068D01*
X004849Y019074D01*
X004917Y019068D01*
X004984Y019050D01*
X005046Y019021D01*
X005102Y018982D01*
X005151Y018933D01*
X005190Y018877D01*
X005219Y018815D01*
X005237Y018748D01*
X005243Y018680D01*
X005241Y018659D02*
X004457Y018659D01*
X004458Y018707D02*
X005240Y018707D01*
X005235Y018756D02*
X004463Y018756D01*
X004476Y018804D02*
X005222Y018804D01*
X005201Y018853D02*
X004497Y018853D01*
X004525Y018901D02*
X005173Y018901D01*
X005134Y018950D02*
X004564Y018950D01*
X004620Y018998D02*
X005079Y018998D01*
X004991Y019047D02*
X004707Y019047D01*
X004462Y018610D02*
X005236Y018610D01*
X005223Y018562D02*
X004475Y018562D01*
X004494Y018513D02*
X005204Y018513D01*
X005177Y018465D02*
X004521Y018465D01*
X004558Y018416D02*
X005140Y018416D01*
X005087Y018368D02*
X004611Y018368D01*
X004695Y018319D02*
X005003Y018319D01*
D26*
X003881Y004680D03*
X006243Y004680D03*
X005062Y002830D03*
D27*
X012562Y007708D03*
X012562Y008652D03*
X014136Y008652D03*
X014136Y007708D03*
D28*
X024436Y002680D03*
X025262Y002680D03*
M02*
