%
M48
M72
T01C0.0236
T02C0.0320
T03C0.0394
T04C0.0400
T05C0.0433
T06C0.0472
T07C0.0830
T08C0.1050
T09C0.1100
T10C0.1260
%
T01
X11349Y10180
X10099Y11930
X6849Y14180
X9349Y14680
X13349Y16930
X17849Y15980
X19849Y15180
X19349Y14680
X19849Y14180
X17649Y13480
X21349Y12680
X17849Y9680
X20349Y16180
T02
X20349Y11180
X19349Y11180
X19349Y10180
X20349Y10180
X20349Y9180
X19349Y9180
X26849Y8930
X26849Y9930
X26849Y10930
T03
X17833Y1924
X16849Y1924
X15865Y1924
X10958Y1924
X9974Y1924
X8990Y1924
T04
X6349Y7180
X22349Y14680
X24349Y14680
X27349Y14180
X27349Y13180
X27349Y15180
X27349Y16180
X14349Y18180
X13349Y18180
X12349Y18180
X11349Y18180
X10349Y18180
X9349Y18180
X24849Y6180
X25849Y6180
X25849Y5180
X24849Y5180
T05
X4668Y9680
X2699Y7711
X2699Y11649
X2699Y12711
X4668Y14680
X2699Y16649
T06
X4668Y16649
X4668Y15664
X2699Y14680
X4668Y13696
X4668Y12711
X4668Y11649
X4668Y10664
X2699Y9680
X4668Y8696
X4668Y7711
T07
X8242Y4680
X11706Y4680
X15117Y4680
X18581Y4680
T08
X5062Y2830
X3881Y4680
T09
X6243Y4680
T10
X3349Y1680
X26849Y1680
X26849Y18180
X3349Y18180
M30
