G75*
G70*
%OFA0B0*%
%FSLAX24Y24*%
%IPPOS*%
%LPD*%
%AMOC8*
5,1,8,0,0,1.08239X$1,22.5*
%
%ADD10C,0.0000*%
D10*
X001849Y001180D02*
X001849Y018680D01*
X002849Y019680D01*
X027349Y019680D01*
X028349Y018680D01*
X028349Y001180D01*
X027349Y000180D01*
X002849Y000180D01*
X001849Y001180D01*
X002719Y001680D02*
X002721Y001730D01*
X002727Y001780D01*
X002737Y001829D01*
X002751Y001877D01*
X002768Y001924D01*
X002789Y001969D01*
X002814Y002013D01*
X002842Y002054D01*
X002874Y002093D01*
X002908Y002130D01*
X002945Y002164D01*
X002985Y002194D01*
X003027Y002221D01*
X003071Y002245D01*
X003117Y002266D01*
X003164Y002282D01*
X003212Y002295D01*
X003262Y002304D01*
X003311Y002309D01*
X003362Y002310D01*
X003412Y002307D01*
X003461Y002300D01*
X003510Y002289D01*
X003558Y002274D01*
X003604Y002256D01*
X003649Y002234D01*
X003692Y002208D01*
X003733Y002179D01*
X003772Y002147D01*
X003808Y002112D01*
X003840Y002074D01*
X003870Y002034D01*
X003897Y001991D01*
X003920Y001947D01*
X003939Y001901D01*
X003955Y001853D01*
X003967Y001804D01*
X003975Y001755D01*
X003979Y001705D01*
X003979Y001655D01*
X003975Y001605D01*
X003967Y001556D01*
X003955Y001507D01*
X003939Y001459D01*
X003920Y001413D01*
X003897Y001369D01*
X003870Y001326D01*
X003840Y001286D01*
X003808Y001248D01*
X003772Y001213D01*
X003733Y001181D01*
X003692Y001152D01*
X003649Y001126D01*
X003604Y001104D01*
X003558Y001086D01*
X003510Y001071D01*
X003461Y001060D01*
X003412Y001053D01*
X003362Y001050D01*
X003311Y001051D01*
X003262Y001056D01*
X003212Y001065D01*
X003164Y001078D01*
X003117Y001094D01*
X003071Y001115D01*
X003027Y001139D01*
X002985Y001166D01*
X002945Y001196D01*
X002908Y001230D01*
X002874Y001267D01*
X002842Y001306D01*
X002814Y001347D01*
X002789Y001391D01*
X002768Y001436D01*
X002751Y001483D01*
X002737Y001531D01*
X002727Y001580D01*
X002721Y001630D01*
X002719Y001680D01*
X002482Y007711D02*
X002484Y007740D01*
X002490Y007768D01*
X002499Y007796D01*
X002512Y007822D01*
X002529Y007845D01*
X002548Y007867D01*
X002570Y007886D01*
X002595Y007901D01*
X002621Y007914D01*
X002649Y007922D01*
X002677Y007927D01*
X002706Y007928D01*
X002735Y007925D01*
X002763Y007918D01*
X002790Y007908D01*
X002816Y007894D01*
X002839Y007877D01*
X002860Y007857D01*
X002878Y007834D01*
X002893Y007809D01*
X002904Y007782D01*
X002912Y007754D01*
X002916Y007725D01*
X002916Y007697D01*
X002912Y007668D01*
X002904Y007640D01*
X002893Y007613D01*
X002878Y007588D01*
X002860Y007565D01*
X002839Y007545D01*
X002816Y007528D01*
X002790Y007514D01*
X002763Y007504D01*
X002735Y007497D01*
X002706Y007494D01*
X002677Y007495D01*
X002649Y007500D01*
X002621Y007508D01*
X002595Y007521D01*
X002570Y007536D01*
X002548Y007555D01*
X002529Y007577D01*
X002512Y007600D01*
X002499Y007626D01*
X002490Y007654D01*
X002484Y007682D01*
X002482Y007711D01*
X004451Y009680D02*
X004453Y009709D01*
X004459Y009737D01*
X004468Y009765D01*
X004481Y009791D01*
X004498Y009814D01*
X004517Y009836D01*
X004539Y009855D01*
X004564Y009870D01*
X004590Y009883D01*
X004618Y009891D01*
X004646Y009896D01*
X004675Y009897D01*
X004704Y009894D01*
X004732Y009887D01*
X004759Y009877D01*
X004785Y009863D01*
X004808Y009846D01*
X004829Y009826D01*
X004847Y009803D01*
X004862Y009778D01*
X004873Y009751D01*
X004881Y009723D01*
X004885Y009694D01*
X004885Y009666D01*
X004881Y009637D01*
X004873Y009609D01*
X004862Y009582D01*
X004847Y009557D01*
X004829Y009534D01*
X004808Y009514D01*
X004785Y009497D01*
X004759Y009483D01*
X004732Y009473D01*
X004704Y009466D01*
X004675Y009463D01*
X004646Y009464D01*
X004618Y009469D01*
X004590Y009477D01*
X004564Y009490D01*
X004539Y009505D01*
X004517Y009524D01*
X004498Y009546D01*
X004481Y009569D01*
X004468Y009595D01*
X004459Y009623D01*
X004453Y009651D01*
X004451Y009680D01*
X002482Y011649D02*
X002484Y011678D01*
X002490Y011706D01*
X002499Y011734D01*
X002512Y011760D01*
X002529Y011783D01*
X002548Y011805D01*
X002570Y011824D01*
X002595Y011839D01*
X002621Y011852D01*
X002649Y011860D01*
X002677Y011865D01*
X002706Y011866D01*
X002735Y011863D01*
X002763Y011856D01*
X002790Y011846D01*
X002816Y011832D01*
X002839Y011815D01*
X002860Y011795D01*
X002878Y011772D01*
X002893Y011747D01*
X002904Y011720D01*
X002912Y011692D01*
X002916Y011663D01*
X002916Y011635D01*
X002912Y011606D01*
X002904Y011578D01*
X002893Y011551D01*
X002878Y011526D01*
X002860Y011503D01*
X002839Y011483D01*
X002816Y011466D01*
X002790Y011452D01*
X002763Y011442D01*
X002735Y011435D01*
X002706Y011432D01*
X002677Y011433D01*
X002649Y011438D01*
X002621Y011446D01*
X002595Y011459D01*
X002570Y011474D01*
X002548Y011493D01*
X002529Y011515D01*
X002512Y011538D01*
X002499Y011564D01*
X002490Y011592D01*
X002484Y011620D01*
X002482Y011649D01*
X002482Y012711D02*
X002484Y012740D01*
X002490Y012768D01*
X002499Y012796D01*
X002512Y012822D01*
X002529Y012845D01*
X002548Y012867D01*
X002570Y012886D01*
X002595Y012901D01*
X002621Y012914D01*
X002649Y012922D01*
X002677Y012927D01*
X002706Y012928D01*
X002735Y012925D01*
X002763Y012918D01*
X002790Y012908D01*
X002816Y012894D01*
X002839Y012877D01*
X002860Y012857D01*
X002878Y012834D01*
X002893Y012809D01*
X002904Y012782D01*
X002912Y012754D01*
X002916Y012725D01*
X002916Y012697D01*
X002912Y012668D01*
X002904Y012640D01*
X002893Y012613D01*
X002878Y012588D01*
X002860Y012565D01*
X002839Y012545D01*
X002816Y012528D01*
X002790Y012514D01*
X002763Y012504D01*
X002735Y012497D01*
X002706Y012494D01*
X002677Y012495D01*
X002649Y012500D01*
X002621Y012508D01*
X002595Y012521D01*
X002570Y012536D01*
X002548Y012555D01*
X002529Y012577D01*
X002512Y012600D01*
X002499Y012626D01*
X002490Y012654D01*
X002484Y012682D01*
X002482Y012711D01*
X004451Y014680D02*
X004453Y014709D01*
X004459Y014737D01*
X004468Y014765D01*
X004481Y014791D01*
X004498Y014814D01*
X004517Y014836D01*
X004539Y014855D01*
X004564Y014870D01*
X004590Y014883D01*
X004618Y014891D01*
X004646Y014896D01*
X004675Y014897D01*
X004704Y014894D01*
X004732Y014887D01*
X004759Y014877D01*
X004785Y014863D01*
X004808Y014846D01*
X004829Y014826D01*
X004847Y014803D01*
X004862Y014778D01*
X004873Y014751D01*
X004881Y014723D01*
X004885Y014694D01*
X004885Y014666D01*
X004881Y014637D01*
X004873Y014609D01*
X004862Y014582D01*
X004847Y014557D01*
X004829Y014534D01*
X004808Y014514D01*
X004785Y014497D01*
X004759Y014483D01*
X004732Y014473D01*
X004704Y014466D01*
X004675Y014463D01*
X004646Y014464D01*
X004618Y014469D01*
X004590Y014477D01*
X004564Y014490D01*
X004539Y014505D01*
X004517Y014524D01*
X004498Y014546D01*
X004481Y014569D01*
X004468Y014595D01*
X004459Y014623D01*
X004453Y014651D01*
X004451Y014680D01*
X002482Y016649D02*
X002484Y016678D01*
X002490Y016706D01*
X002499Y016734D01*
X002512Y016760D01*
X002529Y016783D01*
X002548Y016805D01*
X002570Y016824D01*
X002595Y016839D01*
X002621Y016852D01*
X002649Y016860D01*
X002677Y016865D01*
X002706Y016866D01*
X002735Y016863D01*
X002763Y016856D01*
X002790Y016846D01*
X002816Y016832D01*
X002839Y016815D01*
X002860Y016795D01*
X002878Y016772D01*
X002893Y016747D01*
X002904Y016720D01*
X002912Y016692D01*
X002916Y016663D01*
X002916Y016635D01*
X002912Y016606D01*
X002904Y016578D01*
X002893Y016551D01*
X002878Y016526D01*
X002860Y016503D01*
X002839Y016483D01*
X002816Y016466D01*
X002790Y016452D01*
X002763Y016442D01*
X002735Y016435D01*
X002706Y016432D01*
X002677Y016433D01*
X002649Y016438D01*
X002621Y016446D01*
X002595Y016459D01*
X002570Y016474D01*
X002548Y016493D01*
X002529Y016515D01*
X002512Y016538D01*
X002499Y016564D01*
X002490Y016592D01*
X002484Y016620D01*
X002482Y016649D01*
X002719Y018180D02*
X002721Y018230D01*
X002727Y018280D01*
X002737Y018329D01*
X002751Y018377D01*
X002768Y018424D01*
X002789Y018469D01*
X002814Y018513D01*
X002842Y018554D01*
X002874Y018593D01*
X002908Y018630D01*
X002945Y018664D01*
X002985Y018694D01*
X003027Y018721D01*
X003071Y018745D01*
X003117Y018766D01*
X003164Y018782D01*
X003212Y018795D01*
X003262Y018804D01*
X003311Y018809D01*
X003362Y018810D01*
X003412Y018807D01*
X003461Y018800D01*
X003510Y018789D01*
X003558Y018774D01*
X003604Y018756D01*
X003649Y018734D01*
X003692Y018708D01*
X003733Y018679D01*
X003772Y018647D01*
X003808Y018612D01*
X003840Y018574D01*
X003870Y018534D01*
X003897Y018491D01*
X003920Y018447D01*
X003939Y018401D01*
X003955Y018353D01*
X003967Y018304D01*
X003975Y018255D01*
X003979Y018205D01*
X003979Y018155D01*
X003975Y018105D01*
X003967Y018056D01*
X003955Y018007D01*
X003939Y017959D01*
X003920Y017913D01*
X003897Y017869D01*
X003870Y017826D01*
X003840Y017786D01*
X003808Y017748D01*
X003772Y017713D01*
X003733Y017681D01*
X003692Y017652D01*
X003649Y017626D01*
X003604Y017604D01*
X003558Y017586D01*
X003510Y017571D01*
X003461Y017560D01*
X003412Y017553D01*
X003362Y017550D01*
X003311Y017551D01*
X003262Y017556D01*
X003212Y017565D01*
X003164Y017578D01*
X003117Y017594D01*
X003071Y017615D01*
X003027Y017639D01*
X002985Y017666D01*
X002945Y017696D01*
X002908Y017730D01*
X002874Y017767D01*
X002842Y017806D01*
X002814Y017847D01*
X002789Y017891D01*
X002768Y017936D01*
X002751Y017983D01*
X002737Y018031D01*
X002727Y018080D01*
X002721Y018130D01*
X002719Y018180D01*
X026219Y018180D02*
X026221Y018230D01*
X026227Y018280D01*
X026237Y018329D01*
X026251Y018377D01*
X026268Y018424D01*
X026289Y018469D01*
X026314Y018513D01*
X026342Y018554D01*
X026374Y018593D01*
X026408Y018630D01*
X026445Y018664D01*
X026485Y018694D01*
X026527Y018721D01*
X026571Y018745D01*
X026617Y018766D01*
X026664Y018782D01*
X026712Y018795D01*
X026762Y018804D01*
X026811Y018809D01*
X026862Y018810D01*
X026912Y018807D01*
X026961Y018800D01*
X027010Y018789D01*
X027058Y018774D01*
X027104Y018756D01*
X027149Y018734D01*
X027192Y018708D01*
X027233Y018679D01*
X027272Y018647D01*
X027308Y018612D01*
X027340Y018574D01*
X027370Y018534D01*
X027397Y018491D01*
X027420Y018447D01*
X027439Y018401D01*
X027455Y018353D01*
X027467Y018304D01*
X027475Y018255D01*
X027479Y018205D01*
X027479Y018155D01*
X027475Y018105D01*
X027467Y018056D01*
X027455Y018007D01*
X027439Y017959D01*
X027420Y017913D01*
X027397Y017869D01*
X027370Y017826D01*
X027340Y017786D01*
X027308Y017748D01*
X027272Y017713D01*
X027233Y017681D01*
X027192Y017652D01*
X027149Y017626D01*
X027104Y017604D01*
X027058Y017586D01*
X027010Y017571D01*
X026961Y017560D01*
X026912Y017553D01*
X026862Y017550D01*
X026811Y017551D01*
X026762Y017556D01*
X026712Y017565D01*
X026664Y017578D01*
X026617Y017594D01*
X026571Y017615D01*
X026527Y017639D01*
X026485Y017666D01*
X026445Y017696D01*
X026408Y017730D01*
X026374Y017767D01*
X026342Y017806D01*
X026314Y017847D01*
X026289Y017891D01*
X026268Y017936D01*
X026251Y017983D01*
X026237Y018031D01*
X026227Y018080D01*
X026221Y018130D01*
X026219Y018180D01*
X026219Y001680D02*
X026221Y001730D01*
X026227Y001780D01*
X026237Y001829D01*
X026251Y001877D01*
X026268Y001924D01*
X026289Y001969D01*
X026314Y002013D01*
X026342Y002054D01*
X026374Y002093D01*
X026408Y002130D01*
X026445Y002164D01*
X026485Y002194D01*
X026527Y002221D01*
X026571Y002245D01*
X026617Y002266D01*
X026664Y002282D01*
X026712Y002295D01*
X026762Y002304D01*
X026811Y002309D01*
X026862Y002310D01*
X026912Y002307D01*
X026961Y002300D01*
X027010Y002289D01*
X027058Y002274D01*
X027104Y002256D01*
X027149Y002234D01*
X027192Y002208D01*
X027233Y002179D01*
X027272Y002147D01*
X027308Y002112D01*
X027340Y002074D01*
X027370Y002034D01*
X027397Y001991D01*
X027420Y001947D01*
X027439Y001901D01*
X027455Y001853D01*
X027467Y001804D01*
X027475Y001755D01*
X027479Y001705D01*
X027479Y001655D01*
X027475Y001605D01*
X027467Y001556D01*
X027455Y001507D01*
X027439Y001459D01*
X027420Y001413D01*
X027397Y001369D01*
X027370Y001326D01*
X027340Y001286D01*
X027308Y001248D01*
X027272Y001213D01*
X027233Y001181D01*
X027192Y001152D01*
X027149Y001126D01*
X027104Y001104D01*
X027058Y001086D01*
X027010Y001071D01*
X026961Y001060D01*
X026912Y001053D01*
X026862Y001050D01*
X026811Y001051D01*
X026762Y001056D01*
X026712Y001065D01*
X026664Y001078D01*
X026617Y001094D01*
X026571Y001115D01*
X026527Y001139D01*
X026485Y001166D01*
X026445Y001196D01*
X026408Y001230D01*
X026374Y001267D01*
X026342Y001306D01*
X026314Y001347D01*
X026289Y001391D01*
X026268Y001436D01*
X026251Y001483D01*
X026237Y001531D01*
X026227Y001580D01*
X026221Y001630D01*
X026219Y001680D01*
M02*
