G75*
G70*
%OFA0B0*%
%FSLAX24Y24*%
%IPPOS*%
%LPD*%
%AMOC8*
5,1,8,0,0,1.08239X$1,22.5*
%
%ADD10R,0.0433X0.0394*%
%ADD11R,0.0394X0.0433*%
%ADD12R,0.0500X0.0220*%
%ADD13R,0.0220X0.0500*%
%ADD14R,0.0945X0.0394*%
%ADD15R,0.0630X0.0709*%
%ADD16R,0.0709X0.0472*%
%ADD17R,0.0472X0.0472*%
D10*
X010264Y008180D03*
X010934Y008180D03*
X011184Y011180D03*
X010514Y011180D03*
X010514Y012680D03*
X011184Y012680D03*
X008184Y016305D03*
X007514Y016305D03*
X015014Y016680D03*
X015684Y016680D03*
X015764Y008180D03*
X016434Y008180D03*
D11*
X007514Y007680D03*
X008184Y007680D03*
X008184Y009180D03*
X007514Y009180D03*
X007514Y013180D03*
X008184Y013180D03*
X008184Y014680D03*
X007514Y014680D03*
X019014Y016180D03*
X019684Y016180D03*
X019514Y012680D03*
X020184Y012680D03*
X023014Y009680D03*
X023684Y009680D03*
X024514Y003680D03*
X025184Y003680D03*
X013809Y002680D03*
X013139Y002680D03*
D12*
X013159Y011078D03*
X013159Y011393D03*
X013159Y011708D03*
X013159Y012023D03*
X013159Y012337D03*
X013159Y012652D03*
X013159Y012967D03*
X013159Y013282D03*
X016539Y013282D03*
X016539Y012967D03*
X016539Y012652D03*
X016539Y012337D03*
X016539Y012023D03*
X016539Y011708D03*
X016539Y011393D03*
X016539Y011078D03*
D13*
X015951Y010490D03*
X015636Y010490D03*
X015321Y010490D03*
X015007Y010490D03*
X014692Y010490D03*
X014377Y010490D03*
X014062Y010490D03*
X013747Y010490D03*
X013747Y013870D03*
X014062Y013870D03*
X014377Y013870D03*
X014692Y013870D03*
X015007Y013870D03*
X015321Y013870D03*
X015636Y013870D03*
X015951Y013870D03*
D14*
X020668Y006467D03*
X020668Y004893D03*
X020668Y003467D03*
X020668Y001893D03*
X023030Y001893D03*
X023030Y003467D03*
X023030Y004893D03*
X023030Y006467D03*
D15*
X008400Y011180D03*
X007298Y011180D03*
D16*
X012562Y008652D03*
X012562Y007708D03*
X014136Y007708D03*
X014136Y008652D03*
D17*
X024436Y002680D03*
X025262Y002680D03*
M02*
