G75*
G70*
%OFA0B0*%
%FSLAX24Y24*%
%IPPOS*%
%LPD*%
%AMOC8*
5,1,8,0,0,1.08239X$1,22.5*
%
%ADD10C,0.0740*%
%ADD11OC8,0.0520*%
%ADD12C,0.0760*%
%ADD13C,0.1000*%
%ADD14OC8,0.1000*%
%ADD15R,0.0460X0.0630*%
%ADD16OC8,0.0740*%
%ADD17OC8,0.1230*%
%ADD18C,0.1600*%
%ADD19C,0.0160*%
%ADD20C,0.0396*%
%ADD21C,0.0240*%
D10*
X006349Y007180D03*
X009349Y018180D03*
X010349Y018180D03*
X011349Y018180D03*
X012349Y018180D03*
X013349Y018180D03*
X014349Y018180D03*
X026849Y010930D03*
X026849Y009930D03*
X026849Y008930D03*
X025849Y006180D03*
X024849Y006180D03*
X024849Y005180D03*
X025849Y005180D03*
X027349Y013180D03*
X027349Y014180D03*
X027349Y015180D03*
X027349Y016180D03*
D11*
X020349Y011180D03*
X019349Y011180D03*
X019349Y010180D03*
X020349Y010180D03*
X020349Y009180D03*
X019349Y009180D03*
D12*
X004668Y008696D03*
X004668Y007711D03*
X002699Y009680D03*
X004668Y010664D03*
X004668Y011649D03*
X004668Y012711D03*
X004668Y013696D03*
X002699Y014680D03*
X004668Y015664D03*
X004668Y016649D03*
D13*
X022349Y014680D03*
D14*
X024349Y014680D03*
D15*
X006649Y018180D03*
X006049Y018180D03*
D16*
X008990Y001924D03*
X009974Y001924D03*
X010958Y001924D03*
X015865Y001924D03*
X016849Y001924D03*
X017833Y001924D03*
D17*
X018581Y004680D03*
X015117Y004680D03*
X011706Y004680D03*
X008242Y004680D03*
D18*
X006243Y004680D03*
X003881Y004680D03*
X005062Y002830D03*
D19*
X002329Y002133D02*
X002329Y007111D01*
X002561Y007015D01*
X002838Y007015D01*
X003094Y007121D01*
X003290Y007317D01*
X003396Y007573D01*
X003396Y007850D01*
X003290Y008106D01*
X003094Y008302D01*
X002838Y008408D01*
X002561Y008408D01*
X002329Y008312D01*
X002329Y009230D01*
X002371Y009188D01*
X002584Y009100D01*
X002814Y009100D01*
X003028Y009188D01*
X003191Y009351D01*
X003279Y009565D01*
X003279Y009795D01*
X003191Y010009D01*
X003028Y010172D01*
X002814Y010260D01*
X002584Y010260D01*
X002371Y010172D01*
X002329Y010130D01*
X002329Y011048D01*
X002561Y010952D01*
X002838Y010952D01*
X003094Y011058D01*
X003290Y011254D01*
X003396Y011510D01*
X003396Y011787D01*
X003290Y012043D01*
X003153Y012180D01*
X003290Y012317D01*
X003396Y012573D01*
X003396Y012850D01*
X003290Y013106D01*
X003094Y013302D01*
X002838Y013408D01*
X002561Y013408D01*
X002329Y013312D01*
X002329Y014230D01*
X002371Y014188D01*
X002584Y014100D01*
X002814Y014100D01*
X003028Y014188D01*
X003191Y014351D01*
X003279Y014565D01*
X003279Y014795D01*
X003191Y015009D01*
X003028Y015172D01*
X002814Y015260D01*
X002584Y015260D01*
X002371Y015172D01*
X002329Y015130D01*
X002329Y016048D01*
X002561Y015952D01*
X002838Y015952D01*
X003094Y016058D01*
X003290Y016254D01*
X003396Y016510D01*
X003396Y016787D01*
X003290Y017043D01*
X003263Y017070D01*
X003495Y017070D01*
X003777Y017146D01*
X004031Y017292D01*
X004237Y017498D01*
X004383Y017752D01*
X004459Y018034D01*
X004459Y018326D01*
X004383Y018608D01*
X004237Y018862D01*
X004031Y019068D01*
X003802Y019200D01*
X026396Y019200D01*
X026168Y019068D01*
X025961Y018862D01*
X025815Y018608D01*
X025739Y018326D01*
X025739Y018034D01*
X025815Y017752D01*
X025961Y017498D01*
X026168Y017292D01*
X026421Y017146D01*
X026703Y017070D01*
X026995Y017070D01*
X027277Y017146D01*
X027531Y017292D01*
X027737Y017498D01*
X027869Y017727D01*
X027869Y016359D01*
X027859Y016391D01*
X027819Y016468D01*
X027769Y016538D01*
X027707Y016600D01*
X027637Y016650D01*
X027560Y016690D01*
X027478Y016716D01*
X027392Y016730D01*
X027369Y016730D01*
X027369Y016200D01*
X027329Y016200D01*
X027329Y016160D01*
X026799Y016160D01*
X026799Y016137D01*
X026813Y016051D01*
X026839Y015969D01*
X026879Y015892D01*
X026930Y015822D01*
X026991Y015760D01*
X027061Y015710D01*
X027095Y015692D01*
X027026Y015663D01*
X026894Y015531D01*
X025508Y016917D01*
X025405Y016960D01*
X021793Y016960D01*
X021690Y016917D01*
X021612Y016839D01*
X020233Y015460D01*
X020075Y015460D01*
X020052Y015484D01*
X019920Y015538D01*
X019778Y015538D01*
X019646Y015484D01*
X019545Y015383D01*
X019491Y015251D01*
X019491Y015109D01*
X019541Y014988D01*
X019420Y015038D01*
X019278Y015038D01*
X019146Y014984D01*
X019045Y014883D01*
X018991Y014751D01*
X018991Y014609D01*
X019045Y014477D01*
X019146Y014376D01*
X019278Y014322D01*
X019420Y014322D01*
X019541Y014372D01*
X019491Y014251D01*
X019491Y014109D01*
X019545Y013977D01*
X019646Y013876D01*
X019778Y013822D01*
X019920Y013822D01*
X020052Y013876D01*
X020075Y013900D01*
X020733Y013900D01*
X022069Y012564D01*
X022069Y012413D01*
X021691Y012791D01*
X021653Y012883D01*
X021552Y012984D01*
X021420Y013038D01*
X021278Y013038D01*
X021146Y012984D01*
X021045Y012883D01*
X020991Y012751D01*
X020991Y012609D01*
X021045Y012477D01*
X021146Y012376D01*
X021238Y012338D01*
X021529Y012047D01*
X021529Y011396D01*
X021086Y011839D01*
X021008Y011917D01*
X020905Y011960D01*
X019793Y011960D01*
X019690Y011917D01*
X019413Y011640D01*
X019159Y011640D01*
X018889Y011371D01*
X018889Y010989D01*
X019159Y010720D01*
X019540Y010720D01*
X019809Y010989D01*
X019809Y011244D01*
X019909Y011344D01*
X019909Y011180D01*
X019909Y010998D01*
X020167Y010740D01*
X020349Y010740D01*
X020349Y011180D01*
X019909Y011180D01*
X020349Y011180D01*
X020349Y011180D01*
X020349Y011180D01*
X020349Y010740D01*
X020531Y010740D01*
X020789Y010998D01*
X020789Y011180D01*
X020789Y011344D01*
X021069Y011064D01*
X021069Y008796D01*
X020733Y008460D01*
X018965Y008460D01*
X018129Y009296D01*
X018129Y009454D01*
X018153Y009477D01*
X018154Y009479D01*
X018690Y008943D01*
X018793Y008900D01*
X018979Y008900D01*
X019159Y008720D01*
X019540Y008720D01*
X019809Y008989D01*
X019809Y009371D01*
X019540Y009640D01*
X019159Y009640D01*
X018979Y009460D01*
X018965Y009460D01*
X018629Y009796D01*
X018629Y014736D01*
X018586Y014839D01*
X018129Y015296D01*
X018129Y015754D01*
X018153Y015777D01*
X018207Y015909D01*
X018207Y016051D01*
X018153Y016183D01*
X018052Y016284D01*
X017920Y016338D01*
X017778Y016338D01*
X017646Y016284D01*
X017545Y016183D01*
X017491Y016051D01*
X017491Y015909D01*
X017545Y015777D01*
X017569Y015754D01*
X017569Y015124D01*
X017612Y015021D01*
X018069Y014564D01*
X018069Y009966D01*
X018052Y009984D01*
X017920Y010038D01*
X017778Y010038D01*
X017646Y009984D01*
X017545Y009883D01*
X017491Y009751D01*
X017491Y009609D01*
X017545Y009477D01*
X017569Y009454D01*
X017569Y009124D01*
X017612Y009021D01*
X017690Y008943D01*
X018690Y007943D01*
X018793Y007900D01*
X020905Y007900D01*
X021008Y007943D01*
X021086Y008021D01*
X021086Y008021D01*
X021508Y008443D01*
X021529Y008464D01*
X021529Y007313D01*
X021217Y007000D01*
X017285Y007000D01*
X017168Y006951D01*
X017078Y006861D01*
X016078Y005861D01*
X016029Y005744D01*
X016029Y004313D01*
X015217Y003500D01*
X011166Y003500D01*
X011049Y003451D01*
X010294Y002697D01*
X010294Y005119D01*
X010245Y005236D01*
X009169Y006313D01*
X009169Y011744D01*
X009120Y011861D01*
X008620Y012361D01*
X008620Y012361D01*
X008530Y012451D01*
X008413Y012500D01*
X007482Y012500D01*
X007169Y012813D01*
X007169Y014017D01*
X007207Y014109D01*
X007207Y014251D01*
X007153Y014383D01*
X007052Y014484D01*
X006920Y014538D01*
X006778Y014538D01*
X006646Y014484D01*
X006545Y014383D01*
X006491Y014251D01*
X006491Y014109D01*
X006529Y014017D01*
X006529Y012616D01*
X006578Y012499D01*
X006668Y012409D01*
X007168Y011909D01*
X007285Y011860D01*
X008217Y011860D01*
X008529Y011547D01*
X008529Y006116D01*
X008578Y005999D01*
X009654Y004922D01*
X009654Y002410D01*
X009468Y002224D01*
X009218Y002474D01*
X009008Y002474D01*
X009008Y001943D01*
X008971Y001943D01*
X008971Y002474D01*
X008762Y002474D01*
X008440Y002152D01*
X008440Y001943D01*
X008971Y001943D01*
X008971Y001906D01*
X008440Y001906D01*
X008440Y001696D01*
X008762Y001374D01*
X008971Y001374D01*
X008971Y001906D01*
X009008Y001906D01*
X009008Y001374D01*
X009218Y001374D01*
X009468Y001624D01*
X009738Y001354D01*
X010210Y001354D01*
X010466Y001610D01*
X010722Y001354D01*
X011194Y001354D01*
X011528Y001688D01*
X011528Y002160D01*
X011194Y002494D01*
X010997Y002494D01*
X011363Y002860D01*
X015413Y002860D01*
X015530Y002909D01*
X015620Y002999D01*
X016569Y003947D01*
X016569Y002450D01*
X016357Y002238D01*
X016101Y002494D01*
X015629Y002494D01*
X015295Y002160D01*
X015295Y001688D01*
X015629Y001354D01*
X016101Y001354D01*
X016357Y001610D01*
X016613Y001354D01*
X017085Y001354D01*
X017355Y001624D01*
X017605Y001374D01*
X017815Y001374D01*
X017815Y001906D01*
X017852Y001906D01*
X017852Y001943D01*
X017815Y001943D01*
X017815Y002474D01*
X017605Y002474D01*
X017355Y002224D01*
X017129Y002450D01*
X017129Y005064D01*
X017965Y005900D01*
X021905Y005900D01*
X022008Y005943D01*
X022508Y006443D01*
X022586Y006521D01*
X022629Y006624D01*
X022629Y012736D01*
X022586Y012839D01*
X022508Y012917D01*
X021008Y014417D01*
X020905Y014460D01*
X020525Y014460D01*
X021965Y015900D01*
X024733Y015900D01*
X026612Y014021D01*
X026690Y013943D01*
X026793Y013900D01*
X026848Y013900D01*
X026866Y013857D01*
X027026Y013697D01*
X027067Y013680D01*
X027026Y013663D01*
X026866Y013503D01*
X026779Y013293D01*
X026779Y013067D01*
X026866Y012857D01*
X027026Y012697D01*
X027236Y012610D01*
X027462Y012610D01*
X027672Y012697D01*
X027832Y012857D01*
X027869Y012946D01*
X027869Y002133D01*
X027737Y002362D01*
X027531Y002568D01*
X027277Y002714D01*
X026995Y002790D01*
X026703Y002790D01*
X026421Y002714D01*
X026168Y002568D01*
X025961Y002362D01*
X025815Y002108D01*
X025739Y001826D01*
X025739Y001534D01*
X025815Y001252D01*
X025961Y000998D01*
X026168Y000792D01*
X026396Y000660D01*
X003802Y000660D01*
X004031Y000792D01*
X004237Y000998D01*
X004383Y001252D01*
X004459Y001534D01*
X004459Y001826D01*
X004389Y002088D01*
X004495Y001982D01*
X004863Y001830D01*
X005261Y001830D01*
X005628Y001982D01*
X005909Y002263D01*
X006062Y002631D01*
X006062Y003029D01*
X005909Y003396D01*
X005628Y003677D01*
X005261Y003830D01*
X004863Y003830D01*
X004495Y003677D01*
X004214Y003396D01*
X004062Y003029D01*
X004062Y002631D01*
X004128Y002471D01*
X004031Y002568D01*
X003777Y002714D01*
X003495Y002790D01*
X003203Y002790D01*
X002921Y002714D01*
X002668Y002568D01*
X002461Y002362D01*
X002329Y002133D01*
X002329Y002241D02*
X002391Y002241D01*
X002329Y002399D02*
X002498Y002399D01*
X002657Y002558D02*
X002329Y002558D01*
X002329Y002716D02*
X002927Y002716D01*
X002329Y002875D02*
X004062Y002875D01*
X004064Y003033D02*
X002329Y003033D01*
X002329Y003192D02*
X004129Y003192D01*
X004195Y003350D02*
X002329Y003350D01*
X002329Y003509D02*
X004326Y003509D01*
X004485Y003667D02*
X002329Y003667D01*
X002329Y003826D02*
X003330Y003826D01*
X003314Y003832D02*
X003682Y003680D01*
X004079Y003680D01*
X004447Y003832D01*
X004728Y004114D01*
X004881Y004481D01*
X004881Y004879D01*
X004728Y005246D01*
X004447Y005528D01*
X004079Y005680D01*
X003682Y005680D01*
X003314Y005528D01*
X003033Y005246D01*
X002881Y004879D01*
X002881Y004481D01*
X003033Y004114D01*
X003314Y003832D01*
X003162Y003984D02*
X002329Y003984D01*
X002329Y004143D02*
X003021Y004143D01*
X002955Y004301D02*
X002329Y004301D01*
X002329Y004460D02*
X002889Y004460D01*
X002881Y004618D02*
X002329Y004618D01*
X002329Y004777D02*
X002881Y004777D01*
X002904Y004935D02*
X002329Y004935D01*
X002329Y005094D02*
X002969Y005094D01*
X003038Y005252D02*
X002329Y005252D01*
X002329Y005411D02*
X003197Y005411D01*
X003414Y005569D02*
X002329Y005569D01*
X002329Y005728D02*
X008849Y005728D01*
X008690Y005886D02*
X002329Y005886D01*
X002329Y006045D02*
X008559Y006045D01*
X008529Y006203D02*
X002329Y006203D01*
X002329Y006362D02*
X008529Y006362D01*
X008529Y006520D02*
X002329Y006520D01*
X002329Y006679D02*
X006122Y006679D01*
X006138Y006670D02*
X006220Y006644D01*
X006306Y006630D01*
X006329Y006630D01*
X006329Y007160D01*
X005799Y007160D01*
X005799Y007137D01*
X005813Y007051D01*
X005839Y006969D01*
X005879Y006892D01*
X005930Y006822D01*
X005991Y006760D01*
X006061Y006710D01*
X006138Y006670D01*
X006329Y006679D02*
X006369Y006679D01*
X006369Y006630D02*
X006392Y006630D01*
X006478Y006644D01*
X006560Y006670D01*
X006637Y006710D01*
X006707Y006760D01*
X006769Y006822D01*
X006819Y006892D01*
X006859Y006969D01*
X006886Y007051D01*
X006899Y007137D01*
X006899Y007160D01*
X006369Y007160D01*
X006369Y006630D01*
X006369Y006837D02*
X006329Y006837D01*
X006329Y006996D02*
X006369Y006996D01*
X006369Y007154D02*
X006329Y007154D01*
X006329Y007160D02*
X006369Y007160D01*
X006369Y007200D01*
X006329Y007200D01*
X006329Y007160D01*
X006329Y007200D02*
X005799Y007200D01*
X005799Y007223D01*
X005813Y007309D01*
X005839Y007391D01*
X005879Y007468D01*
X005930Y007538D01*
X005991Y007600D01*
X006061Y007650D01*
X006138Y007690D01*
X006220Y007716D01*
X006306Y007730D01*
X006329Y007730D01*
X006329Y007200D01*
X006369Y007200D02*
X006369Y007730D01*
X006392Y007730D01*
X006478Y007716D01*
X006560Y007690D01*
X006637Y007650D01*
X006707Y007600D01*
X006769Y007538D01*
X006819Y007468D01*
X006859Y007391D01*
X006886Y007309D01*
X006899Y007223D01*
X006899Y007200D01*
X006369Y007200D01*
X006369Y007313D02*
X006329Y007313D01*
X006329Y007471D02*
X006369Y007471D01*
X006369Y007630D02*
X006329Y007630D01*
X006032Y007630D02*
X005248Y007630D01*
X005248Y007596D02*
X005248Y007827D01*
X005159Y008040D01*
X004996Y008203D01*
X004995Y008204D01*
X004996Y008204D01*
X005159Y008367D01*
X005248Y008580D01*
X005248Y008811D01*
X005159Y009024D01*
X005078Y009105D01*
X005258Y009285D01*
X005364Y009541D01*
X005364Y009819D01*
X005258Y010075D01*
X005078Y010255D01*
X005159Y010336D01*
X005248Y010549D01*
X005248Y010780D01*
X005159Y010993D01*
X004996Y011156D01*
X004995Y011156D01*
X004996Y011157D01*
X005159Y011320D01*
X005248Y011533D01*
X005248Y011764D01*
X005159Y011977D01*
X004996Y012140D01*
X004900Y012180D01*
X004996Y012220D01*
X005159Y012383D01*
X005248Y012596D01*
X005248Y012827D01*
X005159Y013040D01*
X004996Y013203D01*
X004995Y013204D01*
X004996Y013204D01*
X005159Y013367D01*
X005248Y013580D01*
X005248Y013811D01*
X006529Y013811D01*
X006529Y013653D02*
X005248Y013653D01*
X005248Y013811D02*
X005159Y014024D01*
X005078Y014105D01*
X005258Y014285D01*
X005364Y014541D01*
X005364Y014819D01*
X005258Y015075D01*
X005078Y015255D01*
X005159Y015336D01*
X005248Y015549D01*
X005248Y015780D01*
X005159Y015993D01*
X004996Y016156D01*
X004995Y016156D01*
X004996Y016157D01*
X005159Y016320D01*
X005248Y016533D01*
X005248Y016764D01*
X005159Y016977D01*
X004996Y017140D01*
X004783Y017229D01*
X004552Y017229D01*
X004339Y017140D01*
X004176Y016977D01*
X004088Y016764D01*
X004088Y016533D01*
X004176Y016320D01*
X004339Y016157D01*
X004340Y016156D01*
X004339Y016156D01*
X004176Y015993D01*
X004088Y015780D01*
X004088Y015549D01*
X004176Y015336D01*
X004257Y015255D01*
X004077Y015075D01*
X003971Y014819D01*
X003971Y014541D01*
X004077Y014285D01*
X004257Y014105D01*
X004176Y014024D01*
X004088Y013811D01*
X002329Y013811D01*
X002329Y013653D02*
X004088Y013653D01*
X004088Y013580D02*
X004176Y013367D01*
X004339Y013204D01*
X004340Y013204D01*
X004339Y013203D01*
X004176Y013040D01*
X004088Y012827D01*
X004088Y012596D01*
X004176Y012383D01*
X004339Y012220D01*
X004435Y012180D01*
X004339Y012140D01*
X004176Y011977D01*
X004088Y011764D01*
X004088Y011533D01*
X004176Y011320D01*
X004339Y011157D01*
X004340Y011156D01*
X004339Y011156D01*
X004176Y010993D01*
X004088Y010780D01*
X004088Y010549D01*
X004176Y010336D01*
X004257Y010255D01*
X004077Y010075D01*
X003971Y009819D01*
X003971Y009541D01*
X004077Y009285D01*
X004257Y009105D01*
X004176Y009024D01*
X004088Y008811D01*
X004088Y008580D01*
X004176Y008367D01*
X004339Y008204D01*
X004340Y008204D01*
X004339Y008203D01*
X004176Y008040D01*
X004088Y007827D01*
X004088Y007596D01*
X004176Y007383D01*
X004339Y007220D01*
X004552Y007131D01*
X004783Y007131D01*
X004996Y007220D01*
X005159Y007383D01*
X005248Y007596D01*
X005196Y007471D02*
X005881Y007471D01*
X005814Y007313D02*
X005089Y007313D01*
X004837Y007154D02*
X005799Y007154D01*
X005831Y006996D02*
X002329Y006996D01*
X002329Y006837D02*
X005918Y006837D01*
X006576Y006679D02*
X008529Y006679D01*
X008529Y006837D02*
X006780Y006837D01*
X006867Y006996D02*
X008529Y006996D01*
X008529Y007154D02*
X006899Y007154D01*
X006884Y007313D02*
X008529Y007313D01*
X008529Y007471D02*
X006817Y007471D01*
X006666Y007630D02*
X008529Y007630D01*
X008529Y007788D02*
X005248Y007788D01*
X005198Y007947D02*
X008529Y007947D01*
X008529Y008105D02*
X005094Y008105D01*
X005056Y008264D02*
X008529Y008264D01*
X008529Y008422D02*
X005182Y008422D01*
X005248Y008581D02*
X008529Y008581D01*
X008529Y008739D02*
X005248Y008739D01*
X005212Y008898D02*
X008529Y008898D01*
X008529Y009056D02*
X005128Y009056D01*
X005187Y009215D02*
X008529Y009215D01*
X008529Y009373D02*
X005294Y009373D01*
X005360Y009532D02*
X008529Y009532D01*
X008529Y009690D02*
X005364Y009690D01*
X005352Y009849D02*
X008529Y009849D01*
X008529Y010007D02*
X005286Y010007D01*
X005167Y010166D02*
X008529Y010166D01*
X008529Y010324D02*
X005148Y010324D01*
X005220Y010483D02*
X008529Y010483D01*
X008529Y010641D02*
X005248Y010641D01*
X005239Y010800D02*
X008529Y010800D01*
X008529Y010958D02*
X005174Y010958D01*
X005036Y011117D02*
X008529Y011117D01*
X008529Y011275D02*
X005114Y011275D01*
X005206Y011434D02*
X008529Y011434D01*
X008484Y011592D02*
X005248Y011592D01*
X005248Y011751D02*
X008326Y011751D01*
X008756Y012226D02*
X018069Y012226D01*
X018069Y012068D02*
X008914Y012068D01*
X009073Y011909D02*
X018069Y011909D01*
X018069Y011751D02*
X009166Y011751D01*
X009169Y011592D02*
X018069Y011592D01*
X018069Y011434D02*
X009169Y011434D01*
X009169Y011275D02*
X018069Y011275D01*
X018069Y011117D02*
X009169Y011117D01*
X009169Y010958D02*
X018069Y010958D01*
X018069Y010800D02*
X009169Y010800D01*
X009169Y010641D02*
X018069Y010641D01*
X018069Y010483D02*
X009169Y010483D01*
X009169Y010324D02*
X018069Y010324D01*
X018069Y010166D02*
X009169Y010166D01*
X009169Y010007D02*
X017703Y010007D01*
X017531Y009849D02*
X009169Y009849D01*
X009169Y009690D02*
X017491Y009690D01*
X017523Y009532D02*
X009169Y009532D01*
X009169Y009373D02*
X017569Y009373D01*
X017569Y009215D02*
X009169Y009215D01*
X009169Y009056D02*
X017597Y009056D01*
X017736Y008898D02*
X009169Y008898D01*
X009169Y008739D02*
X017894Y008739D01*
X018053Y008581D02*
X009169Y008581D01*
X009169Y008422D02*
X018211Y008422D01*
X018370Y008264D02*
X009169Y008264D01*
X009169Y008105D02*
X018528Y008105D01*
X018687Y007947D02*
X009169Y007947D01*
X009169Y007788D02*
X021529Y007788D01*
X021529Y007630D02*
X009169Y007630D01*
X009169Y007471D02*
X021529Y007471D01*
X021529Y007313D02*
X009169Y007313D01*
X009169Y007154D02*
X021371Y007154D01*
X021529Y007947D02*
X021012Y007947D01*
X021170Y008105D02*
X021529Y008105D01*
X021529Y008264D02*
X021329Y008264D01*
X021487Y008422D02*
X021529Y008422D01*
X021349Y008680D02*
X021349Y011180D01*
X020849Y011680D01*
X019849Y011680D01*
X019349Y011180D01*
X019809Y011117D02*
X019909Y011117D01*
X019909Y011275D02*
X019840Y011275D01*
X019778Y010958D02*
X019949Y010958D01*
X020107Y010800D02*
X019619Y010800D01*
X019540Y010640D02*
X019159Y010640D01*
X018889Y010371D01*
X018889Y009989D01*
X019159Y009720D01*
X019540Y009720D01*
X019809Y009989D01*
X019809Y010371D01*
X019540Y010640D01*
X019697Y010483D02*
X020001Y010483D01*
X019889Y010371D02*
X020159Y010640D01*
X020540Y010640D01*
X020809Y010371D01*
X020809Y009989D01*
X020540Y009720D01*
X020159Y009720D01*
X019889Y009989D01*
X019889Y010371D01*
X019889Y010324D02*
X019809Y010324D01*
X019809Y010166D02*
X019889Y010166D01*
X019889Y010007D02*
X019809Y010007D01*
X019668Y009849D02*
X020030Y009849D01*
X020159Y009640D02*
X019889Y009371D01*
X019889Y008989D01*
X020159Y008720D01*
X020540Y008720D01*
X020809Y008989D01*
X020809Y009371D01*
X020540Y009640D01*
X020159Y009640D01*
X020050Y009532D02*
X019648Y009532D01*
X019807Y009373D02*
X019892Y009373D01*
X019889Y009215D02*
X019809Y009215D01*
X019809Y009056D02*
X019889Y009056D01*
X019981Y008898D02*
X019717Y008898D01*
X019559Y008739D02*
X020140Y008739D01*
X020559Y008739D02*
X021012Y008739D01*
X021069Y008898D02*
X020717Y008898D01*
X020809Y009056D02*
X021069Y009056D01*
X021069Y009215D02*
X020809Y009215D01*
X020807Y009373D02*
X021069Y009373D01*
X021069Y009532D02*
X020648Y009532D01*
X021069Y009690D02*
X018735Y009690D01*
X018629Y009849D02*
X019030Y009849D01*
X018889Y010007D02*
X018629Y010007D01*
X018629Y010166D02*
X018889Y010166D01*
X018889Y010324D02*
X018629Y010324D01*
X018629Y010483D02*
X019001Y010483D01*
X018629Y010641D02*
X021069Y010641D01*
X021069Y010483D02*
X020697Y010483D01*
X020809Y010324D02*
X021069Y010324D01*
X021069Y010166D02*
X020809Y010166D01*
X020809Y010007D02*
X021069Y010007D01*
X021069Y009849D02*
X020668Y009849D01*
X019349Y009180D02*
X018849Y009180D01*
X018349Y009680D01*
X018349Y014680D01*
X017849Y015180D01*
X017849Y015980D01*
X018192Y015872D02*
X020645Y015872D01*
X020803Y016030D02*
X018207Y016030D01*
X018147Y016189D02*
X020962Y016189D01*
X021120Y016347D02*
X005170Y016347D01*
X005236Y016506D02*
X021279Y016506D01*
X021437Y016664D02*
X013590Y016664D01*
X013552Y016626D02*
X013653Y016727D01*
X013707Y016859D01*
X013707Y017001D01*
X013653Y017133D01*
X013629Y017156D01*
X013629Y017679D01*
X013672Y017697D01*
X013832Y017857D01*
X013849Y017898D01*
X013866Y017857D01*
X014026Y017697D01*
X014236Y017610D01*
X014462Y017610D01*
X014672Y017697D01*
X014832Y017857D01*
X014919Y018067D01*
X014919Y018293D01*
X014832Y018503D01*
X014672Y018663D01*
X014462Y018750D01*
X014236Y018750D01*
X014026Y018663D01*
X013866Y018503D01*
X013849Y018462D01*
X013832Y018503D01*
X013672Y018663D01*
X013462Y018750D01*
X013236Y018750D01*
X013026Y018663D01*
X012866Y018503D01*
X012849Y018462D01*
X012832Y018503D01*
X012672Y018663D01*
X012462Y018750D01*
X012236Y018750D01*
X012026Y018663D01*
X011866Y018503D01*
X011849Y018462D01*
X011832Y018503D01*
X011672Y018663D01*
X011462Y018750D01*
X011236Y018750D01*
X011026Y018663D01*
X010866Y018503D01*
X010849Y018462D01*
X010832Y018503D01*
X010672Y018663D01*
X010462Y018750D01*
X010236Y018750D01*
X010026Y018663D01*
X009866Y018503D01*
X009849Y018462D01*
X009832Y018503D01*
X009672Y018663D01*
X009462Y018750D01*
X009236Y018750D01*
X009026Y018663D01*
X008866Y018503D01*
X008779Y018293D01*
X008779Y018067D01*
X008866Y017857D01*
X009026Y017697D01*
X009236Y017610D01*
X009462Y017610D01*
X009672Y017697D01*
X009832Y017857D01*
X009849Y017898D01*
X009866Y017857D01*
X010026Y017697D01*
X010236Y017610D01*
X010462Y017610D01*
X010672Y017697D01*
X010832Y017857D01*
X010849Y017898D01*
X010866Y017857D01*
X010998Y017725D01*
X010733Y017460D01*
X008465Y017460D01*
X007586Y018339D01*
X007508Y018417D01*
X007405Y018460D01*
X007079Y018460D01*
X007079Y018578D01*
X006962Y018695D01*
X006336Y018695D01*
X006313Y018672D01*
X006303Y018675D01*
X006084Y018675D01*
X006084Y018215D01*
X006014Y018215D01*
X006014Y018145D01*
X005639Y018145D01*
X005639Y017841D01*
X005651Y017796D01*
X005675Y017754D01*
X005709Y017721D01*
X005750Y017697D01*
X005795Y017685D01*
X006014Y017685D01*
X006014Y018145D01*
X006084Y018145D01*
X006084Y017685D01*
X006303Y017685D01*
X006313Y017688D01*
X006336Y017665D01*
X006962Y017665D01*
X007079Y017782D01*
X007079Y017900D01*
X007233Y017900D01*
X008190Y016943D01*
X008293Y016900D01*
X010905Y016900D01*
X011008Y016943D01*
X011086Y017021D01*
X011586Y017521D01*
X011629Y017624D01*
X011629Y017679D01*
X011672Y017697D01*
X011832Y017857D01*
X011849Y017898D01*
X011866Y017857D01*
X012026Y017697D01*
X012236Y017610D01*
X012462Y017610D01*
X012672Y017697D01*
X012832Y017857D01*
X012849Y017898D01*
X012866Y017857D01*
X013026Y017697D01*
X013069Y017679D01*
X013069Y017156D01*
X013045Y017133D01*
X012991Y017001D01*
X012991Y016859D01*
X013045Y016727D01*
X013146Y016626D01*
X013278Y016572D01*
X013420Y016572D01*
X013552Y016626D01*
X013692Y016823D02*
X021596Y016823D01*
X021849Y016680D02*
X025349Y016680D01*
X026849Y015180D01*
X027349Y015180D01*
X026917Y015555D02*
X026871Y015555D01*
X026712Y015713D02*
X027056Y015713D01*
X026893Y015872D02*
X026554Y015872D01*
X026395Y016030D02*
X026819Y016030D01*
X026799Y016200D02*
X027329Y016200D01*
X027329Y016730D01*
X027306Y016730D01*
X027220Y016716D01*
X027138Y016690D01*
X027061Y016650D01*
X026991Y016600D01*
X026930Y016538D01*
X026879Y016468D01*
X026839Y016391D01*
X026813Y016309D01*
X026799Y016223D01*
X026799Y016200D01*
X026825Y016347D02*
X026078Y016347D01*
X026237Y016189D02*
X027329Y016189D01*
X027329Y016347D02*
X027369Y016347D01*
X027369Y016506D02*
X027329Y016506D01*
X027329Y016664D02*
X027369Y016664D01*
X027611Y016664D02*
X027869Y016664D01*
X027869Y016506D02*
X027792Y016506D01*
X027869Y016823D02*
X025603Y016823D01*
X025761Y016664D02*
X027088Y016664D01*
X026906Y016506D02*
X025920Y016506D01*
X026444Y017140D02*
X013646Y017140D01*
X013629Y017298D02*
X026161Y017298D01*
X026003Y017457D02*
X013629Y017457D01*
X013629Y017615D02*
X014224Y017615D01*
X014475Y017615D02*
X025894Y017615D01*
X025809Y017774D02*
X014749Y017774D01*
X014863Y017932D02*
X025766Y017932D01*
X025739Y018091D02*
X014919Y018091D01*
X014919Y018249D02*
X025739Y018249D01*
X025761Y018408D02*
X014872Y018408D01*
X014769Y018566D02*
X025803Y018566D01*
X025882Y018725D02*
X014524Y018725D01*
X014174Y018725D02*
X013524Y018725D01*
X013769Y018566D02*
X013929Y018566D01*
X013349Y018180D02*
X013349Y016930D01*
X013006Y016823D02*
X005223Y016823D01*
X005248Y016664D02*
X013109Y016664D01*
X012991Y016981D02*
X011046Y016981D01*
X011205Y017140D02*
X013052Y017140D01*
X013069Y017298D02*
X011363Y017298D01*
X011522Y017457D02*
X013069Y017457D01*
X013069Y017615D02*
X012475Y017615D01*
X012224Y017615D02*
X011625Y017615D01*
X011749Y017774D02*
X011949Y017774D01*
X011349Y017680D02*
X011349Y018180D01*
X011349Y017680D02*
X010849Y017180D01*
X008349Y017180D01*
X007349Y018180D01*
X006649Y018180D01*
X006084Y018249D02*
X006014Y018249D01*
X006014Y018215D02*
X006014Y018675D01*
X005795Y018675D01*
X005750Y018663D01*
X005709Y018639D01*
X005675Y018606D01*
X005651Y018564D01*
X005639Y018519D01*
X005639Y018215D01*
X006014Y018215D01*
X006014Y018091D02*
X006084Y018091D01*
X006084Y017932D02*
X006014Y017932D01*
X006014Y017774D02*
X006084Y017774D01*
X005664Y017774D02*
X004389Y017774D01*
X004432Y017932D02*
X005639Y017932D01*
X005639Y018091D02*
X004459Y018091D01*
X004459Y018249D02*
X005639Y018249D01*
X005639Y018408D02*
X004437Y018408D01*
X004395Y018566D02*
X005652Y018566D01*
X006014Y018566D02*
X006084Y018566D01*
X006084Y018408D02*
X006014Y018408D01*
X007079Y018566D02*
X008929Y018566D01*
X008826Y018408D02*
X007518Y018408D01*
X007676Y018249D02*
X008779Y018249D01*
X008779Y018091D02*
X007835Y018091D01*
X007993Y017932D02*
X008835Y017932D01*
X008949Y017774D02*
X008152Y017774D01*
X008310Y017615D02*
X009224Y017615D01*
X009475Y017615D02*
X010224Y017615D01*
X010475Y017615D02*
X010888Y017615D01*
X010949Y017774D02*
X010749Y017774D01*
X009949Y017774D02*
X009749Y017774D01*
X009769Y018566D02*
X009929Y018566D01*
X010174Y018725D02*
X009524Y018725D01*
X009174Y018725D02*
X004316Y018725D01*
X004216Y018883D02*
X025982Y018883D01*
X026141Y019042D02*
X004057Y019042D01*
X004304Y017615D02*
X007518Y017615D01*
X007360Y017774D02*
X007070Y017774D01*
X007677Y017457D02*
X004195Y017457D01*
X004037Y017298D02*
X007835Y017298D01*
X007994Y017140D02*
X004997Y017140D01*
X005155Y016981D02*
X008152Y016981D01*
X010524Y018725D02*
X011174Y018725D01*
X010929Y018566D02*
X010769Y018566D01*
X011524Y018725D02*
X012174Y018725D01*
X011929Y018566D02*
X011769Y018566D01*
X012524Y018725D02*
X013174Y018725D01*
X012929Y018566D02*
X012769Y018566D01*
X012749Y017774D02*
X012949Y017774D01*
X013749Y017774D02*
X013949Y017774D01*
X013707Y016981D02*
X027869Y016981D01*
X027869Y017140D02*
X027254Y017140D01*
X027537Y017298D02*
X027869Y017298D01*
X027869Y017457D02*
X027695Y017457D01*
X027804Y017615D02*
X027869Y017615D01*
X024849Y016180D02*
X026849Y014180D01*
X027349Y014180D01*
X026912Y013811D02*
X021614Y013811D01*
X021773Y013653D02*
X027015Y013653D01*
X026862Y013494D02*
X021931Y013494D01*
X022090Y013336D02*
X026797Y013336D01*
X026779Y013177D02*
X022248Y013177D01*
X022407Y013019D02*
X026799Y013019D01*
X026865Y012860D02*
X022565Y012860D01*
X022629Y012702D02*
X027021Y012702D01*
X027677Y012702D02*
X027869Y012702D01*
X027869Y012860D02*
X027833Y012860D01*
X027869Y012543D02*
X022629Y012543D01*
X022629Y012385D02*
X027869Y012385D01*
X027869Y012226D02*
X022629Y012226D01*
X022629Y012068D02*
X027869Y012068D01*
X027869Y011909D02*
X022629Y011909D01*
X022629Y011751D02*
X027869Y011751D01*
X027869Y011592D02*
X022629Y011592D01*
X022629Y011434D02*
X026575Y011434D01*
X026526Y011413D02*
X026366Y011253D01*
X026279Y011043D01*
X026279Y010817D01*
X026366Y010607D01*
X026526Y010447D01*
X026567Y010430D01*
X026526Y010413D01*
X026366Y010253D01*
X026279Y010043D01*
X026279Y009817D01*
X026366Y009607D01*
X026526Y009447D01*
X026595Y009418D01*
X026561Y009400D01*
X026491Y009350D01*
X026430Y009288D01*
X026379Y009218D01*
X026339Y009141D01*
X026313Y009059D01*
X026299Y008973D01*
X026299Y008930D01*
X026299Y008887D01*
X026313Y008801D01*
X026339Y008719D01*
X026379Y008642D01*
X026430Y008572D01*
X026491Y008510D01*
X026561Y008460D01*
X026638Y008420D01*
X026720Y008394D01*
X026806Y008380D01*
X026849Y008380D01*
X026849Y008930D01*
X026299Y008930D01*
X026849Y008930D01*
X026849Y008930D01*
X026849Y008930D01*
X026849Y008380D01*
X026892Y008380D01*
X026978Y008394D01*
X027060Y008420D01*
X027137Y008460D01*
X027207Y008510D01*
X027269Y008572D01*
X027319Y008642D01*
X027359Y008719D01*
X027386Y008801D01*
X027399Y008887D01*
X027399Y008930D01*
X027399Y008973D01*
X027386Y009059D01*
X027359Y009141D01*
X027319Y009218D01*
X027269Y009288D01*
X027207Y009350D01*
X027137Y009400D01*
X027103Y009418D01*
X027172Y009447D01*
X027332Y009607D01*
X027419Y009817D01*
X027419Y010043D01*
X027332Y010253D01*
X027172Y010413D01*
X027131Y010430D01*
X027172Y010447D01*
X027332Y010607D01*
X027419Y010817D01*
X027419Y011043D01*
X027332Y011253D01*
X027172Y011413D01*
X026962Y011500D01*
X026736Y011500D01*
X026526Y011413D01*
X026388Y011275D02*
X022629Y011275D01*
X022629Y011117D02*
X026309Y011117D01*
X026279Y010958D02*
X022629Y010958D01*
X022629Y010800D02*
X026286Y010800D01*
X026352Y010641D02*
X022629Y010641D01*
X022629Y010483D02*
X026490Y010483D01*
X026437Y010324D02*
X022629Y010324D01*
X022629Y010166D02*
X026330Y010166D01*
X026279Y010007D02*
X022629Y010007D01*
X022629Y009849D02*
X026279Y009849D01*
X026331Y009690D02*
X022629Y009690D01*
X022629Y009532D02*
X026441Y009532D01*
X026523Y009373D02*
X022629Y009373D01*
X022629Y009215D02*
X026377Y009215D01*
X026312Y009056D02*
X022629Y009056D01*
X022629Y008898D02*
X026299Y008898D01*
X026333Y008739D02*
X022629Y008739D01*
X022629Y008581D02*
X026423Y008581D01*
X026635Y008422D02*
X022629Y008422D01*
X022629Y008264D02*
X027869Y008264D01*
X027869Y008422D02*
X027064Y008422D01*
X026849Y008422D02*
X026849Y008422D01*
X026849Y008581D02*
X026849Y008581D01*
X026849Y008739D02*
X026849Y008739D01*
X026849Y008898D02*
X026849Y008898D01*
X026849Y008930D02*
X026849Y008930D01*
X027399Y008930D01*
X026849Y008930D01*
X027275Y008581D02*
X027869Y008581D01*
X027869Y008739D02*
X027365Y008739D01*
X027399Y008898D02*
X027869Y008898D01*
X027869Y009056D02*
X027386Y009056D01*
X027321Y009215D02*
X027869Y009215D01*
X027869Y009373D02*
X027175Y009373D01*
X027257Y009532D02*
X027869Y009532D01*
X027869Y009690D02*
X027367Y009690D01*
X027419Y009849D02*
X027869Y009849D01*
X027869Y010007D02*
X027419Y010007D01*
X027368Y010166D02*
X027869Y010166D01*
X027869Y010324D02*
X027261Y010324D01*
X027208Y010483D02*
X027869Y010483D01*
X027869Y010641D02*
X027346Y010641D01*
X027412Y010800D02*
X027869Y010800D01*
X027869Y010958D02*
X027419Y010958D01*
X027389Y011117D02*
X027869Y011117D01*
X027869Y011275D02*
X027310Y011275D01*
X027123Y011434D02*
X027869Y011434D01*
X026664Y013970D02*
X021456Y013970D01*
X021297Y014128D02*
X021951Y014128D01*
X021970Y014113D02*
X022048Y014069D01*
X022130Y014035D01*
X022216Y014012D01*
X022304Y014000D01*
X022329Y014000D01*
X022329Y014660D01*
X021669Y014660D01*
X021669Y014635D01*
X021681Y014547D01*
X021704Y014461D01*
X021738Y014379D01*
X021782Y014301D01*
X021837Y014231D01*
X021900Y014168D01*
X021970Y014113D01*
X021794Y014287D02*
X021139Y014287D01*
X020941Y014445D02*
X021710Y014445D01*
X021673Y014604D02*
X020669Y014604D01*
X020827Y014762D02*
X021674Y014762D01*
X021669Y014725D02*
X021669Y014700D01*
X022329Y014700D01*
X022329Y014660D01*
X022369Y014660D01*
X022369Y014000D01*
X022394Y014000D01*
X022482Y014012D01*
X022568Y014035D01*
X022650Y014069D01*
X022728Y014113D01*
X022798Y014168D01*
X022861Y014231D01*
X022916Y014301D01*
X022960Y014379D01*
X022994Y014461D01*
X023017Y014547D01*
X023029Y014635D01*
X023029Y014660D01*
X022369Y014660D01*
X022369Y014700D01*
X022329Y014700D01*
X022329Y015360D01*
X022304Y015360D01*
X022216Y015348D01*
X022130Y015325D01*
X022048Y015291D01*
X021970Y015247D01*
X021900Y015192D01*
X021837Y015129D01*
X021782Y015059D01*
X021738Y014981D01*
X021704Y014899D01*
X021681Y014813D01*
X021669Y014725D01*
X021713Y014921D02*
X020986Y014921D01*
X021144Y015079D02*
X021798Y015079D01*
X021959Y015238D02*
X021303Y015238D01*
X021461Y015396D02*
X025237Y015396D01*
X025079Y015555D02*
X021620Y015555D01*
X021778Y015713D02*
X024920Y015713D01*
X024762Y015872D02*
X021937Y015872D01*
X021849Y016180D02*
X024849Y016180D01*
X024639Y015380D02*
X024059Y015380D01*
X023649Y014970D01*
X023649Y014390D01*
X024059Y013980D01*
X024639Y013980D01*
X025049Y014390D01*
X025049Y014970D01*
X024639Y015380D01*
X024781Y015238D02*
X025396Y015238D01*
X025554Y015079D02*
X024940Y015079D01*
X025049Y014921D02*
X025713Y014921D01*
X025871Y014762D02*
X025049Y014762D01*
X025049Y014604D02*
X026030Y014604D01*
X026188Y014445D02*
X025049Y014445D01*
X024946Y014287D02*
X026347Y014287D01*
X026505Y014128D02*
X024787Y014128D01*
X023911Y014128D02*
X022747Y014128D01*
X022904Y014287D02*
X023753Y014287D01*
X023649Y014445D02*
X022988Y014445D01*
X023025Y014604D02*
X023649Y014604D01*
X023649Y014762D02*
X023024Y014762D01*
X023029Y014725D02*
X023017Y014813D01*
X022994Y014899D01*
X022960Y014981D01*
X022916Y015059D01*
X022861Y015129D01*
X022798Y015192D01*
X022728Y015247D01*
X022650Y015291D01*
X022568Y015325D01*
X022482Y015348D01*
X022394Y015360D01*
X022369Y015360D01*
X022369Y014700D01*
X023029Y014700D01*
X023029Y014725D01*
X022985Y014921D02*
X023649Y014921D01*
X023758Y015079D02*
X022900Y015079D01*
X022739Y015238D02*
X023917Y015238D01*
X022369Y015238D02*
X022329Y015238D01*
X022329Y015079D02*
X022369Y015079D01*
X022369Y014921D02*
X022329Y014921D01*
X022329Y014762D02*
X022369Y014762D01*
X022369Y014604D02*
X022329Y014604D01*
X022329Y014445D02*
X022369Y014445D01*
X022369Y014287D02*
X022329Y014287D01*
X022329Y014128D02*
X022369Y014128D01*
X021298Y013336D02*
X018629Y013336D01*
X018629Y013494D02*
X021139Y013494D01*
X020981Y013653D02*
X018629Y013653D01*
X018629Y013811D02*
X020822Y013811D01*
X020849Y014180D02*
X022349Y012680D01*
X022349Y006680D01*
X021849Y006180D01*
X017849Y006180D01*
X016849Y005180D01*
X016849Y001924D01*
X016361Y001607D02*
X016353Y001607D01*
X016195Y001448D02*
X016519Y001448D01*
X017179Y001448D02*
X017532Y001448D01*
X017373Y001607D02*
X017338Y001607D01*
X017815Y001607D02*
X017852Y001607D01*
X017852Y001765D02*
X017815Y001765D01*
X017852Y001906D02*
X017852Y001374D01*
X018061Y001374D01*
X018383Y001696D01*
X018383Y001906D01*
X017852Y001906D01*
X017852Y001924D02*
X025765Y001924D01*
X025739Y001765D02*
X018383Y001765D01*
X018383Y001943D02*
X017852Y001943D01*
X017852Y002474D01*
X018061Y002474D01*
X018383Y002152D01*
X018383Y001943D01*
X018383Y002082D02*
X025808Y002082D01*
X025891Y002241D02*
X018295Y002241D01*
X018136Y002399D02*
X025998Y002399D01*
X026157Y002558D02*
X017129Y002558D01*
X017129Y002716D02*
X026427Y002716D01*
X027271Y002716D02*
X027869Y002716D01*
X027869Y002558D02*
X027541Y002558D01*
X027700Y002399D02*
X027869Y002399D01*
X027869Y002241D02*
X027807Y002241D01*
X027869Y002875D02*
X017129Y002875D01*
X017129Y003033D02*
X027869Y003033D01*
X027869Y003192D02*
X017129Y003192D01*
X017129Y003350D02*
X027869Y003350D01*
X027869Y003509D02*
X017129Y003509D01*
X017129Y003667D02*
X027869Y003667D01*
X027869Y003826D02*
X017129Y003826D01*
X017129Y003984D02*
X018125Y003984D01*
X018244Y003865D02*
X018919Y003865D01*
X019396Y004342D01*
X019396Y005018D01*
X018919Y005495D01*
X018244Y005495D01*
X017766Y005018D01*
X017766Y004342D01*
X018244Y003865D01*
X017966Y004143D02*
X017129Y004143D01*
X017129Y004301D02*
X017808Y004301D01*
X017766Y004460D02*
X017129Y004460D01*
X017129Y004618D02*
X017766Y004618D01*
X017766Y004777D02*
X017129Y004777D01*
X017129Y004935D02*
X017766Y004935D01*
X017842Y005094D02*
X017159Y005094D01*
X017317Y005252D02*
X018001Y005252D01*
X018159Y005411D02*
X017476Y005411D01*
X017634Y005569D02*
X024432Y005569D01*
X024366Y005503D02*
X024526Y005663D01*
X024567Y005680D01*
X024526Y005697D01*
X024366Y005857D01*
X024279Y006067D01*
X024279Y006293D01*
X024366Y006503D01*
X024526Y006663D01*
X024736Y006750D01*
X024962Y006750D01*
X025172Y006663D01*
X025332Y006503D01*
X025349Y006462D01*
X025366Y006503D01*
X025526Y006663D01*
X025736Y006750D01*
X025962Y006750D01*
X026172Y006663D01*
X026332Y006503D01*
X026419Y006293D01*
X026419Y006067D01*
X026332Y005857D01*
X026172Y005697D01*
X026131Y005680D01*
X026172Y005663D01*
X026332Y005503D01*
X026419Y005293D01*
X026419Y005067D01*
X026332Y004857D01*
X026172Y004697D01*
X025962Y004610D01*
X025736Y004610D01*
X025526Y004697D01*
X025366Y004857D01*
X025349Y004898D01*
X025332Y004857D01*
X025172Y004697D01*
X024962Y004610D01*
X024736Y004610D01*
X024526Y004697D01*
X024366Y004857D01*
X024279Y005067D01*
X024279Y005293D01*
X024366Y005503D01*
X024328Y005411D02*
X019003Y005411D01*
X019162Y005252D02*
X024279Y005252D01*
X024279Y005094D02*
X019320Y005094D01*
X019396Y004935D02*
X024334Y004935D01*
X024446Y004777D02*
X019396Y004777D01*
X019396Y004618D02*
X024716Y004618D01*
X024982Y004618D02*
X025716Y004618D01*
X025982Y004618D02*
X027869Y004618D01*
X027869Y004460D02*
X019396Y004460D01*
X019355Y004301D02*
X027869Y004301D01*
X027869Y004143D02*
X019196Y004143D01*
X019038Y003984D02*
X027869Y003984D01*
X027869Y004777D02*
X026252Y004777D01*
X026365Y004935D02*
X027869Y004935D01*
X027869Y005094D02*
X026419Y005094D01*
X026419Y005252D02*
X027869Y005252D01*
X027869Y005411D02*
X026371Y005411D01*
X026266Y005569D02*
X027869Y005569D01*
X027869Y005728D02*
X026203Y005728D01*
X026344Y005886D02*
X027869Y005886D01*
X027869Y006045D02*
X026410Y006045D01*
X026419Y006203D02*
X027869Y006203D01*
X027869Y006362D02*
X026391Y006362D01*
X026315Y006520D02*
X027869Y006520D01*
X027869Y006679D02*
X026135Y006679D01*
X025563Y006679D02*
X025135Y006679D01*
X025315Y006520D02*
X025383Y006520D01*
X024563Y006679D02*
X022629Y006679D01*
X022629Y006837D02*
X027869Y006837D01*
X027869Y006996D02*
X022629Y006996D01*
X022629Y007154D02*
X027869Y007154D01*
X027869Y007313D02*
X022629Y007313D01*
X022629Y007471D02*
X027869Y007471D01*
X027869Y007630D02*
X022629Y007630D01*
X022629Y007788D02*
X027869Y007788D01*
X027869Y007947D02*
X022629Y007947D01*
X022629Y008105D02*
X027869Y008105D01*
X024383Y006520D02*
X022585Y006520D01*
X022508Y006443D02*
X022508Y006443D01*
X022427Y006362D02*
X024307Y006362D01*
X024279Y006203D02*
X022268Y006203D01*
X022110Y006045D02*
X024288Y006045D01*
X024354Y005886D02*
X017951Y005886D01*
X017793Y005728D02*
X024495Y005728D01*
X025252Y004777D02*
X025446Y004777D01*
X025739Y001607D02*
X018294Y001607D01*
X018135Y001448D02*
X025762Y001448D01*
X025805Y001290D02*
X004393Y001290D01*
X004436Y001448D02*
X008688Y001448D01*
X008530Y001607D02*
X004459Y001607D01*
X004459Y001765D02*
X008440Y001765D01*
X008440Y002082D02*
X005728Y002082D01*
X005887Y002241D02*
X008528Y002241D01*
X008687Y002399D02*
X005966Y002399D01*
X006031Y002558D02*
X009654Y002558D01*
X009654Y002716D02*
X006062Y002716D01*
X006062Y002875D02*
X009654Y002875D01*
X009654Y003033D02*
X006060Y003033D01*
X005994Y003192D02*
X009654Y003192D01*
X009654Y003350D02*
X005928Y003350D01*
X005797Y003509D02*
X009654Y003509D01*
X009654Y003667D02*
X005638Y003667D01*
X005761Y003826D02*
X005270Y003826D01*
X005511Y004026D02*
X005589Y003948D01*
X005675Y003879D01*
X005768Y003821D01*
X005867Y003773D01*
X005971Y003737D01*
X006078Y003712D01*
X006163Y003703D01*
X006163Y004600D01*
X006323Y004600D01*
X006323Y004760D01*
X007220Y004760D01*
X007210Y004844D01*
X007186Y004952D01*
X007150Y005056D01*
X007102Y005155D01*
X007043Y005248D01*
X006975Y005334D01*
X006897Y005412D01*
X006811Y005481D01*
X006718Y005539D01*
X006618Y005587D01*
X006514Y005623D01*
X006407Y005648D01*
X006323Y005657D01*
X006323Y004760D01*
X006163Y004760D01*
X006163Y005657D01*
X006078Y005648D01*
X005971Y005623D01*
X005867Y005587D01*
X005768Y005539D01*
X005675Y005481D01*
X005589Y005412D01*
X005511Y005334D01*
X005442Y005248D01*
X005384Y005155D01*
X005336Y005056D01*
X005300Y004952D01*
X005275Y004844D01*
X005266Y004760D01*
X006163Y004760D01*
X006163Y004600D01*
X005266Y004600D01*
X005275Y004516D01*
X005300Y004408D01*
X005336Y004304D01*
X005384Y004205D01*
X005442Y004112D01*
X005511Y004026D01*
X005553Y003984D02*
X004599Y003984D01*
X004740Y004143D02*
X005423Y004143D01*
X005338Y004301D02*
X004806Y004301D01*
X004872Y004460D02*
X005288Y004460D01*
X004881Y004618D02*
X006163Y004618D01*
X006163Y004460D02*
X006323Y004460D01*
X006323Y004600D02*
X006323Y003703D01*
X006407Y003712D01*
X006514Y003737D01*
X006618Y003773D01*
X006718Y003821D01*
X006811Y003879D01*
X006897Y003948D01*
X006975Y004026D01*
X007043Y004112D01*
X007102Y004205D01*
X007150Y004304D01*
X007186Y004408D01*
X007210Y004516D01*
X007220Y004600D01*
X006323Y004600D01*
X006323Y004618D02*
X007427Y004618D01*
X007427Y004460D02*
X007198Y004460D01*
X007148Y004301D02*
X007468Y004301D01*
X007427Y004342D02*
X007904Y003865D01*
X008579Y003865D01*
X009057Y004342D01*
X009057Y005018D01*
X008579Y005495D01*
X007904Y005495D01*
X007427Y005018D01*
X007427Y004342D01*
X007627Y004143D02*
X007062Y004143D01*
X006933Y003984D02*
X007785Y003984D01*
X008698Y003984D02*
X009654Y003984D01*
X009654Y003826D02*
X006725Y003826D01*
X006323Y003826D02*
X006163Y003826D01*
X006163Y003984D02*
X006323Y003984D01*
X006323Y004143D02*
X006163Y004143D01*
X006163Y004301D02*
X006323Y004301D01*
X006323Y004777D02*
X006163Y004777D01*
X006163Y004935D02*
X006323Y004935D01*
X006323Y005094D02*
X006163Y005094D01*
X006163Y005252D02*
X006323Y005252D01*
X006323Y005411D02*
X006163Y005411D01*
X006163Y005569D02*
X006323Y005569D01*
X006655Y005569D02*
X009007Y005569D01*
X009166Y005411D02*
X008664Y005411D01*
X008822Y005252D02*
X009324Y005252D01*
X009483Y005094D02*
X008981Y005094D01*
X009057Y004935D02*
X009641Y004935D01*
X009654Y004777D02*
X009057Y004777D01*
X009057Y004618D02*
X009654Y004618D01*
X009654Y004460D02*
X009057Y004460D01*
X009015Y004301D02*
X009654Y004301D01*
X009654Y004143D02*
X008857Y004143D01*
X010294Y004143D02*
X011091Y004143D01*
X010933Y004301D02*
X010294Y004301D01*
X010294Y004460D02*
X010891Y004460D01*
X010891Y004342D02*
X011369Y003865D01*
X012044Y003865D01*
X012521Y004342D01*
X012521Y005018D01*
X012044Y005495D01*
X011369Y005495D01*
X010891Y005018D01*
X010891Y004342D01*
X011250Y003984D02*
X010294Y003984D01*
X010294Y003826D02*
X015542Y003826D01*
X015454Y003865D02*
X015932Y004342D01*
X015932Y005018D01*
X015454Y005495D01*
X014779Y005495D01*
X014302Y005018D01*
X014302Y004342D01*
X014779Y003865D01*
X015454Y003865D01*
X015573Y003984D02*
X015701Y003984D01*
X015732Y004143D02*
X015859Y004143D01*
X015890Y004301D02*
X016018Y004301D01*
X016029Y004460D02*
X015932Y004460D01*
X015932Y004618D02*
X016029Y004618D01*
X016029Y004777D02*
X015932Y004777D01*
X015932Y004935D02*
X016029Y004935D01*
X016029Y005094D02*
X015856Y005094D01*
X015697Y005252D02*
X016029Y005252D01*
X016029Y005411D02*
X015539Y005411D01*
X016029Y005569D02*
X009913Y005569D01*
X010071Y005411D02*
X011284Y005411D01*
X011126Y005252D02*
X010230Y005252D01*
X010294Y005094D02*
X010967Y005094D01*
X010891Y004935D02*
X010294Y004935D01*
X010294Y004777D02*
X010891Y004777D01*
X010891Y004618D02*
X010294Y004618D01*
X010294Y003667D02*
X015384Y003667D01*
X015225Y003509D02*
X010294Y003509D01*
X010294Y003350D02*
X010947Y003350D01*
X010789Y003192D02*
X010294Y003192D01*
X010294Y003033D02*
X010630Y003033D01*
X010472Y002875D02*
X010294Y002875D01*
X010294Y002716D02*
X010313Y002716D01*
X009643Y002399D02*
X009293Y002399D01*
X009451Y002241D02*
X009484Y002241D01*
X009008Y002241D02*
X008971Y002241D01*
X008971Y002399D02*
X009008Y002399D01*
X009008Y002082D02*
X008971Y002082D01*
X008971Y001924D02*
X005487Y001924D01*
X004636Y001924D02*
X004433Y001924D01*
X004395Y002082D02*
X004390Y002082D01*
X004092Y002558D02*
X004041Y002558D01*
X004062Y002716D02*
X003771Y002716D01*
X004431Y003826D02*
X004853Y003826D01*
X004881Y004777D02*
X005267Y004777D01*
X005296Y004935D02*
X004857Y004935D01*
X004792Y005094D02*
X005354Y005094D01*
X005445Y005252D02*
X004723Y005252D01*
X004564Y005411D02*
X005587Y005411D01*
X005830Y005569D02*
X004347Y005569D01*
X004498Y007154D02*
X003127Y007154D01*
X003285Y007313D02*
X004246Y007313D01*
X004139Y007471D02*
X003353Y007471D01*
X003396Y007630D02*
X004088Y007630D01*
X004088Y007788D02*
X003396Y007788D01*
X003356Y007947D02*
X004137Y007947D01*
X004241Y008105D02*
X003290Y008105D01*
X003132Y008264D02*
X004280Y008264D01*
X004153Y008422D02*
X002329Y008422D01*
X002329Y008581D02*
X004088Y008581D01*
X004088Y008739D02*
X002329Y008739D01*
X002329Y008898D02*
X004123Y008898D01*
X004208Y009056D02*
X002329Y009056D01*
X002329Y009215D02*
X002344Y009215D01*
X003054Y009215D02*
X004148Y009215D01*
X004041Y009373D02*
X003200Y009373D01*
X003265Y009532D02*
X003975Y009532D01*
X003971Y009690D02*
X003279Y009690D01*
X003257Y009849D02*
X003983Y009849D01*
X004049Y010007D02*
X003191Y010007D01*
X003034Y010166D02*
X004168Y010166D01*
X004188Y010324D02*
X002329Y010324D01*
X002329Y010166D02*
X002364Y010166D01*
X002329Y010483D02*
X004115Y010483D01*
X004088Y010641D02*
X002329Y010641D01*
X002329Y010800D02*
X004096Y010800D01*
X004161Y010958D02*
X002852Y010958D01*
X002546Y010958D02*
X002329Y010958D01*
X003152Y011117D02*
X004300Y011117D01*
X004221Y011275D02*
X003298Y011275D01*
X003364Y011434D02*
X004129Y011434D01*
X004088Y011592D02*
X003396Y011592D01*
X003396Y011751D02*
X004088Y011751D01*
X004148Y011909D02*
X003345Y011909D01*
X003265Y012068D02*
X004266Y012068D01*
X004333Y012226D02*
X003199Y012226D01*
X003318Y012385D02*
X004175Y012385D01*
X004110Y012543D02*
X003383Y012543D01*
X003396Y012702D02*
X004088Y012702D01*
X004101Y012860D02*
X003391Y012860D01*
X003326Y013019D02*
X004167Y013019D01*
X004313Y013177D02*
X003219Y013177D01*
X003013Y013336D02*
X004208Y013336D01*
X004123Y013494D02*
X002329Y013494D01*
X002329Y013336D02*
X002385Y013336D01*
X002329Y013970D02*
X004153Y013970D01*
X004088Y013811D02*
X004088Y013580D01*
X004234Y014128D02*
X002882Y014128D01*
X003126Y014287D02*
X004077Y014287D01*
X004011Y014445D02*
X003230Y014445D01*
X003279Y014604D02*
X003971Y014604D01*
X003971Y014762D02*
X003279Y014762D01*
X003227Y014921D02*
X004013Y014921D01*
X004082Y015079D02*
X003120Y015079D01*
X002869Y015238D02*
X004240Y015238D01*
X004151Y015396D02*
X002329Y015396D01*
X002329Y015238D02*
X002529Y015238D01*
X002329Y015555D02*
X004088Y015555D01*
X004088Y015713D02*
X002329Y015713D01*
X002329Y015872D02*
X004126Y015872D01*
X004213Y016030D02*
X003026Y016030D01*
X003224Y016189D02*
X004307Y016189D01*
X004165Y016347D02*
X003328Y016347D01*
X003394Y016506D02*
X004099Y016506D01*
X004088Y016664D02*
X003396Y016664D01*
X003381Y016823D02*
X004112Y016823D01*
X004180Y016981D02*
X003315Y016981D01*
X003754Y017140D02*
X004338Y017140D01*
X005028Y016189D02*
X017551Y016189D01*
X017491Y016030D02*
X005122Y016030D01*
X005209Y015872D02*
X017506Y015872D01*
X017569Y015713D02*
X005248Y015713D01*
X005248Y015555D02*
X017569Y015555D01*
X017569Y015396D02*
X005184Y015396D01*
X005095Y015238D02*
X017569Y015238D01*
X017588Y015079D02*
X005254Y015079D01*
X005322Y014921D02*
X009083Y014921D01*
X009045Y014883D02*
X009146Y014984D01*
X009278Y015038D01*
X009420Y015038D01*
X009552Y014984D01*
X009575Y014960D01*
X017405Y014960D01*
X017508Y014917D01*
X017586Y014839D01*
X017886Y014539D01*
X017929Y014436D01*
X017929Y013706D01*
X017953Y013683D01*
X018007Y013551D01*
X018007Y013409D01*
X017953Y013277D01*
X017852Y013176D01*
X017720Y013122D01*
X017578Y013122D01*
X017446Y013176D01*
X017345Y013277D01*
X017291Y013409D01*
X017291Y013551D01*
X017345Y013683D01*
X017369Y013706D01*
X017369Y014264D01*
X017233Y014400D01*
X009575Y014400D01*
X009552Y014376D01*
X009420Y014322D01*
X009278Y014322D01*
X009146Y014376D01*
X009045Y014477D01*
X008991Y014609D01*
X008991Y014751D01*
X009045Y014883D01*
X008995Y014762D02*
X005364Y014762D01*
X005364Y014604D02*
X008993Y014604D01*
X009078Y014445D02*
X007090Y014445D01*
X007193Y014287D02*
X017347Y014287D01*
X017369Y014128D02*
X007207Y014128D01*
X007169Y013970D02*
X017369Y013970D01*
X017369Y013811D02*
X007169Y013811D01*
X007169Y013653D02*
X017333Y013653D01*
X017291Y013494D02*
X007169Y013494D01*
X007169Y013336D02*
X017321Y013336D01*
X017446Y013177D02*
X007169Y013177D01*
X007169Y013019D02*
X018069Y013019D01*
X018069Y013177D02*
X017853Y013177D01*
X017977Y013336D02*
X018069Y013336D01*
X018069Y013494D02*
X018007Y013494D01*
X017965Y013653D02*
X018069Y013653D01*
X018069Y013811D02*
X017929Y013811D01*
X017929Y013970D02*
X018069Y013970D01*
X018069Y014128D02*
X017929Y014128D01*
X017929Y014287D02*
X018069Y014287D01*
X018069Y014445D02*
X017925Y014445D01*
X017822Y014604D02*
X018030Y014604D01*
X017871Y014762D02*
X017663Y014762D01*
X017713Y014921D02*
X017500Y014921D01*
X017349Y014680D02*
X009349Y014680D01*
X006608Y014445D02*
X005324Y014445D01*
X005258Y014287D02*
X006506Y014287D01*
X006491Y014128D02*
X005101Y014128D01*
X005182Y013970D02*
X006529Y013970D01*
X006529Y013494D02*
X005212Y013494D01*
X005128Y013336D02*
X006529Y013336D01*
X006529Y013177D02*
X005022Y013177D01*
X005168Y013019D02*
X006529Y013019D01*
X006529Y012860D02*
X005234Y012860D01*
X005248Y012702D02*
X006529Y012702D01*
X006559Y012543D02*
X005226Y012543D01*
X005160Y012385D02*
X006692Y012385D01*
X006850Y012226D02*
X005002Y012226D01*
X005069Y012068D02*
X007009Y012068D01*
X007167Y011909D02*
X005187Y011909D01*
X007169Y012860D02*
X018069Y012860D01*
X018069Y012702D02*
X007280Y012702D01*
X007439Y012543D02*
X018069Y012543D01*
X018069Y012385D02*
X008597Y012385D01*
X002516Y014128D02*
X002329Y014128D01*
X002329Y016030D02*
X002372Y016030D01*
X009169Y006996D02*
X017275Y006996D01*
X017054Y006837D02*
X009169Y006837D01*
X009169Y006679D02*
X016895Y006679D01*
X016737Y006520D02*
X009169Y006520D01*
X009169Y006362D02*
X016578Y006362D01*
X016420Y006203D02*
X009279Y006203D01*
X009437Y006045D02*
X016261Y006045D01*
X016103Y005886D02*
X009596Y005886D01*
X009754Y005728D02*
X016029Y005728D01*
X014695Y005411D02*
X012128Y005411D01*
X012287Y005252D02*
X014536Y005252D01*
X014378Y005094D02*
X012445Y005094D01*
X012521Y004935D02*
X014302Y004935D01*
X014302Y004777D02*
X012521Y004777D01*
X012521Y004618D02*
X014302Y004618D01*
X014302Y004460D02*
X012521Y004460D01*
X012480Y004301D02*
X014343Y004301D01*
X014502Y004143D02*
X012321Y004143D01*
X012163Y003984D02*
X014660Y003984D01*
X015813Y003192D02*
X016569Y003192D01*
X016569Y003350D02*
X015972Y003350D01*
X016130Y003509D02*
X016569Y003509D01*
X016569Y003667D02*
X016289Y003667D01*
X016447Y003826D02*
X016569Y003826D01*
X016569Y003033D02*
X015655Y003033D01*
X015448Y002875D02*
X016569Y002875D01*
X016569Y002716D02*
X011219Y002716D01*
X011060Y002558D02*
X016569Y002558D01*
X016518Y002399D02*
X016196Y002399D01*
X016354Y002241D02*
X016359Y002241D01*
X017180Y002399D02*
X017530Y002399D01*
X017372Y002241D02*
X017339Y002241D01*
X017815Y002241D02*
X017852Y002241D01*
X017852Y002399D02*
X017815Y002399D01*
X017815Y002082D02*
X017852Y002082D01*
X017852Y001448D02*
X017815Y001448D01*
X015535Y001448D02*
X011288Y001448D01*
X011447Y001607D02*
X015376Y001607D01*
X015295Y001765D02*
X011528Y001765D01*
X011528Y001924D02*
X015295Y001924D01*
X015295Y002082D02*
X011528Y002082D01*
X011448Y002241D02*
X015375Y002241D01*
X015534Y002399D02*
X011289Y002399D01*
X010470Y001607D02*
X010463Y001607D01*
X010304Y001448D02*
X010628Y001448D01*
X009644Y001448D02*
X009292Y001448D01*
X009450Y001607D02*
X009486Y001607D01*
X009008Y001607D02*
X008971Y001607D01*
X008971Y001765D02*
X009008Y001765D01*
X009008Y001448D02*
X008971Y001448D01*
X004314Y001131D02*
X025884Y001131D01*
X025987Y000973D02*
X004211Y000973D01*
X004053Y000814D02*
X026145Y000814D01*
X020849Y008180D02*
X018849Y008180D01*
X017849Y009180D01*
X017849Y009680D01*
X018129Y009373D02*
X018260Y009373D01*
X018211Y009215D02*
X018419Y009215D01*
X018369Y009056D02*
X018577Y009056D01*
X018528Y008898D02*
X018981Y008898D01*
X019140Y008739D02*
X018686Y008739D01*
X018845Y008581D02*
X020854Y008581D01*
X020849Y008180D02*
X021349Y008680D01*
X019050Y009532D02*
X018894Y009532D01*
X018069Y010007D02*
X017995Y010007D01*
X018629Y010800D02*
X019079Y010800D01*
X018920Y010958D02*
X018629Y010958D01*
X018629Y011117D02*
X018889Y011117D01*
X018889Y011275D02*
X018629Y011275D01*
X018629Y011434D02*
X018952Y011434D01*
X019111Y011592D02*
X018629Y011592D01*
X018629Y011751D02*
X019524Y011751D01*
X019682Y011909D02*
X018629Y011909D01*
X018629Y012068D02*
X021509Y012068D01*
X021529Y011909D02*
X021016Y011909D01*
X021175Y011751D02*
X021529Y011751D01*
X021529Y011592D02*
X021333Y011592D01*
X021492Y011434D02*
X021529Y011434D01*
X021017Y011117D02*
X020789Y011117D01*
X020789Y011180D02*
X020349Y011180D01*
X020789Y011180D01*
X020789Y011275D02*
X020858Y011275D01*
X020749Y010958D02*
X021069Y010958D01*
X021069Y010800D02*
X020591Y010800D01*
X020349Y010800D02*
X020349Y010800D01*
X020349Y010958D02*
X020349Y010958D01*
X020349Y011117D02*
X020349Y011117D01*
X020349Y011180D02*
X020349Y011180D01*
X021350Y012226D02*
X018629Y012226D01*
X018629Y012385D02*
X021138Y012385D01*
X021018Y012543D02*
X018629Y012543D01*
X018629Y012702D02*
X020991Y012702D01*
X021036Y012860D02*
X018629Y012860D01*
X018629Y013019D02*
X021231Y013019D01*
X021468Y013019D02*
X021615Y013019D01*
X021662Y012860D02*
X021773Y012860D01*
X021780Y012702D02*
X021932Y012702D01*
X021939Y012543D02*
X022069Y012543D01*
X021456Y013177D02*
X018629Y013177D01*
X017649Y013480D02*
X017649Y014380D01*
X017349Y014680D01*
X018188Y015238D02*
X019491Y015238D01*
X019503Y015079D02*
X018346Y015079D01*
X018505Y014921D02*
X019083Y014921D01*
X018995Y014762D02*
X018618Y014762D01*
X018629Y014604D02*
X018993Y014604D01*
X019078Y014445D02*
X018629Y014445D01*
X018629Y014287D02*
X019506Y014287D01*
X019491Y014128D02*
X018629Y014128D01*
X018629Y013970D02*
X019553Y013970D01*
X019849Y014180D02*
X020849Y014180D01*
X020349Y014680D02*
X021849Y016180D01*
X021849Y016680D02*
X020349Y015180D01*
X019849Y015180D01*
X019559Y015396D02*
X018129Y015396D01*
X018129Y015555D02*
X020328Y015555D01*
X020486Y015713D02*
X018129Y015713D01*
X019349Y014680D02*
X020349Y014680D01*
X007820Y005411D02*
X006898Y005411D01*
X007040Y005252D02*
X007661Y005252D01*
X007503Y005094D02*
X007131Y005094D01*
X007190Y004935D02*
X007427Y004935D01*
X007427Y004777D02*
X007218Y004777D01*
D20*
X011349Y010180D03*
X010099Y011930D03*
X006849Y014180D03*
X009349Y014680D03*
X013349Y016930D03*
X017849Y015980D03*
X019849Y015180D03*
X019349Y014680D03*
X019849Y014180D03*
X017649Y013480D03*
X021349Y012680D03*
X017849Y009680D03*
X020349Y016180D03*
D21*
X021349Y012680D02*
X021849Y012180D01*
X021849Y007180D01*
X021349Y006680D01*
X017349Y006680D01*
X016349Y005680D01*
X016349Y004180D01*
X015349Y003180D01*
X011230Y003180D01*
X009974Y001924D01*
X009974Y005055D01*
X008849Y006180D01*
X008849Y011680D01*
X008349Y012180D01*
X007349Y012180D01*
X006849Y012680D01*
X006849Y014180D01*
M02*
