G75*
G70*
%OFA0B0*%
%FSLAX24Y24*%
%IPPOS*%
%LPD*%
%AMOC8*
5,1,8,0,0,1.08239X$1,22.5*
%
%ADD10C,0.1340*%
%ADD11C,0.0820*%
%ADD12OC8,0.0600*%
%ADD13C,0.0840*%
%ADD14C,0.0513*%
%ADD15C,0.1080*%
%ADD16OC8,0.1080*%
%ADD17R,0.0540X0.0710*%
%ADD18R,0.0060X0.0720*%
%ADD19OC8,0.0820*%
%ADD20OC8,0.1310*%
%ADD21C,0.1680*%
D10*
X003349Y001680D03*
X026849Y001680D03*
X026849Y018180D03*
X003349Y018180D03*
D11*
X009349Y018180D03*
X010349Y018180D03*
X011349Y018180D03*
X012349Y018180D03*
X013349Y018180D03*
X014349Y018180D03*
X026849Y010930D03*
X026849Y009930D03*
X026849Y008930D03*
X025849Y006180D03*
X024849Y006180D03*
X024849Y005180D03*
X025849Y005180D03*
X027349Y013180D03*
X027349Y014180D03*
X027349Y015180D03*
X027349Y016180D03*
X006349Y007180D03*
D12*
X019349Y009180D03*
X020349Y009180D03*
X020349Y010180D03*
X019349Y010180D03*
X019349Y011180D03*
X020349Y011180D03*
D13*
X004668Y011649D03*
X004668Y010664D03*
X002699Y009680D03*
X004668Y008696D03*
X004668Y007711D03*
X004668Y012711D03*
X004668Y013696D03*
X002699Y014680D03*
X004668Y015664D03*
X004668Y016649D03*
D14*
X002699Y016649D03*
X004668Y014680D03*
X002699Y012711D03*
X002699Y011649D03*
X004668Y009680D03*
X002699Y007711D03*
D15*
X022349Y014680D03*
D16*
X024349Y014680D03*
D17*
X006649Y018180D03*
X006049Y018180D03*
D18*
X006349Y018180D03*
D19*
X008990Y001924D03*
X009974Y001924D03*
X010958Y001924D03*
X015865Y001924D03*
X016849Y001924D03*
X017833Y001924D03*
D20*
X018581Y004680D03*
X015117Y004680D03*
X011706Y004680D03*
X008242Y004680D03*
D21*
X006243Y004680D03*
X003881Y004680D03*
X005062Y002830D03*
M02*
