G75*
G70*
%OFA0B0*%
%FSLAX24Y24*%
%IPPOS*%
%LPD*%
%AMOC8*
5,1,8,0,0,1.08239X$1,22.5*
%
%ADD10C,0.0160*%
%ADD11C,0.0070*%
%ADD12C,0.0050*%
%ADD13C,0.0040*%
%ADD14C,0.0030*%
%ADD15C,0.0080*%
%ADD16C,0.0060*%
%ADD17C,0.0100*%
%ADD18R,0.0288X0.0004*%
%ADD19R,0.0356X0.0004*%
%ADD20R,0.0408X0.0004*%
%ADD21R,0.0444X0.0004*%
%ADD22R,0.0472X0.0004*%
%ADD23R,0.0504X0.0004*%
%ADD24R,0.0524X0.0004*%
%ADD25R,0.0544X0.0004*%
%ADD26R,0.0564X0.0004*%
%ADD27R,0.0580X0.0004*%
%ADD28R,0.0596X0.0004*%
%ADD29R,0.0604X0.0004*%
%ADD30R,0.0616X0.0004*%
%ADD31R,0.0208X0.0004*%
%ADD32R,0.0212X0.0004*%
%ADD33R,0.0176X0.0004*%
%ADD34R,0.0188X0.0004*%
%ADD35R,0.0160X0.0004*%
%ADD36R,0.0168X0.0004*%
%ADD37R,0.0148X0.0004*%
%ADD38R,0.0160X0.0004*%
%ADD39R,0.0136X0.0004*%
%ADD40R,0.0152X0.0004*%
%ADD41R,0.0132X0.0004*%
%ADD42R,0.0144X0.0004*%
%ADD43R,0.0128X0.0004*%
%ADD44R,0.0140X0.0004*%
%ADD45R,0.0124X0.0004*%
%ADD46R,0.0136X0.0004*%
%ADD47R,0.0124X0.0004*%
%ADD48R,0.0136X0.0004*%
%ADD49R,0.0120X0.0004*%
%ADD50R,0.0128X0.0004*%
%ADD51R,0.0116X0.0004*%
%ADD52R,0.0112X0.0004*%
%ADD53R,0.0116X0.0004*%
%ADD54R,0.0112X0.0004*%
%ADD55R,0.0120X0.0004*%
%ADD56R,0.0116X0.0004*%
%ADD57R,0.0116X0.0004*%
%ADD58R,0.0204X0.0004*%
%ADD59R,0.0268X0.0004*%
%ADD60R,0.0200X0.0004*%
%ADD61R,0.0300X0.0004*%
%ADD62R,0.0308X0.0004*%
%ADD63R,0.0368X0.0004*%
%ADD64R,0.0292X0.0004*%
%ADD65R,0.0352X0.0004*%
%ADD66R,0.0368X0.0004*%
%ADD67R,0.0424X0.0004*%
%ADD68R,0.0348X0.0004*%
%ADD69R,0.0392X0.0004*%
%ADD70R,0.0408X0.0004*%
%ADD71R,0.0464X0.0004*%
%ADD72R,0.0388X0.0004*%
%ADD73R,0.0444X0.0004*%
%ADD74R,0.0496X0.0004*%
%ADD75R,0.0416X0.0004*%
%ADD76R,0.0452X0.0004*%
%ADD77R,0.0468X0.0004*%
%ADD78R,0.0524X0.0004*%
%ADD79R,0.0444X0.0004*%
%ADD80R,0.0492X0.0004*%
%ADD81R,0.0544X0.0004*%
%ADD82R,0.0468X0.0004*%
%ADD83R,0.0488X0.0004*%
%ADD84R,0.0516X0.0004*%
%ADD85R,0.0564X0.0004*%
%ADD86R,0.0508X0.0004*%
%ADD87R,0.0536X0.0004*%
%ADD88R,0.0580X0.0004*%
%ADD89R,0.0524X0.0004*%
%ADD90R,0.0552X0.0004*%
%ADD91R,0.0596X0.0004*%
%ADD92R,0.0540X0.0004*%
%ADD93R,0.0564X0.0004*%
%ADD94R,0.0612X0.0004*%
%ADD95R,0.0536X0.0004*%
%ADD96R,0.0576X0.0004*%
%ADD97R,0.0624X0.0004*%
%ADD98R,0.0680X0.0004*%
%ADD99R,0.0592X0.0004*%
%ADD100R,0.0632X0.0004*%
%ADD101R,0.0560X0.0004*%
%ADD102R,0.0688X0.0004*%
%ADD103R,0.0600X0.0004*%
%ADD104R,0.0644X0.0004*%
%ADD105R,0.0236X0.0004*%
%ADD106R,0.0312X0.0004*%
%ADD107R,0.0216X0.0004*%
%ADD108R,0.0224X0.0004*%
%ADD109R,0.0200X0.0004*%
%ADD110R,0.0244X0.0004*%
%ADD111R,0.0196X0.0004*%
%ADD112R,0.0264X0.0004*%
%ADD113R,0.0176X0.0004*%
%ADD114R,0.0172X0.0004*%
%ADD115R,0.0260X0.0004*%
%ADD116R,0.0180X0.0004*%
%ADD117R,0.0240X0.0004*%
%ADD118R,0.0152X0.0004*%
%ADD119R,0.0152X0.0004*%
%ADD120R,0.0236X0.0004*%
%ADD121R,0.0168X0.0004*%
%ADD122R,0.0224X0.0004*%
%ADD123R,0.0164X0.0004*%
%ADD124R,0.0220X0.0004*%
%ADD125R,0.0212X0.0004*%
%ADD126R,0.0140X0.0004*%
%ADD127R,0.0132X0.0004*%
%ADD128R,0.0124X0.0004*%
%ADD129R,0.0156X0.0004*%
%ADD130R,0.0204X0.0004*%
%ADD131R,0.0148X0.0004*%
%ADD132R,0.0192X0.0004*%
%ADD133R,0.0192X0.0004*%
%ADD134R,0.0184X0.0004*%
%ADD135R,0.0184X0.0004*%
%ADD136R,0.0108X0.0004*%
%ADD137R,0.0176X0.0004*%
%ADD138R,0.0136X0.0004*%
%ADD139R,0.0132X0.0004*%
%ADD140R,0.0168X0.0004*%
%ADD141R,0.0108X0.0004*%
%ADD142R,0.0164X0.0004*%
%ADD143R,0.0108X0.0004*%
%ADD144R,0.0104X0.0004*%
%ADD145R,0.0124X0.0004*%
%ADD146R,0.0156X0.0004*%
%ADD147R,0.0156X0.0004*%
%ADD148R,0.0112X0.0004*%
%ADD149R,0.0108X0.0004*%
%ADD150R,0.0104X0.0004*%
%ADD151R,0.0112X0.0004*%
%ADD152R,0.0104X0.0004*%
%ADD153R,0.0144X0.0004*%
%ADD154R,0.0144X0.0004*%
%ADD155R,0.0104X0.0004*%
%ADD156R,0.0100X0.0004*%
%ADD157R,0.0100X0.0004*%
%ADD158R,0.0096X0.0004*%
%ADD159R,0.0128X0.0004*%
%ADD160R,0.0148X0.0004*%
%ADD161R,0.0228X0.0004*%
%ADD162R,0.0504X0.0004*%
%ADD163R,0.0532X0.0004*%
%ADD164R,0.0552X0.0004*%
%ADD165R,0.0688X0.0004*%
%ADD166R,0.0564X0.0004*%
%ADD167R,0.0568X0.0004*%
%ADD168R,0.0568X0.0004*%
%ADD169R,0.0552X0.0004*%
%ADD170R,0.0536X0.0004*%
%ADD171R,0.0472X0.0004*%
%ADD172R,0.0196X0.0004*%
%ADD173R,0.0132X0.0004*%
%ADD174R,0.0164X0.0004*%
%ADD175R,0.0172X0.0004*%
%ADD176R,0.0172X0.0004*%
%ADD177R,0.0188X0.0004*%
%ADD178R,0.0192X0.0004*%
%ADD179R,0.0204X0.0004*%
%ADD180R,0.0156X0.0004*%
%ADD181R,0.0172X0.0004*%
%ADD182R,0.0216X0.0004*%
%ADD183R,0.0216X0.0004*%
%ADD184R,0.0232X0.0004*%
%ADD185R,0.0168X0.0004*%
%ADD186R,0.0228X0.0004*%
%ADD187R,0.0232X0.0004*%
%ADD188R,0.0204X0.0004*%
%ADD189R,0.0256X0.0004*%
%ADD190R,0.0252X0.0004*%
%ADD191R,0.0256X0.0004*%
%ADD192R,0.0320X0.0004*%
%ADD193R,0.0224X0.0004*%
%ADD194R,0.0300X0.0004*%
%ADD195R,0.0236X0.0004*%
%ADD196R,0.0684X0.0004*%
%ADD197R,0.0636X0.0004*%
%ADD198R,0.0548X0.0004*%
%ADD199R,0.0556X0.0004*%
%ADD200R,0.0560X0.0004*%
%ADD201R,0.0624X0.0004*%
%ADD202R,0.0548X0.0004*%
%ADD203R,0.0612X0.0004*%
%ADD204R,0.0540X0.0004*%
%ADD205R,0.0600X0.0004*%
%ADD206R,0.0508X0.0004*%
%ADD207R,0.0516X0.0004*%
%ADD208R,0.0516X0.0004*%
%ADD209R,0.0584X0.0004*%
%ADD210R,0.0496X0.0004*%
%ADD211R,0.0500X0.0004*%
%ADD212R,0.0476X0.0004*%
%ADD213R,0.0480X0.0004*%
%ADD214R,0.0472X0.0004*%
%ADD215R,0.0460X0.0004*%
%ADD216R,0.0460X0.0004*%
%ADD217R,0.0452X0.0004*%
%ADD218R,0.0432X0.0004*%
%ADD219R,0.0436X0.0004*%
%ADD220R,0.0428X0.0004*%
%ADD221R,0.0408X0.0004*%
%ADD222R,0.0484X0.0004*%
%ADD223R,0.0396X0.0004*%
%ADD224R,0.0376X0.0004*%
%ADD225R,0.0376X0.0004*%
%ADD226R,0.0376X0.0004*%
%ADD227R,0.0448X0.0004*%
%ADD228R,0.0340X0.0004*%
%ADD229R,0.0332X0.0004*%
%ADD230R,0.0412X0.0004*%
%ADD231R,0.0312X0.0004*%
%ADD232R,0.0296X0.0004*%
%ADD233R,0.0280X0.0004*%
%ADD234R,0.0356X0.0004*%
%ADD235R,0.0188X0.0004*%
%ADD236R,0.0272X0.0004*%
%ADD237R,0.0284X0.0004*%
%ADD238R,0.0308X0.0004*%
%ADD239R,0.0316X0.0004*%
%ADD240R,0.0360X0.0004*%
%ADD241R,0.0348X0.0004*%
%ADD242R,0.0380X0.0004*%
%ADD243R,0.0400X0.0004*%
%ADD244R,0.0372X0.0004*%
%ADD245R,0.0412X0.0004*%
%ADD246R,0.0396X0.0004*%
%ADD247R,0.0440X0.0004*%
%ADD248R,0.0428X0.0004*%
%ADD249R,0.0484X0.0004*%
%ADD250R,0.0504X0.0004*%
%ADD251R,0.0520X0.0004*%
%ADD252R,0.0504X0.0004*%
%ADD253R,0.0536X0.0004*%
%ADD254R,0.0452X0.0004*%
%ADD255R,0.0464X0.0004*%
%ADD256R,0.0476X0.0004*%
%ADD257R,0.0576X0.0004*%
%ADD258R,0.0556X0.0004*%
%ADD259R,0.0588X0.0004*%
%ADD260R,0.0492X0.0004*%
%ADD261R,0.0684X0.0004*%
%ADD262R,0.0216X0.0004*%
%ADD263R,0.0304X0.0004*%
%ADD264R,0.0248X0.0004*%
%ADD265R,0.0148X0.0004*%
%ADD266R,0.0232X0.0004*%
%ADD267R,0.0180X0.0004*%
%ADD268R,0.0212X0.0004*%
%ADD269R,0.0144X0.0004*%
%ADD270R,0.0152X0.0004*%
%ADD271R,0.0164X0.0004*%
%ADD272R,0.0184X0.0004*%
%ADD273R,0.0192X0.0004*%
%ADD274R,0.0208X0.0004*%
%ADD275R,0.0252X0.0004*%
%ADD276R,0.0244X0.0004*%
%ADD277R,0.0276X0.0004*%
%ADD278R,0.0268X0.0004*%
%ADD279R,0.0184X0.0004*%
%ADD280R,0.0224X0.0004*%
%ADD281R,0.0592X0.0004*%
%ADD282R,0.0264X0.0004*%
%ADD283R,0.0324X0.0004*%
%ADD284R,0.0252X0.0004*%
%ADD285R,0.0228X0.0004*%
%ADD286R,0.0572X0.0004*%
%ADD287R,0.0584X0.0004*%
%ADD288R,0.0524X0.0004*%
%ADD289R,0.0528X0.0004*%
%ADD290R,0.0512X0.0004*%
%ADD291R,0.0476X0.0004*%
%ADD292R,0.0516X0.0004*%
%ADD293R,0.0488X0.0004*%
%ADD294R,0.0432X0.0004*%
%ADD295R,0.0436X0.0004*%
%ADD296R,0.0476X0.0004*%
%ADD297R,0.0416X0.0004*%
%ADD298R,0.0416X0.0004*%
%ADD299R,0.0376X0.0004*%
%ADD300R,0.0420X0.0004*%
%ADD301R,0.0424X0.0004*%
%ADD302R,0.0384X0.0004*%
%ADD303R,0.0384X0.0004*%
%ADD304R,0.0336X0.0004*%
%ADD305R,0.0388X0.0004*%
%ADD306R,0.0296X0.0004*%
%ADD307R,0.0344X0.0004*%
%ADD308R,0.0344X0.0004*%
%ADD309R,0.0288X0.0004*%
%ADD310R,0.0280X0.0004*%
%ADD311R,0.0250X0.0900*%
%ADD312R,0.0079X0.0079*%
D10*
X001849Y001180D02*
X001849Y018680D01*
X002849Y019680D01*
X027349Y019680D01*
X028349Y018680D01*
X028349Y001180D01*
X027349Y000180D01*
X002849Y000180D01*
X001849Y001180D01*
X005974Y008880D02*
X005974Y009480D01*
X006524Y009180D01*
X005974Y008880D01*
X005974Y008898D02*
X006006Y008898D01*
X005974Y009056D02*
X006297Y009056D01*
X006461Y009215D02*
X005974Y009215D01*
X005974Y009373D02*
X006170Y009373D01*
X006524Y015280D02*
X005974Y015580D01*
X006524Y015880D01*
X006524Y015280D01*
X006524Y015396D02*
X006311Y015396D01*
X006524Y015555D02*
X006021Y015555D01*
X006218Y015713D02*
X006524Y015713D01*
X006509Y015872D02*
X006524Y015872D01*
X027549Y011230D02*
X027549Y010630D01*
X027849Y010930D01*
X027549Y011230D01*
X027549Y011117D02*
X027663Y011117D01*
X027549Y010958D02*
X027821Y010958D01*
X027719Y010800D02*
X027549Y010800D01*
X027549Y010641D02*
X027560Y010641D01*
X027549Y010230D02*
X027549Y009630D01*
X027849Y009930D01*
X027549Y010230D01*
X027549Y010166D02*
X027614Y010166D01*
X027549Y010007D02*
X027772Y010007D01*
X027768Y009849D02*
X027549Y009849D01*
X027549Y009690D02*
X027609Y009690D01*
X027549Y009230D02*
X027549Y008630D01*
X027849Y008930D01*
X027549Y009230D01*
X027549Y009215D02*
X027565Y009215D01*
X027549Y009056D02*
X027723Y009056D01*
X027817Y008898D02*
X027549Y008898D01*
X027549Y008739D02*
X027658Y008739D01*
D11*
X021606Y016965D02*
X021311Y016965D01*
X021311Y017556D01*
X021606Y017556D01*
X021704Y017457D01*
X021704Y017063D01*
X021606Y016965D01*
X021102Y016965D02*
X020905Y016965D01*
X021004Y016965D02*
X021004Y017556D01*
X021102Y017556D02*
X020905Y017556D01*
X020691Y017457D02*
X020593Y017556D01*
X020396Y017556D01*
X020298Y017457D01*
X020298Y017063D01*
X020396Y016965D01*
X020593Y016965D01*
X020691Y017063D01*
X020691Y017457D01*
X020084Y017457D02*
X019690Y017063D01*
X019690Y016965D01*
X020084Y016965D01*
X020084Y017457D02*
X020084Y017556D01*
X019690Y017556D01*
X019476Y017359D02*
X019476Y016965D01*
X019476Y017260D02*
X019082Y017260D01*
X019082Y017359D02*
X019082Y016965D01*
X018868Y016965D02*
X018868Y017556D01*
X018671Y017359D01*
X018474Y017556D01*
X018474Y016965D01*
X018260Y017063D02*
X018260Y017556D01*
X017867Y017556D02*
X017867Y017063D01*
X017965Y016965D01*
X018162Y016965D01*
X018260Y017063D01*
X017653Y016965D02*
X017259Y016965D01*
X017259Y017556D01*
X019082Y017359D02*
X019279Y017556D01*
X019476Y017359D01*
X006515Y014790D02*
X006515Y014580D01*
X006410Y014475D01*
X005989Y014475D01*
X005884Y014580D01*
X005884Y014790D01*
X005989Y014895D01*
X006410Y014895D01*
X006515Y014790D01*
X006515Y014250D02*
X005989Y014250D01*
X005884Y014145D01*
X005884Y013935D01*
X005989Y013830D01*
X006515Y013830D01*
X006515Y013606D02*
X006515Y013186D01*
X006515Y013396D02*
X005884Y013396D01*
X005884Y010770D02*
X005884Y010560D01*
X005884Y010665D02*
X006515Y010665D01*
X006515Y010770D02*
X006515Y010560D01*
X006515Y010340D02*
X005884Y009920D01*
X006515Y009920D01*
X006515Y010340D02*
X005884Y010340D01*
X006259Y002596D02*
X006259Y002280D01*
X006469Y002385D01*
X006574Y002385D01*
X006679Y002280D01*
X006679Y002070D01*
X006574Y001965D01*
X006364Y001965D01*
X006259Y002070D01*
X006904Y002175D02*
X007114Y001965D01*
X007324Y002175D01*
X007324Y002596D01*
X006904Y002596D02*
X006904Y002175D01*
X006679Y002596D02*
X006259Y002596D01*
D12*
X006290Y001707D02*
X006256Y001737D01*
X006220Y001765D01*
X006182Y001789D01*
X006142Y001810D01*
X006100Y001827D01*
X006057Y001841D01*
X006013Y001851D01*
X005968Y001858D01*
X005922Y001860D01*
X005877Y001858D01*
X005832Y001853D01*
X005788Y001844D01*
X005744Y001831D01*
X005702Y001814D01*
X005662Y001794D01*
X005623Y001771D01*
X005586Y001744D01*
X005552Y001714D01*
X005521Y001682D01*
X005492Y001646D01*
X005467Y001609D01*
X005445Y001569D01*
X005426Y001528D01*
X005411Y001485D01*
X005400Y001441D01*
X005392Y001397D01*
X005388Y001352D01*
X005389Y001306D01*
X005393Y001261D01*
X005401Y001216D01*
X005412Y001173D01*
X005428Y001130D01*
X005447Y001089D01*
X005469Y001050D01*
X005495Y001012D01*
X005524Y000977D01*
X005555Y000945D01*
X005590Y000915D01*
X005626Y000889D01*
X005665Y000866D01*
X005706Y000846D01*
X005748Y000830D01*
X005792Y000817D01*
X005836Y000808D01*
X005881Y000803D01*
X005927Y000802D01*
X005972Y000805D01*
X006017Y000811D01*
X006061Y000822D01*
X006104Y000836D01*
X006146Y000854D01*
X006186Y000875D01*
X006224Y000900D01*
X006259Y000928D01*
X006293Y000958D01*
X007874Y001005D02*
X007949Y000930D01*
X008099Y000930D01*
X008174Y000855D01*
X008174Y000780D01*
X008099Y000705D01*
X007949Y000705D01*
X007874Y000780D01*
X007874Y001005D02*
X007874Y001080D01*
X007949Y001155D01*
X008099Y001155D01*
X008174Y001080D01*
X008334Y001155D02*
X008334Y000705D01*
X008635Y000705D01*
X008795Y000705D02*
X008795Y001155D01*
X009095Y000705D01*
X009095Y001155D01*
X009255Y001080D02*
X009255Y001005D01*
X009330Y000930D01*
X009480Y000930D01*
X009555Y000855D01*
X009555Y000780D01*
X009480Y000705D01*
X009330Y000705D01*
X009255Y000780D01*
X009716Y000705D02*
X009866Y000705D01*
X009791Y000705D02*
X009791Y001155D01*
X009716Y001155D02*
X009866Y001155D01*
X010023Y001155D02*
X010323Y001155D01*
X010173Y001155D02*
X010173Y000705D01*
X010483Y000705D02*
X010633Y000705D01*
X010558Y000705D02*
X010558Y001155D01*
X010483Y001155D02*
X010633Y001155D01*
X010790Y001155D02*
X010790Y000855D01*
X010940Y000705D01*
X011090Y000855D01*
X011090Y001155D01*
X011250Y001155D02*
X011400Y001155D01*
X011325Y001155D02*
X011325Y000705D01*
X011250Y000705D02*
X011400Y000705D01*
X011707Y000705D02*
X011707Y001155D01*
X011557Y001155D02*
X011857Y001155D01*
X012018Y001155D02*
X012018Y001080D01*
X012168Y000930D01*
X012168Y000705D01*
X012168Y000930D02*
X012318Y001080D01*
X012318Y001155D01*
X014874Y001155D02*
X014874Y000705D01*
X014874Y000855D02*
X015099Y000855D01*
X015174Y000930D01*
X015174Y001080D01*
X015099Y001155D01*
X014874Y001155D01*
X015334Y001005D02*
X015485Y001155D01*
X015635Y001005D01*
X015635Y000705D01*
X015795Y000705D02*
X015795Y001155D01*
X016020Y001155D01*
X016095Y001080D01*
X016095Y000930D01*
X016020Y000855D01*
X015795Y000855D01*
X015945Y000855D02*
X016095Y000705D01*
X016255Y000705D02*
X016255Y001005D01*
X016405Y001155D01*
X016555Y001005D01*
X016555Y000705D01*
X016716Y000705D02*
X016716Y001155D01*
X016866Y001005D01*
X017016Y001155D01*
X017016Y000705D01*
X017176Y000705D02*
X017476Y000705D01*
X017326Y000930D02*
X017176Y000930D01*
X017176Y001155D02*
X017176Y000705D01*
X017176Y001155D02*
X017476Y001155D01*
X017636Y001155D02*
X017937Y001155D01*
X017787Y001155D02*
X017787Y000705D01*
X018097Y000705D02*
X018397Y000705D01*
X018557Y000705D02*
X018557Y001155D01*
X018782Y001155D01*
X018857Y001080D01*
X018857Y000930D01*
X018782Y000855D01*
X018557Y000855D01*
X018707Y000855D02*
X018857Y000705D01*
X018397Y001155D02*
X018097Y001155D01*
X018097Y000705D01*
X018097Y000930D02*
X018247Y000930D01*
X016555Y000930D02*
X016255Y000930D01*
X015635Y000930D02*
X015334Y000930D01*
X015334Y001005D02*
X015334Y000705D01*
X013810Y003205D02*
X013660Y003205D01*
X013584Y003280D01*
X013584Y003355D01*
X013660Y003430D01*
X013810Y003430D01*
X013885Y003355D01*
X013885Y003280D01*
X013810Y003205D01*
X013810Y003430D02*
X013885Y003505D01*
X013885Y003580D01*
X013810Y003655D01*
X013660Y003655D01*
X013584Y003580D01*
X013584Y003505D01*
X013660Y003430D01*
X013424Y003430D02*
X013349Y003355D01*
X013124Y003355D01*
X013124Y003205D02*
X013124Y003655D01*
X013349Y003655D01*
X013424Y003580D01*
X013424Y003430D01*
X013274Y003355D02*
X013424Y003205D01*
X009555Y001080D02*
X009480Y001155D01*
X009330Y001155D01*
X009255Y001080D01*
X008635Y001155D02*
X008334Y001155D01*
X008334Y000930D02*
X008485Y000930D01*
X005485Y006705D02*
X005635Y006855D01*
X005635Y007155D01*
X005334Y007155D02*
X005334Y006855D01*
X005485Y006705D01*
X005174Y006780D02*
X005099Y006705D01*
X004949Y006705D01*
X004874Y006780D01*
X004874Y006930D02*
X005024Y007005D01*
X005099Y007005D01*
X005174Y006930D01*
X005174Y006780D01*
X004874Y006930D02*
X004874Y007155D01*
X005174Y007155D01*
X007374Y008205D02*
X007374Y008655D01*
X007599Y008655D01*
X007674Y008580D01*
X007674Y008430D01*
X007599Y008355D01*
X007374Y008355D01*
X007524Y008355D02*
X007674Y008205D01*
X007834Y008280D02*
X007910Y008205D01*
X008060Y008205D01*
X008135Y008280D01*
X008135Y008430D01*
X008060Y008505D01*
X007985Y008505D01*
X007834Y008430D01*
X007834Y008655D01*
X008135Y008655D01*
X008060Y009705D02*
X008060Y010155D01*
X007834Y009930D01*
X008135Y009930D01*
X007674Y009930D02*
X007599Y009855D01*
X007374Y009855D01*
X007374Y009705D02*
X007374Y010155D01*
X007599Y010155D01*
X007674Y010080D01*
X007674Y009930D01*
X007524Y009855D02*
X007674Y009705D01*
X010249Y010280D02*
X010324Y010205D01*
X010474Y010205D01*
X010549Y010280D01*
X010709Y010205D02*
X011010Y010205D01*
X010860Y010205D02*
X010860Y010655D01*
X010709Y010505D01*
X010549Y010580D02*
X010474Y010655D01*
X010324Y010655D01*
X010249Y010580D01*
X010249Y010280D01*
X010324Y009155D02*
X010249Y009080D01*
X010249Y008780D01*
X010324Y008705D01*
X010474Y008705D01*
X010549Y008780D01*
X010709Y008930D02*
X011010Y008930D01*
X010935Y008705D02*
X010935Y009155D01*
X010709Y008930D01*
X010549Y009080D02*
X010474Y009155D01*
X010324Y009155D01*
X012999Y009280D02*
X013074Y009205D01*
X013224Y009205D01*
X013299Y009280D01*
X013299Y009580D01*
X013224Y009655D01*
X013074Y009655D01*
X012999Y009580D01*
X012999Y009280D01*
X013149Y009355D02*
X013299Y009205D01*
X013459Y009205D02*
X013760Y009205D01*
X013610Y009205D02*
X013610Y009655D01*
X013459Y009505D01*
X015749Y009080D02*
X015749Y008780D01*
X015824Y008705D01*
X015974Y008705D01*
X016049Y008780D01*
X016209Y008780D02*
X016285Y008705D01*
X016435Y008705D01*
X016510Y008780D01*
X016510Y008930D01*
X016435Y009005D01*
X016360Y009005D01*
X016209Y008930D01*
X016209Y009155D01*
X016510Y009155D01*
X016049Y009080D02*
X015974Y009155D01*
X015824Y009155D01*
X015749Y009080D01*
X020749Y007455D02*
X020749Y007155D01*
X020824Y007080D01*
X020974Y007080D01*
X021049Y007155D01*
X021209Y007155D02*
X021285Y007080D01*
X021435Y007080D01*
X021510Y007155D01*
X021510Y007455D01*
X021435Y007530D01*
X021285Y007530D01*
X021209Y007455D01*
X021209Y007155D01*
X021049Y007455D02*
X020974Y007530D01*
X020824Y007530D01*
X020749Y007455D01*
X021670Y007530D02*
X021670Y007080D01*
X021970Y007080D01*
X022130Y007155D02*
X022205Y007080D01*
X022355Y007080D01*
X022430Y007155D01*
X022430Y007455D01*
X022355Y007530D01*
X022205Y007530D01*
X022130Y007455D01*
X022130Y007155D01*
X022591Y007080D02*
X022591Y007530D01*
X022816Y007530D01*
X022891Y007455D01*
X022891Y007305D01*
X022816Y007230D01*
X022591Y007230D01*
X022741Y007230D02*
X022891Y007080D01*
X025374Y008780D02*
X025449Y008705D01*
X025599Y008705D01*
X025674Y008780D01*
X025674Y008930D01*
X025599Y009005D01*
X025524Y009005D01*
X025374Y008930D01*
X025374Y009155D01*
X025674Y009155D01*
X025834Y009155D02*
X025834Y008855D01*
X025985Y008705D01*
X026135Y008855D01*
X026135Y009155D01*
X026030Y009705D02*
X026030Y010155D01*
X025880Y010155D02*
X026180Y010155D01*
X025720Y010155D02*
X025720Y009780D01*
X025645Y009705D01*
X025495Y009705D01*
X025420Y009780D01*
X025420Y010155D01*
X025260Y010080D02*
X025185Y010155D01*
X025035Y010155D01*
X024959Y010080D01*
X024959Y009780D01*
X025035Y009705D01*
X025185Y009705D01*
X025260Y009780D01*
X025260Y010080D01*
X024799Y010080D02*
X024799Y009780D01*
X024724Y009705D01*
X024499Y009705D01*
X024499Y010155D01*
X024724Y010155D01*
X024799Y010080D01*
X025074Y010705D02*
X025224Y010705D01*
X025299Y010780D01*
X025299Y010930D01*
X025149Y010930D01*
X024999Y011080D02*
X024999Y010780D01*
X025074Y010705D01*
X025459Y010705D02*
X025459Y011155D01*
X025760Y010705D01*
X025760Y011155D01*
X025920Y011155D02*
X026145Y011155D01*
X026220Y011080D01*
X026220Y010780D01*
X026145Y010705D01*
X025920Y010705D01*
X025920Y011155D01*
X025299Y011080D02*
X025224Y011155D01*
X025074Y011155D01*
X024999Y011080D01*
X023760Y010530D02*
X023610Y010455D01*
X023459Y010305D01*
X023685Y010305D01*
X023760Y010230D01*
X023760Y010155D01*
X023685Y010080D01*
X023535Y010080D01*
X023459Y010155D01*
X023459Y010305D01*
X023299Y010305D02*
X023224Y010230D01*
X022999Y010230D01*
X022999Y010080D02*
X022999Y010530D01*
X023224Y010530D01*
X023299Y010455D01*
X023299Y010305D01*
X023149Y010230D02*
X023299Y010080D01*
X025999Y008155D02*
X025999Y007705D01*
X026299Y007705D01*
X026459Y007705D02*
X026760Y007705D01*
X026920Y007705D02*
X027145Y007705D01*
X027220Y007780D01*
X027220Y008080D01*
X027145Y008155D01*
X026920Y008155D01*
X026920Y007705D01*
X026610Y007930D02*
X026459Y007930D01*
X026459Y008155D02*
X026459Y007705D01*
X026459Y008155D02*
X026760Y008155D01*
X027380Y008080D02*
X027380Y008005D01*
X027455Y007930D01*
X027605Y007930D01*
X027680Y007855D01*
X027680Y007780D01*
X027605Y007705D01*
X027455Y007705D01*
X027380Y007780D01*
X027380Y008080D02*
X027455Y008155D01*
X027605Y008155D01*
X027680Y008080D01*
X023760Y012030D02*
X023760Y012105D01*
X023685Y012180D01*
X023459Y012180D01*
X023459Y012030D01*
X023535Y011955D01*
X023685Y011955D01*
X023760Y012030D01*
X023610Y012330D02*
X023459Y012180D01*
X023610Y012330D02*
X023760Y012405D01*
X023299Y012330D02*
X023224Y012405D01*
X023074Y012405D01*
X022999Y012330D01*
X022999Y012030D01*
X023074Y011955D01*
X023224Y011955D01*
X023299Y012030D01*
X020260Y013580D02*
X019959Y013280D01*
X019959Y013205D01*
X019799Y013205D02*
X019649Y013355D01*
X019724Y013355D02*
X019499Y013355D01*
X019499Y013205D02*
X019499Y013655D01*
X019724Y013655D01*
X019799Y013580D01*
X019799Y013430D01*
X019724Y013355D01*
X019959Y013655D02*
X020260Y013655D01*
X020260Y013580D01*
X019510Y015330D02*
X019209Y015330D01*
X019360Y015330D02*
X019360Y015780D01*
X019209Y015630D01*
X019049Y015555D02*
X018974Y015480D01*
X018749Y015480D01*
X018749Y015330D02*
X018749Y015780D01*
X018974Y015780D01*
X019049Y015705D01*
X019049Y015555D01*
X018899Y015480D02*
X019049Y015330D01*
X015635Y015780D02*
X015560Y015705D01*
X015410Y015705D01*
X015334Y015780D01*
X015174Y015780D02*
X015099Y015705D01*
X014949Y015705D01*
X014874Y015780D01*
X014874Y016080D01*
X014949Y016155D01*
X015099Y016155D01*
X015174Y016080D01*
X015334Y016080D02*
X015410Y016155D01*
X015560Y016155D01*
X015635Y016080D01*
X015635Y016005D01*
X015560Y015930D01*
X015635Y015855D01*
X015635Y015780D01*
X015560Y015930D02*
X015485Y015930D01*
X015374Y018080D02*
X015074Y018080D01*
X014999Y018155D01*
X014999Y018305D01*
X015074Y018380D01*
X015224Y018380D02*
X015224Y018230D01*
X015224Y018380D02*
X015374Y018380D01*
X015449Y018305D01*
X015449Y018155D01*
X015374Y018080D01*
X015449Y018540D02*
X014999Y018540D01*
X014999Y018766D01*
X015074Y018841D01*
X015224Y018841D01*
X015299Y018766D01*
X015299Y018540D01*
X015299Y018691D02*
X015449Y018841D01*
X015449Y019001D02*
X014999Y019001D01*
X015449Y019301D01*
X014999Y019301D01*
X012555Y019205D02*
X012480Y019280D01*
X012330Y019280D01*
X012255Y019205D01*
X012255Y018905D01*
X012330Y018830D01*
X012480Y018830D01*
X012555Y018905D01*
X012555Y019055D01*
X012405Y019055D01*
X012095Y018905D02*
X012020Y018830D01*
X011870Y018830D01*
X011795Y018905D01*
X011795Y019205D01*
X011870Y019280D01*
X012020Y019280D01*
X012095Y019205D01*
X012095Y018905D01*
X011635Y018830D02*
X011485Y018980D01*
X011560Y018980D02*
X011334Y018980D01*
X011334Y018830D02*
X011334Y019280D01*
X011560Y019280D01*
X011635Y019205D01*
X011635Y019055D01*
X011560Y018980D01*
X011174Y019055D02*
X011174Y019205D01*
X011099Y019280D01*
X010874Y019280D01*
X010874Y018830D01*
X010874Y018980D02*
X011099Y018980D01*
X011174Y019055D01*
X008699Y019001D02*
X008249Y019001D01*
X008474Y019076D02*
X008699Y019301D01*
X008549Y019001D02*
X008249Y019301D01*
X008699Y018841D02*
X008699Y018540D01*
X008249Y018540D01*
X008324Y018380D02*
X008249Y018305D01*
X008249Y018080D01*
X008699Y018080D01*
X008699Y018305D01*
X008624Y018380D01*
X008549Y018380D01*
X008474Y018305D01*
X008474Y018080D01*
X008474Y018305D02*
X008399Y018380D01*
X008324Y018380D01*
X008060Y017155D02*
X007910Y017155D01*
X007834Y017080D01*
X007834Y017005D01*
X007910Y016930D01*
X008060Y016930D01*
X008135Y016855D01*
X008135Y016780D01*
X008060Y016705D01*
X007910Y016705D01*
X007834Y016780D01*
X007834Y016855D01*
X007910Y016930D01*
X008060Y016930D02*
X008135Y017005D01*
X008135Y017080D01*
X008060Y017155D01*
X007674Y017080D02*
X007599Y017155D01*
X007449Y017155D01*
X007374Y017080D01*
X007374Y016780D01*
X007449Y016705D01*
X007599Y016705D01*
X007674Y016780D01*
X007599Y015655D02*
X007374Y015655D01*
X007374Y015205D01*
X007374Y015355D02*
X007599Y015355D01*
X007674Y015430D01*
X007674Y015580D01*
X007599Y015655D01*
X007834Y015580D02*
X007910Y015655D01*
X008060Y015655D01*
X008135Y015580D01*
X008135Y015505D01*
X007834Y015205D01*
X008135Y015205D01*
X007674Y015205D02*
X007524Y015355D01*
X007599Y014155D02*
X007374Y014155D01*
X007374Y013705D01*
X007374Y013855D02*
X007599Y013855D01*
X007674Y013930D01*
X007674Y014080D01*
X007599Y014155D01*
X007834Y014080D02*
X007910Y014155D01*
X008060Y014155D01*
X008135Y014080D01*
X008135Y014005D01*
X008060Y013930D01*
X008135Y013855D01*
X008135Y013780D01*
X008060Y013705D01*
X007910Y013705D01*
X007834Y013780D01*
X007674Y013705D02*
X007524Y013855D01*
X007985Y013930D02*
X008060Y013930D01*
X010249Y013455D02*
X010249Y013155D01*
X010324Y013080D01*
X010474Y013080D01*
X010549Y013155D01*
X010709Y013080D02*
X011010Y013380D01*
X011010Y013455D01*
X010935Y013530D01*
X010785Y013530D01*
X010709Y013455D01*
X010549Y013455D02*
X010474Y013530D01*
X010324Y013530D01*
X010249Y013455D01*
X010709Y013080D02*
X011010Y013080D01*
X008135Y012155D02*
X008135Y012080D01*
X007834Y011780D01*
X007834Y011705D01*
X007674Y011780D02*
X007599Y011705D01*
X007449Y011705D01*
X007374Y011780D01*
X007374Y012080D01*
X007449Y012155D01*
X007599Y012155D01*
X007674Y012080D01*
X007834Y012155D02*
X008135Y012155D01*
X020374Y001155D02*
X020599Y001155D01*
X020674Y001080D01*
X020674Y000930D01*
X020599Y000855D01*
X020374Y000855D01*
X020374Y000705D02*
X020374Y001155D01*
X020834Y001005D02*
X020834Y000705D01*
X020834Y000930D02*
X021135Y000930D01*
X021135Y001005D02*
X020985Y001155D01*
X020834Y001005D01*
X021135Y001005D02*
X021135Y000705D01*
X021445Y000705D02*
X021445Y001155D01*
X021295Y001155D02*
X021595Y001155D01*
X021755Y001155D02*
X022055Y001155D01*
X021905Y001155D02*
X021905Y000705D01*
X022216Y000705D02*
X022516Y000705D01*
X022676Y000705D02*
X022676Y001155D01*
X022901Y001155D01*
X022976Y001080D01*
X022976Y000930D01*
X022901Y000855D01*
X022676Y000855D01*
X022826Y000855D02*
X022976Y000705D01*
X023136Y000705D02*
X023136Y001155D01*
X023437Y000705D01*
X023437Y001155D01*
X022516Y001155D02*
X022216Y001155D01*
X022216Y000705D01*
X022216Y000930D02*
X022366Y000930D01*
X025624Y002455D02*
X025849Y002455D01*
X025924Y002530D01*
X025924Y002830D01*
X025849Y002905D01*
X025624Y002905D01*
X025624Y002455D01*
X026084Y002455D02*
X026385Y002455D01*
X026235Y002455D02*
X026235Y002905D01*
X026084Y002755D01*
X026160Y003455D02*
X026084Y003530D01*
X026160Y003455D02*
X026310Y003455D01*
X026385Y003530D01*
X026385Y003830D01*
X026310Y003905D01*
X026160Y003905D01*
X026084Y003830D01*
X026084Y003755D01*
X026160Y003680D01*
X026385Y003680D01*
X025924Y003680D02*
X025924Y003830D01*
X025849Y003905D01*
X025624Y003905D01*
X025624Y003455D01*
X025624Y003605D02*
X025849Y003605D01*
X025924Y003680D01*
X025774Y003605D02*
X025924Y003455D01*
X027094Y003398D02*
X027245Y003098D01*
X027395Y003398D01*
X027555Y003398D02*
X027705Y003549D01*
X027705Y003098D01*
X027555Y003098D02*
X027855Y003098D01*
D13*
X026636Y013050D02*
X026696Y013110D01*
X026696Y013350D01*
X026636Y013410D01*
X026456Y013410D01*
X026456Y013050D01*
X026636Y013050D01*
X026328Y013050D02*
X026328Y013410D01*
X026087Y013410D02*
X026328Y013050D01*
X026087Y013050D02*
X026087Y013410D01*
X025959Y013350D02*
X025899Y013410D01*
X025779Y013410D01*
X025719Y013350D01*
X025719Y013110D01*
X025779Y013050D01*
X025899Y013050D01*
X025959Y013110D01*
X025959Y013230D01*
X025839Y013230D01*
X026069Y014050D02*
X026069Y014290D01*
X026189Y014410D01*
X026309Y014290D01*
X026309Y014050D01*
X026437Y014050D02*
X026678Y014290D01*
X026678Y014350D01*
X026618Y014410D01*
X026497Y014410D01*
X026437Y014350D01*
X026309Y014230D02*
X026069Y014230D01*
X026437Y014050D02*
X026678Y014050D01*
X026618Y015050D02*
X026497Y015050D01*
X026437Y015110D01*
X026309Y015050D02*
X026309Y015290D01*
X026189Y015410D01*
X026069Y015290D01*
X026069Y015050D01*
X026069Y015230D02*
X026309Y015230D01*
X026437Y015350D02*
X026497Y015410D01*
X026618Y015410D01*
X026678Y015350D01*
X026678Y015290D01*
X026618Y015230D01*
X026678Y015170D01*
X026678Y015110D01*
X026618Y015050D01*
X026618Y015230D02*
X026557Y015230D01*
X026557Y016050D02*
X026678Y016170D01*
X026678Y016410D01*
X026437Y016410D02*
X026437Y016170D01*
X026557Y016050D01*
X026309Y016110D02*
X026249Y016050D01*
X026129Y016050D01*
X026069Y016110D01*
X026069Y016230D02*
X026189Y016290D01*
X026249Y016290D01*
X026309Y016230D01*
X026309Y016110D01*
X026069Y016230D02*
X026069Y016410D01*
X026309Y016410D01*
X006624Y001334D02*
X006626Y001368D01*
X006632Y001402D01*
X006641Y001435D01*
X006655Y001466D01*
X006672Y001496D01*
X006692Y001524D01*
X006715Y001549D01*
X006741Y001572D01*
X006769Y001591D01*
X006799Y001607D01*
X006831Y001619D01*
X006864Y001628D01*
X006898Y001633D01*
X006933Y001634D01*
X006967Y001631D01*
X007000Y001624D01*
X007033Y001614D01*
X007064Y001599D01*
X007093Y001582D01*
X007120Y001561D01*
X007145Y001537D01*
X007167Y001510D01*
X007185Y001482D01*
X007200Y001451D01*
X007212Y001419D01*
X007220Y001385D01*
X007224Y001351D01*
X007224Y001317D01*
X007220Y001283D01*
X007212Y001249D01*
X007200Y001217D01*
X007185Y001186D01*
X007167Y001158D01*
X007145Y001131D01*
X007120Y001107D01*
X007093Y001086D01*
X007064Y001069D01*
X007033Y001054D01*
X007000Y001044D01*
X006967Y001037D01*
X006933Y001034D01*
X006898Y001035D01*
X006864Y001040D01*
X006831Y001049D01*
X006799Y001061D01*
X006769Y001077D01*
X006741Y001096D01*
X006715Y001119D01*
X006692Y001144D01*
X006672Y001172D01*
X006655Y001202D01*
X006641Y001233D01*
X006632Y001266D01*
X006626Y001300D01*
X006624Y001334D01*
X004225Y001325D02*
X004227Y001359D01*
X004233Y001393D01*
X004242Y001426D01*
X004256Y001457D01*
X004273Y001487D01*
X004293Y001515D01*
X004316Y001540D01*
X004342Y001563D01*
X004370Y001582D01*
X004400Y001598D01*
X004432Y001610D01*
X004465Y001619D01*
X004499Y001624D01*
X004534Y001625D01*
X004568Y001622D01*
X004601Y001615D01*
X004634Y001605D01*
X004665Y001590D01*
X004694Y001573D01*
X004721Y001552D01*
X004746Y001528D01*
X004768Y001501D01*
X004786Y001473D01*
X004801Y001442D01*
X004813Y001410D01*
X004821Y001376D01*
X004825Y001342D01*
X004825Y001308D01*
X004821Y001274D01*
X004813Y001240D01*
X004801Y001208D01*
X004786Y001177D01*
X004768Y001149D01*
X004746Y001122D01*
X004721Y001098D01*
X004694Y001077D01*
X004665Y001060D01*
X004634Y001045D01*
X004601Y001035D01*
X004568Y001028D01*
X004534Y001025D01*
X004499Y001026D01*
X004465Y001031D01*
X004432Y001040D01*
X004400Y001052D01*
X004370Y001068D01*
X004342Y001087D01*
X004316Y001110D01*
X004293Y001135D01*
X004273Y001163D01*
X004256Y001193D01*
X004242Y001224D01*
X004233Y001257D01*
X004227Y001291D01*
X004225Y001325D01*
D14*
X021951Y017500D02*
X021951Y017670D01*
X022007Y017670D02*
X021894Y017670D01*
X022078Y017670D02*
X022135Y017613D01*
X022192Y017670D01*
X022192Y017500D01*
X022078Y017500D02*
X022078Y017670D01*
D15*
X026849Y016430D02*
X026849Y015930D01*
X027099Y015680D01*
X026849Y015430D01*
X026849Y014930D01*
X027099Y014680D01*
X026849Y014430D01*
X026849Y013930D01*
X027099Y013680D01*
X026849Y013430D01*
X026849Y012930D01*
X027099Y012680D01*
X027599Y012680D01*
X027849Y012930D01*
X027849Y013430D01*
X027599Y013680D01*
X027849Y013930D01*
X027849Y014430D01*
X027599Y014680D01*
X027849Y014930D01*
X027849Y015430D01*
X027599Y015680D01*
X027849Y015930D01*
X027849Y016430D01*
X027599Y016680D01*
X027099Y016680D01*
X026849Y016430D01*
X026599Y011430D02*
X027099Y011430D01*
X027349Y011180D01*
X027349Y010680D01*
X027099Y010430D01*
X027349Y010180D01*
X027349Y009680D01*
X027099Y009430D01*
X027349Y009180D01*
X027349Y008680D01*
X027099Y008430D01*
X026599Y008430D01*
X026349Y008680D01*
X026349Y009180D01*
X026599Y009430D01*
X026349Y009680D01*
X026349Y010180D01*
X026599Y010430D01*
X026349Y010680D01*
X026349Y011180D01*
X026599Y011430D01*
X022932Y006861D02*
X020766Y006861D01*
X020629Y006074D02*
X020629Y005286D01*
X020766Y004499D02*
X022932Y004499D01*
X022932Y003861D02*
X020766Y003861D01*
X020629Y003074D02*
X020629Y002286D01*
X020766Y001499D02*
X022932Y001499D01*
X023070Y002286D02*
X023070Y003074D01*
X021160Y002680D02*
X021162Y002732D01*
X021168Y002784D01*
X021178Y002835D01*
X021191Y002885D01*
X021209Y002935D01*
X021230Y002982D01*
X021254Y003028D01*
X021283Y003072D01*
X021314Y003114D01*
X021348Y003153D01*
X021385Y003190D01*
X021425Y003223D01*
X021468Y003254D01*
X021512Y003281D01*
X021558Y003305D01*
X021607Y003325D01*
X021656Y003341D01*
X021707Y003354D01*
X021758Y003363D01*
X021810Y003368D01*
X021862Y003369D01*
X021914Y003366D01*
X021966Y003359D01*
X022017Y003348D01*
X022067Y003334D01*
X022116Y003315D01*
X022163Y003293D01*
X022208Y003268D01*
X022252Y003239D01*
X022293Y003207D01*
X022332Y003172D01*
X022367Y003134D01*
X022400Y003093D01*
X022430Y003051D01*
X022456Y003006D01*
X022479Y002959D01*
X022498Y002910D01*
X022514Y002860D01*
X022526Y002810D01*
X022534Y002758D01*
X022538Y002706D01*
X022538Y002654D01*
X022534Y002602D01*
X022526Y002550D01*
X022514Y002500D01*
X022498Y002450D01*
X022479Y002401D01*
X022456Y002354D01*
X022430Y002309D01*
X022400Y002267D01*
X022367Y002226D01*
X022332Y002188D01*
X022293Y002153D01*
X022252Y002121D01*
X022208Y002092D01*
X022163Y002067D01*
X022116Y002045D01*
X022067Y002026D01*
X022017Y002012D01*
X021966Y002001D01*
X021914Y001994D01*
X021862Y001991D01*
X021810Y001992D01*
X021758Y001997D01*
X021707Y002006D01*
X021656Y002019D01*
X021607Y002035D01*
X021558Y002055D01*
X021512Y002079D01*
X021468Y002106D01*
X021425Y002137D01*
X021385Y002170D01*
X021348Y002207D01*
X021314Y002246D01*
X021283Y002288D01*
X021254Y002332D01*
X021230Y002378D01*
X021209Y002425D01*
X021191Y002475D01*
X021178Y002525D01*
X021168Y002576D01*
X021162Y002628D01*
X021160Y002680D01*
X024349Y004930D02*
X024349Y005430D01*
X024599Y005680D01*
X024349Y005930D01*
X024349Y006430D01*
X024599Y006680D01*
X025099Y006680D01*
X025349Y006430D01*
X025599Y006680D01*
X026099Y006680D01*
X026349Y006430D01*
X026349Y005930D01*
X026099Y005680D01*
X025599Y005680D01*
X025349Y005930D01*
X025099Y005680D01*
X024599Y005680D01*
X025099Y005680D01*
X025349Y005430D01*
X025599Y005680D01*
X026099Y005680D01*
X026349Y005430D01*
X026349Y004930D01*
X026099Y004680D01*
X025599Y004680D01*
X025349Y004930D01*
X025099Y004680D01*
X024599Y004680D01*
X024349Y004930D01*
X023070Y005286D02*
X023070Y006074D01*
X021160Y005680D02*
X021162Y005732D01*
X021168Y005784D01*
X021178Y005835D01*
X021191Y005885D01*
X021209Y005935D01*
X021230Y005982D01*
X021254Y006028D01*
X021283Y006072D01*
X021314Y006114D01*
X021348Y006153D01*
X021385Y006190D01*
X021425Y006223D01*
X021468Y006254D01*
X021512Y006281D01*
X021558Y006305D01*
X021607Y006325D01*
X021656Y006341D01*
X021707Y006354D01*
X021758Y006363D01*
X021810Y006368D01*
X021862Y006369D01*
X021914Y006366D01*
X021966Y006359D01*
X022017Y006348D01*
X022067Y006334D01*
X022116Y006315D01*
X022163Y006293D01*
X022208Y006268D01*
X022252Y006239D01*
X022293Y006207D01*
X022332Y006172D01*
X022367Y006134D01*
X022400Y006093D01*
X022430Y006051D01*
X022456Y006006D01*
X022479Y005959D01*
X022498Y005910D01*
X022514Y005860D01*
X022526Y005810D01*
X022534Y005758D01*
X022538Y005706D01*
X022538Y005654D01*
X022534Y005602D01*
X022526Y005550D01*
X022514Y005500D01*
X022498Y005450D01*
X022479Y005401D01*
X022456Y005354D01*
X022430Y005309D01*
X022400Y005267D01*
X022367Y005226D01*
X022332Y005188D01*
X022293Y005153D01*
X022252Y005121D01*
X022208Y005092D01*
X022163Y005067D01*
X022116Y005045D01*
X022067Y005026D01*
X022017Y005012D01*
X021966Y005001D01*
X021914Y004994D01*
X021862Y004991D01*
X021810Y004992D01*
X021758Y004997D01*
X021707Y005006D01*
X021656Y005019D01*
X021607Y005035D01*
X021558Y005055D01*
X021512Y005079D01*
X021468Y005106D01*
X021425Y005137D01*
X021385Y005170D01*
X021348Y005207D01*
X021314Y005246D01*
X021283Y005288D01*
X021254Y005332D01*
X021230Y005378D01*
X021209Y005425D01*
X021191Y005475D01*
X021178Y005525D01*
X021168Y005576D01*
X021162Y005628D01*
X021160Y005680D01*
X014333Y008062D02*
X014333Y008298D01*
X013585Y008810D02*
X013113Y008810D01*
X012365Y008298D02*
X012365Y008062D01*
X013113Y007550D02*
X013585Y007550D01*
X006849Y007430D02*
X006849Y006930D01*
X006599Y006680D01*
X006099Y006680D01*
X005849Y006930D01*
X005849Y007430D01*
X006099Y007680D01*
X006599Y007680D01*
X006849Y007430D01*
X005652Y007318D02*
X005258Y007318D01*
X005652Y007318D02*
X005652Y012042D01*
X005258Y012042D01*
X005258Y012318D02*
X005652Y012318D01*
X005652Y017042D01*
X005258Y017042D01*
X004077Y017042D02*
X002321Y017042D01*
X008849Y017930D02*
X008849Y018430D01*
X009099Y018680D01*
X009599Y018680D01*
X009849Y018430D01*
X010099Y018680D01*
X010599Y018680D01*
X010849Y018430D01*
X011099Y018680D01*
X011599Y018680D01*
X011849Y018430D01*
X012099Y018680D01*
X012599Y018680D01*
X012849Y018430D01*
X013099Y018680D01*
X013599Y018680D01*
X013849Y018430D01*
X014099Y018680D01*
X014599Y018680D01*
X014849Y018430D01*
X014849Y017930D01*
X014599Y017680D01*
X014099Y017680D01*
X013849Y017930D01*
X013599Y017680D01*
X013099Y017680D01*
X012849Y017930D01*
X012599Y017680D01*
X012099Y017680D01*
X011849Y017930D01*
X011599Y017680D01*
X011099Y017680D01*
X010849Y017930D01*
X010599Y017680D01*
X010099Y017680D01*
X009849Y017930D01*
X009599Y017680D01*
X009099Y017680D01*
X008849Y017930D01*
X004077Y012318D02*
X002321Y012318D01*
X002321Y012042D02*
X004077Y012042D01*
X004077Y007318D02*
X002321Y007318D01*
X002030Y006452D02*
X002030Y002908D01*
X004117Y002908D01*
X005967Y002908D02*
X006243Y002908D01*
X006243Y003735D01*
X006243Y005625D02*
X006243Y006452D01*
X002030Y006452D01*
X004847Y001319D02*
X005371Y001319D01*
X006076Y001332D02*
X006603Y001332D01*
D16*
X006733Y001332D02*
X007121Y001332D01*
X006926Y001146D02*
X006926Y001524D01*
X004707Y001320D02*
X004339Y001320D01*
X013469Y010800D02*
X013469Y013420D01*
X013609Y013560D01*
X016229Y013560D01*
X016229Y010800D01*
X013469Y010800D01*
X013628Y013260D02*
X013630Y013283D01*
X013636Y013306D01*
X013645Y013327D01*
X013658Y013347D01*
X013674Y013364D01*
X013692Y013378D01*
X013712Y013389D01*
X013734Y013397D01*
X013757Y013401D01*
X013781Y013401D01*
X013804Y013397D01*
X013826Y013389D01*
X013846Y013378D01*
X013864Y013364D01*
X013880Y013347D01*
X013893Y013327D01*
X013902Y013306D01*
X013908Y013283D01*
X013910Y013260D01*
X013908Y013237D01*
X013902Y013214D01*
X013893Y013193D01*
X013880Y013173D01*
X013864Y013156D01*
X013846Y013142D01*
X013826Y013131D01*
X013804Y013123D01*
X013781Y013119D01*
X013757Y013119D01*
X013734Y013123D01*
X013712Y013131D01*
X013692Y013142D01*
X013674Y013156D01*
X013658Y013173D01*
X013645Y013193D01*
X013636Y013214D01*
X013630Y013237D01*
X013628Y013260D01*
X018849Y011430D02*
X018849Y010930D01*
X019099Y010680D01*
X020599Y010680D01*
X020849Y010430D01*
X020849Y009930D01*
X020599Y009680D01*
X020849Y009430D01*
X020849Y008930D01*
X020599Y008680D01*
X019099Y008680D01*
X018849Y008930D01*
X018849Y009430D01*
X019099Y009680D01*
X020599Y009680D01*
X020599Y010680D02*
X020849Y010930D01*
X020849Y011430D01*
X020599Y011680D01*
X019099Y011680D01*
X018849Y011430D01*
X019099Y010680D02*
X018849Y010430D01*
X018849Y009930D01*
X019099Y009680D01*
X022999Y014230D02*
X023249Y014230D01*
X023249Y015130D01*
X022999Y015130D01*
X022999Y014680D01*
X022999Y014230D01*
X022999Y014680D02*
X022899Y014680D01*
X021349Y014680D02*
X021351Y014778D01*
X021359Y014876D01*
X021371Y014973D01*
X021387Y015070D01*
X021409Y015166D01*
X021435Y015261D01*
X021466Y015354D01*
X021501Y015445D01*
X021541Y015535D01*
X021585Y015623D01*
X021634Y015708D01*
X021686Y015791D01*
X021743Y015871D01*
X021803Y015949D01*
X021867Y016023D01*
X021935Y016094D01*
X022006Y016162D01*
X022080Y016226D01*
X022158Y016286D01*
X022238Y016343D01*
X022321Y016395D01*
X022406Y016444D01*
X022494Y016488D01*
X022584Y016528D01*
X022675Y016563D01*
X022768Y016594D01*
X022863Y016620D01*
X022959Y016642D01*
X023056Y016658D01*
X023153Y016670D01*
X023251Y016678D01*
X023349Y016680D01*
X023447Y016678D01*
X023545Y016670D01*
X023642Y016658D01*
X023739Y016642D01*
X023835Y016620D01*
X023930Y016594D01*
X024023Y016563D01*
X024114Y016528D01*
X024204Y016488D01*
X024292Y016444D01*
X024377Y016395D01*
X024460Y016343D01*
X024540Y016286D01*
X024618Y016226D01*
X024692Y016162D01*
X024763Y016094D01*
X024831Y016023D01*
X024895Y015949D01*
X024955Y015871D01*
X025012Y015791D01*
X025064Y015708D01*
X025113Y015623D01*
X025157Y015535D01*
X025197Y015445D01*
X025232Y015354D01*
X025263Y015261D01*
X025289Y015166D01*
X025311Y015070D01*
X025327Y014973D01*
X025339Y014876D01*
X025347Y014778D01*
X025349Y014680D01*
X025347Y014582D01*
X025339Y014484D01*
X025327Y014387D01*
X025311Y014290D01*
X025289Y014194D01*
X025263Y014099D01*
X025232Y014006D01*
X025197Y013915D01*
X025157Y013825D01*
X025113Y013737D01*
X025064Y013652D01*
X025012Y013569D01*
X024955Y013489D01*
X024895Y013411D01*
X024831Y013337D01*
X024763Y013266D01*
X024692Y013198D01*
X024618Y013134D01*
X024540Y013074D01*
X024460Y013017D01*
X024377Y012965D01*
X024292Y012916D01*
X024204Y012872D01*
X024114Y012832D01*
X024023Y012797D01*
X023930Y012766D01*
X023835Y012740D01*
X023739Y012718D01*
X023642Y012702D01*
X023545Y012690D01*
X023447Y012682D01*
X023349Y012680D01*
X023251Y012682D01*
X023153Y012690D01*
X023056Y012702D01*
X022959Y012718D01*
X022863Y012740D01*
X022768Y012766D01*
X022675Y012797D01*
X022584Y012832D01*
X022494Y012872D01*
X022406Y012916D01*
X022321Y012965D01*
X022238Y013017D01*
X022158Y013074D01*
X022080Y013134D01*
X022006Y013198D01*
X021935Y013266D01*
X021867Y013337D01*
X021803Y013411D01*
X021743Y013489D01*
X021686Y013569D01*
X021634Y013652D01*
X021585Y013737D01*
X021541Y013825D01*
X021501Y013915D01*
X021466Y014006D01*
X021435Y014099D01*
X021409Y014194D01*
X021387Y014290D01*
X021371Y014387D01*
X021359Y014484D01*
X021351Y014582D01*
X021349Y014680D01*
X021849Y015030D02*
X021849Y015330D01*
X021999Y015180D02*
X021699Y015180D01*
X023599Y014680D02*
X023799Y014680D01*
D17*
X005784Y001332D02*
X005786Y001355D01*
X005792Y001378D01*
X005801Y001400D01*
X005814Y001419D01*
X005830Y001436D01*
X005848Y001451D01*
X005869Y001462D01*
X005891Y001470D01*
X005914Y001474D01*
X005938Y001474D01*
X005961Y001470D01*
X005983Y001462D01*
X006004Y001451D01*
X006022Y001436D01*
X006038Y001419D01*
X006051Y001400D01*
X006060Y001378D01*
X006066Y001355D01*
X006068Y001332D01*
X006066Y001309D01*
X006060Y001286D01*
X006051Y001264D01*
X006038Y001245D01*
X006022Y001228D01*
X006004Y001213D01*
X005983Y001202D01*
X005961Y001194D01*
X005938Y001190D01*
X005914Y001190D01*
X005891Y001194D01*
X005869Y001202D01*
X005848Y001213D01*
X005830Y001228D01*
X005814Y001245D01*
X005801Y001264D01*
X005792Y001286D01*
X005786Y001309D01*
X005784Y001332D01*
X005876Y001332D02*
X005878Y001345D01*
X005883Y001358D01*
X005892Y001369D01*
X005903Y001376D01*
X005916Y001381D01*
X005929Y001382D01*
X005943Y001379D01*
X005955Y001373D01*
X005965Y001364D01*
X005972Y001352D01*
X005976Y001339D01*
X005976Y001325D01*
X005972Y001312D01*
X005965Y001300D01*
X005955Y001291D01*
X005943Y001285D01*
X005929Y001282D01*
X005916Y001283D01*
X005903Y001288D01*
X005892Y001295D01*
X005883Y001306D01*
X005878Y001319D01*
X005876Y001332D01*
D18*
X020427Y017819D03*
X019283Y019159D03*
X018475Y019159D03*
X021655Y019159D03*
D19*
X021657Y018723D03*
X020417Y018443D03*
X020425Y017823D03*
X019285Y018723D03*
X018477Y018723D03*
D20*
X018467Y018439D03*
X020427Y017827D03*
D21*
X020425Y017831D03*
X019285Y019143D03*
X018477Y019143D03*
X021657Y019143D03*
D22*
X020427Y017835D03*
X017587Y018031D03*
D23*
X020427Y017839D03*
D24*
X020429Y017843D03*
X021373Y018411D03*
D25*
X020427Y017847D03*
X022535Y018759D03*
D26*
X020429Y017851D03*
D27*
X020429Y017855D03*
D28*
X020429Y017859D03*
D29*
X020429Y017863D03*
D30*
X020431Y017867D03*
D31*
X020219Y017871D03*
X019059Y018063D03*
X021063Y019103D03*
D32*
X020637Y017871D03*
X023465Y018771D03*
X023657Y018715D03*
D33*
X023443Y018775D03*
X022223Y019075D03*
X020571Y019071D03*
X020199Y017875D03*
D34*
X020657Y017875D03*
X020205Y018395D03*
X019285Y019163D03*
X018477Y019163D03*
X021657Y019163D03*
X022229Y018791D03*
D35*
X022767Y018787D03*
X023431Y018779D03*
X020723Y018099D03*
X020187Y017879D03*
X019535Y018067D03*
X019023Y018267D03*
X017351Y018079D03*
D36*
X020671Y017879D03*
D37*
X020729Y018111D03*
X020729Y018355D03*
X020177Y017883D03*
X019525Y018391D03*
X018697Y018391D03*
X018233Y018075D03*
X017909Y018115D03*
X017909Y018355D03*
X017337Y018375D03*
X020557Y019051D03*
X022209Y019055D03*
X022209Y018815D03*
D38*
X021055Y018363D03*
X020679Y017883D03*
X020563Y019063D03*
X018243Y018071D03*
X017351Y018383D03*
X017315Y019071D03*
D39*
X017303Y019047D03*
X017883Y019079D03*
X020171Y017887D03*
X021043Y018339D03*
X020551Y019039D03*
X022203Y018827D03*
D40*
X021883Y019099D03*
X021427Y018779D03*
X020727Y018359D03*
X020727Y018107D03*
X020687Y017887D03*
X019055Y018779D03*
X019059Y019099D03*
X018703Y019099D03*
X018247Y018779D03*
X017907Y018359D03*
X017343Y018379D03*
X022775Y019087D03*
X023887Y018779D03*
D41*
X022797Y019071D03*
X022793Y019075D03*
X021413Y019091D03*
X020549Y019035D03*
X020549Y019031D03*
X020317Y018791D03*
X020157Y018375D03*
X020145Y018095D03*
X020165Y017891D03*
X020737Y018131D03*
X020737Y018335D03*
X019529Y019091D03*
X018233Y019091D03*
X017885Y019075D03*
X017917Y018335D03*
X017917Y018135D03*
X017917Y018131D03*
X018217Y018083D03*
X018733Y018083D03*
X017313Y018355D03*
D42*
X017875Y019083D03*
X018715Y018783D03*
X019015Y018075D03*
X020695Y017891D03*
X021047Y018351D03*
X021615Y018375D03*
X021895Y018783D03*
X022207Y019051D03*
X023415Y019091D03*
D43*
X023403Y019083D03*
X023403Y018795D03*
X023907Y019091D03*
X022807Y018815D03*
X022199Y019031D03*
X021403Y018791D03*
X021127Y019075D03*
X020547Y019023D03*
X020319Y018795D03*
X019923Y018791D03*
X019919Y018795D03*
X019543Y018383D03*
X019555Y018075D03*
X020159Y017895D03*
X020719Y017911D03*
X020723Y017915D03*
X020739Y018135D03*
X020739Y018331D03*
X021039Y018331D03*
X021639Y018355D03*
X018715Y018383D03*
X018227Y018383D03*
X017919Y018331D03*
X017919Y018143D03*
X017319Y018103D03*
X018223Y018791D03*
X017899Y019063D03*
X017299Y019035D03*
D44*
X017305Y019051D03*
X017305Y019055D03*
X018241Y019095D03*
X018713Y019095D03*
X019049Y019095D03*
X019521Y019095D03*
X019933Y018783D03*
X020309Y018783D03*
X020553Y019043D03*
X021117Y019083D03*
X021421Y019095D03*
X021893Y019095D03*
X022205Y018823D03*
X021417Y018783D03*
X021045Y018343D03*
X020701Y017895D03*
X019545Y018071D03*
X019009Y018391D03*
X018721Y018075D03*
X019045Y018783D03*
X018237Y018783D03*
X017913Y018123D03*
X023897Y018783D03*
D45*
X023397Y018799D03*
X023397Y019079D03*
X022197Y019019D03*
X022197Y018847D03*
X021905Y019087D03*
X021405Y019087D03*
X020545Y019019D03*
X019917Y018799D03*
X020145Y018367D03*
X020137Y018359D03*
X020157Y017899D03*
X020725Y017919D03*
X021037Y018319D03*
X021645Y018347D03*
X018997Y018279D03*
X018997Y018087D03*
X018737Y018087D03*
X018725Y019087D03*
X018225Y019087D03*
X017297Y019027D03*
D46*
X017327Y018367D03*
X017915Y018127D03*
X018707Y018387D03*
X018727Y018079D03*
X019535Y018387D03*
X019927Y018787D03*
X020707Y017899D03*
D47*
X020729Y017923D03*
X020733Y017931D03*
X020741Y018143D03*
X020741Y018323D03*
X020141Y018363D03*
X020153Y017903D03*
X019913Y018803D03*
X019001Y018083D03*
X018741Y018091D03*
X018209Y018091D03*
X017921Y018151D03*
X017921Y018323D03*
X018729Y018791D03*
X021641Y018351D03*
X021909Y018791D03*
X022813Y018823D03*
X023393Y018803D03*
D48*
X023899Y019095D03*
X022203Y019043D03*
X021623Y018371D03*
X020711Y017903D03*
X020151Y018091D03*
X019543Y018195D03*
X019003Y018275D03*
X017331Y018091D03*
D49*
X017307Y018119D03*
X017287Y018307D03*
X017291Y018319D03*
X017295Y018327D03*
X017923Y018159D03*
X018219Y018379D03*
X018747Y018099D03*
X019559Y018187D03*
X020127Y018119D03*
X020135Y018107D03*
X020151Y017907D03*
X020123Y018339D03*
X020127Y018347D03*
X020327Y018807D03*
X020331Y018819D03*
X020543Y018999D03*
X020543Y019007D03*
X021147Y019047D03*
X021151Y019039D03*
X021155Y019027D03*
X021919Y018799D03*
X022195Y018859D03*
X022195Y019007D03*
X022815Y019047D03*
X022827Y018847D03*
X022823Y018839D03*
X022815Y018827D03*
X023911Y019087D03*
X021659Y018319D03*
X021655Y018327D03*
X021651Y018339D03*
X021035Y018307D03*
X021035Y018299D03*
X020743Y018307D03*
X020743Y018159D03*
X020731Y017927D03*
X019911Y018807D03*
X019547Y018799D03*
X018739Y018799D03*
X017919Y019027D03*
X017915Y019039D03*
X017911Y019047D03*
X017295Y019019D03*
X017295Y019007D03*
D50*
X017299Y019039D03*
X017895Y019067D03*
X017307Y018347D03*
X017315Y018107D03*
X017919Y018139D03*
X020143Y018099D03*
X020739Y018139D03*
X020739Y018327D03*
X021039Y018327D03*
X020715Y017907D03*
X021635Y018359D03*
X022199Y018839D03*
X022199Y019027D03*
X022799Y019067D03*
X020547Y019027D03*
D51*
X020541Y018995D03*
X020541Y018991D03*
X020541Y018983D03*
X020541Y018975D03*
X020541Y018971D03*
X020541Y018963D03*
X020541Y018955D03*
X020541Y018951D03*
X020541Y018943D03*
X020541Y018935D03*
X020541Y018931D03*
X020541Y018923D03*
X020541Y018915D03*
X020541Y018911D03*
X020541Y018903D03*
X020541Y018895D03*
X020541Y018891D03*
X020541Y018883D03*
X020541Y018875D03*
X020541Y018871D03*
X020541Y018863D03*
X020541Y018855D03*
X020541Y018851D03*
X020541Y018843D03*
X020541Y018835D03*
X020541Y018831D03*
X020541Y018823D03*
X020541Y018815D03*
X020541Y018811D03*
X020541Y018803D03*
X020541Y018795D03*
X020541Y018791D03*
X020541Y018783D03*
X020541Y018775D03*
X020541Y018771D03*
X020541Y018763D03*
X020541Y018755D03*
X020541Y018751D03*
X020541Y018743D03*
X020541Y018735D03*
X020541Y018731D03*
X020541Y018723D03*
X020541Y018715D03*
X020333Y018823D03*
X020333Y018831D03*
X020333Y018835D03*
X020329Y018815D03*
X019909Y018811D03*
X019901Y018831D03*
X019901Y018835D03*
X019901Y018843D03*
X019901Y018851D03*
X019901Y018855D03*
X019901Y018863D03*
X019901Y018871D03*
X019901Y018875D03*
X019901Y018883D03*
X019901Y018891D03*
X019901Y018895D03*
X019901Y018903D03*
X019901Y018911D03*
X019901Y018915D03*
X019901Y018923D03*
X019901Y018931D03*
X019901Y018935D03*
X019901Y018943D03*
X019901Y018951D03*
X019901Y018955D03*
X019901Y018963D03*
X019901Y018971D03*
X019901Y018975D03*
X019901Y018983D03*
X019901Y018991D03*
X019901Y018995D03*
X019901Y019003D03*
X019901Y019011D03*
X019901Y019015D03*
X019901Y019023D03*
X019901Y019031D03*
X019901Y019035D03*
X019901Y019043D03*
X019901Y019051D03*
X019901Y019055D03*
X019901Y019063D03*
X019901Y019071D03*
X019901Y019075D03*
X019901Y019083D03*
X019901Y019091D03*
X019901Y019095D03*
X019901Y019163D03*
X019901Y019171D03*
X019901Y019175D03*
X019901Y019183D03*
X019901Y019191D03*
X019901Y019195D03*
X019901Y019203D03*
X019901Y019211D03*
X019901Y019215D03*
X019901Y019223D03*
X019901Y019231D03*
X019901Y019235D03*
X019901Y019243D03*
X019029Y019083D03*
X018221Y019083D03*
X017921Y019023D03*
X017921Y019015D03*
X017921Y019011D03*
X018209Y018803D03*
X018213Y018375D03*
X018749Y018103D03*
X018989Y018095D03*
X018993Y018091D03*
X019821Y018091D03*
X019821Y018095D03*
X019821Y018103D03*
X019821Y018111D03*
X019821Y018115D03*
X019821Y018123D03*
X019821Y018131D03*
X019821Y018135D03*
X019821Y018143D03*
X019821Y018151D03*
X019821Y018155D03*
X019821Y018163D03*
X019821Y018171D03*
X019821Y018175D03*
X019821Y018183D03*
X019821Y018191D03*
X019821Y018195D03*
X019821Y018203D03*
X019821Y018211D03*
X019821Y018215D03*
X019821Y018223D03*
X019821Y018231D03*
X019821Y018235D03*
X019821Y018243D03*
X019821Y018251D03*
X019821Y018255D03*
X019821Y018263D03*
X019821Y018271D03*
X019821Y018275D03*
X019821Y018283D03*
X019821Y018291D03*
X019821Y018295D03*
X019821Y018303D03*
X019821Y018311D03*
X019821Y018315D03*
X019821Y018323D03*
X019821Y018331D03*
X019821Y018335D03*
X019821Y018343D03*
X019821Y018351D03*
X019821Y018355D03*
X019821Y018363D03*
X019821Y018371D03*
X019821Y018375D03*
X019821Y018383D03*
X019821Y018391D03*
X019821Y018395D03*
X019821Y018403D03*
X019821Y018411D03*
X019821Y018415D03*
X019821Y018423D03*
X019821Y018431D03*
X019821Y018435D03*
X019821Y018443D03*
X019821Y018451D03*
X019821Y018571D03*
X019821Y018575D03*
X019821Y018583D03*
X019821Y018591D03*
X019821Y018595D03*
X019821Y018603D03*
X019821Y018611D03*
X019821Y018615D03*
X019821Y018623D03*
X019821Y018631D03*
X019821Y018635D03*
X020121Y018335D03*
X020121Y018331D03*
X020113Y018315D03*
X020113Y018311D03*
X020109Y018303D03*
X020109Y018295D03*
X020109Y018291D03*
X020121Y018131D03*
X020129Y018115D03*
X020149Y017911D03*
X019821Y018011D03*
X019821Y018015D03*
X019821Y018023D03*
X019821Y018031D03*
X019821Y018035D03*
X019821Y018043D03*
X019821Y018051D03*
X019821Y018055D03*
X019821Y018063D03*
X019821Y018071D03*
X019821Y018075D03*
X019821Y018083D03*
X020741Y017955D03*
X020741Y017951D03*
X021033Y018011D03*
X021033Y018015D03*
X021033Y018023D03*
X021033Y018031D03*
X021033Y018035D03*
X021033Y018043D03*
X021033Y018051D03*
X021033Y018055D03*
X021033Y018063D03*
X021033Y018071D03*
X021033Y018075D03*
X021033Y018083D03*
X021033Y018091D03*
X021033Y018095D03*
X021033Y018103D03*
X021033Y018111D03*
X021033Y018115D03*
X021033Y018123D03*
X021033Y018131D03*
X021033Y018135D03*
X021033Y018143D03*
X021033Y018151D03*
X021033Y018155D03*
X021033Y018163D03*
X021033Y018171D03*
X021033Y018175D03*
X021033Y018183D03*
X021033Y018191D03*
X021033Y018195D03*
X021033Y018203D03*
X021033Y018211D03*
X021033Y018215D03*
X021033Y018223D03*
X021033Y018231D03*
X021033Y018235D03*
X021033Y018243D03*
X021033Y018251D03*
X021033Y018255D03*
X021033Y018263D03*
X021033Y018271D03*
X021033Y018275D03*
X021033Y018283D03*
X021033Y018291D03*
X021033Y018295D03*
X021033Y018403D03*
X021033Y018411D03*
X021033Y018415D03*
X021033Y018423D03*
X021033Y018431D03*
X021033Y018435D03*
X021033Y018443D03*
X021033Y018451D03*
X021389Y018803D03*
X021161Y018983D03*
X021161Y018991D03*
X021161Y018995D03*
X021161Y019003D03*
X021153Y019031D03*
X021149Y019043D03*
X021401Y019083D03*
X022193Y019123D03*
X022193Y019131D03*
X022193Y019135D03*
X022193Y019143D03*
X022193Y019151D03*
X022193Y019155D03*
X022193Y019003D03*
X022193Y018995D03*
X022193Y018991D03*
X022193Y018875D03*
X022193Y018871D03*
X022193Y018863D03*
X022193Y018763D03*
X022193Y018755D03*
X022193Y018751D03*
X022193Y018743D03*
X022193Y018735D03*
X022193Y018731D03*
X022193Y018723D03*
X022193Y018715D03*
X022193Y018711D03*
X022193Y018703D03*
X022193Y018695D03*
X022193Y018691D03*
X022193Y018683D03*
X022193Y018675D03*
X022193Y018671D03*
X022193Y018663D03*
X022193Y018655D03*
X022193Y018651D03*
X022193Y018643D03*
X022193Y018635D03*
X022193Y018631D03*
X022193Y018623D03*
X022193Y018615D03*
X022193Y018611D03*
X022193Y018603D03*
X022193Y018595D03*
X022193Y018591D03*
X022193Y018583D03*
X022193Y018575D03*
X022193Y018571D03*
X022193Y018563D03*
X022193Y018555D03*
X022193Y018551D03*
X022193Y018543D03*
X022193Y018535D03*
X021661Y018315D03*
X021661Y018311D03*
X021661Y018303D03*
X022829Y018855D03*
X022833Y018871D03*
X022833Y018875D03*
X022821Y019035D03*
X022813Y019051D03*
X023109Y019051D03*
X023109Y019055D03*
X023109Y019063D03*
X023109Y019071D03*
X023109Y019075D03*
X023109Y019083D03*
X023109Y019091D03*
X023109Y019095D03*
X023109Y019103D03*
X023109Y019111D03*
X023109Y019115D03*
X023109Y019123D03*
X023109Y019131D03*
X023109Y019135D03*
X023109Y019143D03*
X023109Y019151D03*
X023109Y019155D03*
X023109Y019043D03*
X023109Y019035D03*
X023109Y019031D03*
X023109Y019023D03*
X023109Y019015D03*
X023109Y019011D03*
X023109Y019003D03*
X023109Y018995D03*
X023109Y018991D03*
X023109Y018983D03*
X023109Y018975D03*
X023109Y018971D03*
X023109Y018963D03*
X023109Y018955D03*
X023109Y018951D03*
X023109Y018943D03*
X023109Y018935D03*
X023109Y018931D03*
X023109Y018923D03*
X023109Y018915D03*
X023109Y018911D03*
X023109Y018903D03*
X023109Y018895D03*
X023109Y018891D03*
X023109Y018883D03*
X023109Y018875D03*
X023109Y018871D03*
X023109Y018863D03*
X023109Y018855D03*
X023109Y018851D03*
X023109Y018843D03*
X023109Y018835D03*
X023109Y018831D03*
X023109Y018823D03*
X023109Y018815D03*
X023109Y018811D03*
X023109Y018803D03*
X023109Y018795D03*
X023109Y018791D03*
X023109Y018783D03*
X023109Y018775D03*
X023109Y018771D03*
X023109Y018763D03*
X023109Y018755D03*
X023109Y018751D03*
X023109Y018743D03*
X023109Y018735D03*
X023109Y018731D03*
X023109Y018723D03*
X023109Y018715D03*
X023389Y019071D03*
X023109Y019283D03*
X023109Y019291D03*
X023109Y019295D03*
X023109Y019303D03*
X023109Y019311D03*
X023109Y019315D03*
X023109Y019323D03*
X023109Y019331D03*
X023109Y019335D03*
X023109Y019343D03*
X020541Y019155D03*
X020541Y019151D03*
X020541Y019143D03*
X020541Y019135D03*
X020541Y019131D03*
X020541Y019123D03*
X020541Y019115D03*
X020541Y019111D03*
X017293Y019111D03*
X017293Y019115D03*
X017293Y019123D03*
X017293Y019131D03*
X017293Y019135D03*
X017293Y019143D03*
X017293Y019151D03*
X017293Y019155D03*
X017293Y019003D03*
X017293Y018995D03*
X017293Y018991D03*
X017293Y018983D03*
X017293Y018975D03*
X017293Y018971D03*
X017293Y018963D03*
X017293Y018955D03*
X017293Y018951D03*
X017293Y018943D03*
X017293Y018935D03*
X017293Y018931D03*
X017293Y018923D03*
X017293Y018915D03*
X017293Y018911D03*
X017293Y018903D03*
X017293Y018895D03*
X017293Y018891D03*
X017293Y018883D03*
X017293Y018875D03*
X017293Y018871D03*
X017293Y018863D03*
X017293Y018855D03*
X017293Y018851D03*
X017293Y018843D03*
X017293Y018835D03*
X017293Y018831D03*
X017293Y018823D03*
X017293Y018815D03*
X017293Y018811D03*
X017293Y018803D03*
X017293Y018795D03*
X017293Y018791D03*
X017293Y018783D03*
X017293Y018775D03*
X017293Y018771D03*
X017293Y018763D03*
X017293Y018755D03*
X017293Y018751D03*
X017293Y018743D03*
X017293Y018735D03*
X017293Y018731D03*
X017293Y018723D03*
X017293Y018715D03*
X017289Y018315D03*
X017289Y018311D03*
X017281Y018283D03*
X017281Y018275D03*
X017281Y018271D03*
X017281Y018263D03*
X017281Y018255D03*
X017281Y018251D03*
X017281Y018243D03*
X017281Y018235D03*
X017281Y018231D03*
X017281Y018223D03*
X017281Y018215D03*
D52*
X017283Y018211D03*
X017283Y018203D03*
X017283Y018195D03*
X017283Y018191D03*
X017283Y018183D03*
X017287Y018175D03*
X017287Y018171D03*
X017287Y018163D03*
X017295Y018143D03*
X017927Y018183D03*
X017927Y018191D03*
X017927Y018195D03*
X017927Y018203D03*
X017927Y018211D03*
X017927Y018215D03*
X017927Y018223D03*
X017927Y018231D03*
X017927Y018235D03*
X017927Y018243D03*
X017927Y018251D03*
X017927Y018255D03*
X017927Y018263D03*
X017927Y018271D03*
X017927Y018275D03*
X017927Y018283D03*
X018199Y018103D03*
X018755Y018115D03*
X018743Y018355D03*
X018739Y018363D03*
X018983Y018291D03*
X018743Y018803D03*
X018743Y019071D03*
X018739Y019075D03*
X019019Y019075D03*
X019547Y019075D03*
X019559Y018815D03*
X019559Y018371D03*
X019563Y018183D03*
X020107Y018183D03*
X020107Y018175D03*
X020107Y018191D03*
X020107Y018195D03*
X020107Y018203D03*
X020115Y018151D03*
X020115Y018143D03*
X020119Y018135D03*
X020143Y017931D03*
X020143Y017923D03*
X020147Y017915D03*
X020747Y018183D03*
X020747Y018191D03*
X020747Y018195D03*
X020747Y018203D03*
X020747Y018211D03*
X020747Y018215D03*
X020747Y018223D03*
X020747Y018231D03*
X020747Y018235D03*
X020747Y018243D03*
X020747Y018251D03*
X020747Y018255D03*
X020747Y018263D03*
X020747Y018271D03*
X020747Y018275D03*
X020747Y018283D03*
X021383Y018811D03*
X021923Y018803D03*
X021923Y019071D03*
X021919Y019075D03*
X022823Y019031D03*
X022827Y019023D03*
X022827Y019015D03*
X022835Y018991D03*
X022835Y018983D03*
X022835Y018975D03*
X022835Y018971D03*
X022835Y018963D03*
X023383Y019063D03*
X023379Y018823D03*
X023383Y018815D03*
X023923Y018803D03*
X023927Y018811D03*
X023935Y018823D03*
X023939Y018835D03*
X023927Y019071D03*
X023923Y019075D03*
X018203Y018811D03*
X017927Y018635D03*
D53*
X017925Y018627D03*
X017925Y018619D03*
X017925Y018607D03*
X017925Y018599D03*
X017925Y018587D03*
X017925Y018579D03*
X017925Y018567D03*
X017925Y018559D03*
X017925Y018547D03*
X017925Y018539D03*
X017925Y018527D03*
X017925Y018519D03*
X017925Y018507D03*
X017925Y018499D03*
X017925Y018487D03*
X017925Y018479D03*
X017925Y018467D03*
X017925Y018459D03*
X017925Y018447D03*
X017925Y018439D03*
X017925Y018427D03*
X017925Y018419D03*
X017925Y018407D03*
X017925Y018307D03*
X017925Y018299D03*
X017925Y018179D03*
X017925Y018167D03*
X017925Y018047D03*
X017925Y018039D03*
X017925Y018027D03*
X017925Y018019D03*
X017925Y018007D03*
X017285Y018299D03*
X017925Y018719D03*
X017925Y018727D03*
X017925Y018739D03*
X017925Y018747D03*
X017925Y018759D03*
X017925Y018767D03*
X017925Y018779D03*
X017925Y018787D03*
X017925Y018799D03*
X017925Y018807D03*
X017925Y018819D03*
X017925Y018827D03*
X017925Y018839D03*
X017925Y018847D03*
X017925Y018859D03*
X017925Y018867D03*
X017925Y018879D03*
X017925Y018887D03*
X017925Y018899D03*
X017925Y018907D03*
X017925Y018919D03*
X017925Y018927D03*
X017925Y018939D03*
X017925Y018947D03*
X017925Y018959D03*
X017925Y018967D03*
X017925Y018979D03*
X017925Y018987D03*
X017925Y018999D03*
X017925Y019007D03*
X018217Y019079D03*
X018737Y019079D03*
X019025Y019079D03*
X019545Y019079D03*
X019905Y018827D03*
X019905Y018819D03*
X020117Y018327D03*
X020105Y018279D03*
X020105Y018267D03*
X020105Y018259D03*
X020105Y018247D03*
X020105Y018239D03*
X020105Y018227D03*
X020105Y018219D03*
X020105Y018207D03*
X020117Y018139D03*
X020145Y017919D03*
X020737Y017939D03*
X020745Y017967D03*
X020745Y017979D03*
X020745Y017987D03*
X020745Y017999D03*
X020745Y018007D03*
X020745Y018019D03*
X020745Y018027D03*
X020745Y018039D03*
X020745Y018047D03*
X020745Y018167D03*
X020745Y018179D03*
X020745Y018287D03*
X020745Y018299D03*
X020745Y018407D03*
X020745Y018419D03*
X020745Y018427D03*
X020745Y018439D03*
X020745Y018447D03*
X021157Y019007D03*
X021157Y019019D03*
X021397Y019079D03*
X021917Y019079D03*
X022825Y019027D03*
X022837Y018947D03*
X022837Y018939D03*
X022837Y018927D03*
X022837Y018919D03*
X022837Y018907D03*
X022837Y018899D03*
X022837Y018887D03*
X023385Y019067D03*
X021665Y018299D03*
X021665Y018287D03*
X021665Y018279D03*
X021665Y018267D03*
X021665Y018259D03*
X021665Y018247D03*
X021665Y018239D03*
X021665Y018227D03*
X021665Y018219D03*
X021665Y018207D03*
X021665Y018199D03*
X021665Y018187D03*
X021665Y018179D03*
X021665Y018167D03*
X021665Y018159D03*
X021665Y018147D03*
X021665Y018139D03*
X021665Y018127D03*
X021665Y018119D03*
X021665Y018107D03*
X021665Y018099D03*
X021665Y018087D03*
X021665Y018079D03*
X021665Y018067D03*
X021665Y018059D03*
X021665Y018047D03*
X021665Y018039D03*
X021665Y018027D03*
X021665Y018019D03*
X021665Y018007D03*
D54*
X020747Y018187D03*
X020747Y018199D03*
X020747Y018207D03*
X020747Y018219D03*
X020747Y018227D03*
X020747Y018239D03*
X020747Y018247D03*
X020747Y018259D03*
X020747Y018267D03*
X020747Y018279D03*
X020107Y018199D03*
X020107Y018187D03*
X020107Y018179D03*
X020115Y018147D03*
X020143Y017927D03*
X019567Y018179D03*
X019563Y018367D03*
X019555Y018807D03*
X019015Y018807D03*
X019007Y018819D03*
X018747Y018807D03*
X018735Y018367D03*
X018747Y018347D03*
X018755Y018119D03*
X018987Y018287D03*
X018195Y018107D03*
X017927Y018187D03*
X017927Y018199D03*
X017927Y018207D03*
X017927Y018219D03*
X017927Y018227D03*
X017927Y018239D03*
X017927Y018247D03*
X017927Y018259D03*
X017927Y018267D03*
X017927Y018279D03*
X017927Y018287D03*
X018207Y018807D03*
X018199Y018819D03*
X017283Y018207D03*
X017283Y018199D03*
X017283Y018187D03*
X017283Y018179D03*
X017287Y018167D03*
X017287Y018159D03*
X017295Y018139D03*
X021379Y018819D03*
X021387Y018807D03*
X021927Y018807D03*
X022835Y018959D03*
X022835Y018967D03*
X022835Y018979D03*
X022835Y018987D03*
X022827Y019019D03*
X023379Y019059D03*
X023375Y018827D03*
X023379Y018819D03*
X023927Y018807D03*
D55*
X023915Y018795D03*
X023911Y018791D03*
X023395Y019075D03*
X022811Y019055D03*
X022831Y018863D03*
X022827Y018851D03*
X022823Y018843D03*
X022819Y018835D03*
X022195Y018855D03*
X022195Y019011D03*
X022195Y019015D03*
X021911Y019083D03*
X021915Y018795D03*
X021647Y018343D03*
X021651Y018335D03*
X021655Y018331D03*
X021035Y018311D03*
X021035Y018303D03*
X020743Y018311D03*
X020743Y018315D03*
X020743Y018155D03*
X020743Y018151D03*
X020739Y017943D03*
X020735Y017935D03*
X020131Y018111D03*
X020131Y018351D03*
X020135Y018355D03*
X020327Y018811D03*
X020543Y019003D03*
X020543Y019011D03*
X021143Y019051D03*
X021143Y019055D03*
X021151Y019035D03*
X019907Y018815D03*
X019543Y018795D03*
X019539Y019083D03*
X018731Y019083D03*
X018735Y018795D03*
X018727Y018375D03*
X018995Y018383D03*
X018991Y018283D03*
X018743Y018095D03*
X019555Y018375D03*
X017923Y018315D03*
X017923Y018311D03*
X017923Y018163D03*
X017923Y018155D03*
X017311Y018111D03*
X017307Y018115D03*
X017303Y018123D03*
X017291Y018323D03*
X017299Y018335D03*
X017295Y019011D03*
X017295Y019015D03*
X017907Y019051D03*
X017911Y019043D03*
X017915Y019035D03*
D56*
X017921Y019019D03*
X018213Y018799D03*
X018989Y018379D03*
X019021Y018799D03*
X019821Y018627D03*
X019821Y018619D03*
X019821Y018607D03*
X019821Y018599D03*
X019821Y018587D03*
X019821Y018579D03*
X019821Y018447D03*
X019821Y018439D03*
X019821Y018427D03*
X019821Y018419D03*
X019821Y018407D03*
X019821Y018399D03*
X019821Y018387D03*
X019821Y018379D03*
X019821Y018367D03*
X019821Y018359D03*
X019821Y018347D03*
X019821Y018339D03*
X019821Y018327D03*
X019821Y018319D03*
X019821Y018307D03*
X019821Y018299D03*
X019821Y018287D03*
X019821Y018279D03*
X019821Y018267D03*
X019821Y018259D03*
X019821Y018247D03*
X019821Y018239D03*
X019821Y018227D03*
X019821Y018219D03*
X019821Y018207D03*
X019821Y018199D03*
X019821Y018187D03*
X019821Y018179D03*
X019821Y018167D03*
X019821Y018159D03*
X019821Y018147D03*
X019821Y018139D03*
X019821Y018127D03*
X019821Y018119D03*
X019821Y018107D03*
X019821Y018099D03*
X019821Y018087D03*
X019821Y018079D03*
X019821Y018067D03*
X019821Y018059D03*
X019821Y018047D03*
X019821Y018039D03*
X019821Y018027D03*
X019821Y018019D03*
X019821Y018007D03*
X019569Y018087D03*
X020121Y018127D03*
X020109Y018287D03*
X020109Y018299D03*
X020113Y018319D03*
X020333Y018827D03*
X020541Y018827D03*
X020541Y018819D03*
X020541Y018807D03*
X020541Y018799D03*
X020541Y018787D03*
X020541Y018779D03*
X020541Y018767D03*
X020541Y018759D03*
X020541Y018747D03*
X020541Y018739D03*
X020541Y018727D03*
X020541Y018719D03*
X020541Y018839D03*
X020541Y018847D03*
X020541Y018859D03*
X020541Y018867D03*
X020541Y018879D03*
X020541Y018887D03*
X020541Y018899D03*
X020541Y018907D03*
X020541Y018919D03*
X020541Y018927D03*
X020541Y018939D03*
X020541Y018947D03*
X020541Y018959D03*
X020541Y018967D03*
X020541Y018979D03*
X020541Y018987D03*
X020541Y019119D03*
X020541Y019127D03*
X020541Y019139D03*
X020541Y019147D03*
X020541Y019159D03*
X021161Y018999D03*
X021161Y018987D03*
X021393Y018799D03*
X021033Y018447D03*
X021033Y018439D03*
X021033Y018427D03*
X021033Y018419D03*
X021033Y018407D03*
X021033Y018399D03*
X021033Y018287D03*
X021033Y018279D03*
X021033Y018267D03*
X021033Y018259D03*
X021033Y018247D03*
X021033Y018239D03*
X021033Y018227D03*
X021033Y018219D03*
X021033Y018207D03*
X021033Y018199D03*
X021033Y018187D03*
X021033Y018179D03*
X021033Y018167D03*
X021033Y018159D03*
X021033Y018147D03*
X021033Y018139D03*
X021033Y018127D03*
X021033Y018119D03*
X021033Y018107D03*
X021033Y018099D03*
X021033Y018087D03*
X021033Y018079D03*
X021033Y018067D03*
X021033Y018059D03*
X021033Y018047D03*
X021033Y018039D03*
X021033Y018027D03*
X021033Y018019D03*
X021033Y018007D03*
X020741Y017959D03*
X020741Y017947D03*
X021661Y018307D03*
X022193Y018539D03*
X022193Y018547D03*
X022193Y018559D03*
X022193Y018567D03*
X022193Y018579D03*
X022193Y018587D03*
X022193Y018599D03*
X022193Y018607D03*
X022193Y018619D03*
X022193Y018627D03*
X022193Y018639D03*
X022193Y018647D03*
X022193Y018659D03*
X022193Y018667D03*
X022193Y018679D03*
X022193Y018687D03*
X022193Y018699D03*
X022193Y018707D03*
X022193Y018719D03*
X022193Y018727D03*
X022193Y018739D03*
X022193Y018747D03*
X022193Y018759D03*
X022193Y018867D03*
X022193Y018879D03*
X022193Y018999D03*
X022193Y019119D03*
X022193Y019127D03*
X022193Y019139D03*
X022193Y019147D03*
X022193Y019159D03*
X022821Y019039D03*
X022833Y018879D03*
X022833Y018867D03*
X022829Y018859D03*
X023109Y018859D03*
X023109Y018867D03*
X023109Y018879D03*
X023109Y018887D03*
X023109Y018899D03*
X023109Y018907D03*
X023109Y018919D03*
X023109Y018927D03*
X023109Y018939D03*
X023109Y018947D03*
X023109Y018959D03*
X023109Y018967D03*
X023109Y018979D03*
X023109Y018987D03*
X023109Y018999D03*
X023109Y019007D03*
X023109Y019019D03*
X023109Y019027D03*
X023109Y019039D03*
X023109Y019047D03*
X023109Y019059D03*
X023109Y019067D03*
X023109Y019079D03*
X023109Y019087D03*
X023109Y019099D03*
X023109Y019107D03*
X023109Y019119D03*
X023109Y019127D03*
X023109Y019139D03*
X023109Y019147D03*
X023109Y019159D03*
X023109Y019279D03*
X023109Y019287D03*
X023109Y019299D03*
X023109Y019307D03*
X023109Y019319D03*
X023109Y019327D03*
X023109Y019339D03*
X023109Y018847D03*
X023109Y018839D03*
X023109Y018827D03*
X023109Y018819D03*
X023109Y018807D03*
X023109Y018799D03*
X023109Y018787D03*
X023109Y018779D03*
X023109Y018767D03*
X023109Y018759D03*
X023109Y018747D03*
X023109Y018739D03*
X023109Y018727D03*
X023109Y018719D03*
X023389Y018807D03*
X023921Y018799D03*
X023921Y019079D03*
X019901Y019079D03*
X019901Y019087D03*
X019901Y019099D03*
X019901Y019067D03*
X019901Y019059D03*
X019901Y019047D03*
X019901Y019039D03*
X019901Y019027D03*
X019901Y019019D03*
X019901Y019007D03*
X019901Y018999D03*
X019901Y018987D03*
X019901Y018979D03*
X019901Y018967D03*
X019901Y018959D03*
X019901Y018947D03*
X019901Y018939D03*
X019901Y018927D03*
X019901Y018919D03*
X019901Y018907D03*
X019901Y018899D03*
X019901Y018887D03*
X019901Y018879D03*
X019901Y018867D03*
X019901Y018859D03*
X019901Y018847D03*
X019901Y018839D03*
X019901Y019167D03*
X019901Y019179D03*
X019901Y019187D03*
X019901Y019199D03*
X019901Y019207D03*
X019901Y019219D03*
X019901Y019227D03*
X019901Y019239D03*
X019901Y019247D03*
X018201Y018099D03*
X017301Y018127D03*
X017281Y018219D03*
X017281Y018227D03*
X017281Y018239D03*
X017281Y018247D03*
X017281Y018259D03*
X017281Y018267D03*
X017281Y018279D03*
X017281Y018287D03*
X017293Y018719D03*
X017293Y018727D03*
X017293Y018739D03*
X017293Y018747D03*
X017293Y018759D03*
X017293Y018767D03*
X017293Y018779D03*
X017293Y018787D03*
X017293Y018799D03*
X017293Y018807D03*
X017293Y018819D03*
X017293Y018827D03*
X017293Y018839D03*
X017293Y018847D03*
X017293Y018859D03*
X017293Y018867D03*
X017293Y018879D03*
X017293Y018887D03*
X017293Y018899D03*
X017293Y018907D03*
X017293Y018919D03*
X017293Y018927D03*
X017293Y018939D03*
X017293Y018947D03*
X017293Y018959D03*
X017293Y018967D03*
X017293Y018979D03*
X017293Y018987D03*
X017293Y018999D03*
X017293Y019107D03*
X017293Y019119D03*
X017293Y019127D03*
X017293Y019139D03*
X017293Y019147D03*
X017293Y019159D03*
D57*
X017917Y019031D03*
X017925Y019003D03*
X017925Y018995D03*
X017925Y018991D03*
X017925Y018983D03*
X017925Y018975D03*
X017925Y018971D03*
X017925Y018963D03*
X017925Y018955D03*
X017925Y018951D03*
X017925Y018943D03*
X017925Y018935D03*
X017925Y018931D03*
X017925Y018923D03*
X017925Y018915D03*
X017925Y018911D03*
X017925Y018903D03*
X017925Y018895D03*
X017925Y018891D03*
X017925Y018883D03*
X017925Y018875D03*
X017925Y018871D03*
X017925Y018863D03*
X017925Y018855D03*
X017925Y018851D03*
X017925Y018843D03*
X017925Y018835D03*
X017925Y018831D03*
X017925Y018823D03*
X017925Y018815D03*
X017925Y018811D03*
X017925Y018803D03*
X017925Y018795D03*
X017925Y018791D03*
X017925Y018783D03*
X017925Y018775D03*
X017925Y018771D03*
X017925Y018763D03*
X017925Y018755D03*
X017925Y018751D03*
X017925Y018743D03*
X017925Y018735D03*
X017925Y018731D03*
X017925Y018723D03*
X017925Y018715D03*
X017925Y018631D03*
X017925Y018623D03*
X017925Y018615D03*
X017925Y018611D03*
X017925Y018603D03*
X017925Y018595D03*
X017925Y018591D03*
X017925Y018583D03*
X017925Y018575D03*
X017925Y018571D03*
X017925Y018563D03*
X017925Y018555D03*
X017925Y018551D03*
X017925Y018543D03*
X017925Y018535D03*
X017925Y018531D03*
X017925Y018523D03*
X017925Y018515D03*
X017925Y018511D03*
X017925Y018503D03*
X017925Y018495D03*
X017925Y018491D03*
X017925Y018483D03*
X017925Y018475D03*
X017925Y018471D03*
X017925Y018463D03*
X017925Y018455D03*
X017925Y018451D03*
X017925Y018443D03*
X017925Y018435D03*
X017925Y018431D03*
X017925Y018423D03*
X017925Y018415D03*
X017925Y018411D03*
X017925Y018303D03*
X017925Y018295D03*
X017925Y018291D03*
X017925Y018175D03*
X017925Y018171D03*
X017925Y018051D03*
X017925Y018043D03*
X017925Y018035D03*
X017925Y018031D03*
X017925Y018023D03*
X017925Y018015D03*
X017925Y018011D03*
X018205Y018095D03*
X018985Y018375D03*
X019017Y018803D03*
X019905Y018823D03*
X020125Y018343D03*
X020117Y018323D03*
X020105Y018283D03*
X020105Y018275D03*
X020105Y018271D03*
X020105Y018263D03*
X020105Y018255D03*
X020105Y018251D03*
X020105Y018243D03*
X020105Y018235D03*
X020105Y018231D03*
X020105Y018223D03*
X020105Y018215D03*
X020105Y018211D03*
X020125Y018123D03*
X019565Y018083D03*
X020745Y018055D03*
X020745Y018051D03*
X020745Y018043D03*
X020745Y018035D03*
X020745Y018031D03*
X020745Y018023D03*
X020745Y018015D03*
X020745Y018011D03*
X020745Y018003D03*
X020745Y017995D03*
X020745Y017991D03*
X020745Y017983D03*
X020745Y017975D03*
X020745Y017971D03*
X020745Y017963D03*
X020745Y018163D03*
X020745Y018171D03*
X020745Y018175D03*
X020745Y018291D03*
X020745Y018295D03*
X020745Y018303D03*
X020745Y018403D03*
X020745Y018411D03*
X020745Y018415D03*
X020745Y018423D03*
X020745Y018431D03*
X020745Y018435D03*
X020745Y018443D03*
X020745Y018451D03*
X021157Y019011D03*
X021157Y019015D03*
X021157Y019023D03*
X021657Y018323D03*
X021665Y018295D03*
X021665Y018291D03*
X021665Y018283D03*
X021665Y018275D03*
X021665Y018271D03*
X021665Y018263D03*
X021665Y018255D03*
X021665Y018251D03*
X021665Y018243D03*
X021665Y018235D03*
X021665Y018231D03*
X021665Y018223D03*
X021665Y018215D03*
X021665Y018211D03*
X021665Y018203D03*
X021665Y018195D03*
X021665Y018191D03*
X021665Y018183D03*
X021665Y018175D03*
X021665Y018171D03*
X021665Y018163D03*
X021665Y018155D03*
X021665Y018151D03*
X021665Y018143D03*
X021665Y018135D03*
X021665Y018131D03*
X021665Y018123D03*
X021665Y018115D03*
X021665Y018111D03*
X021665Y018103D03*
X021665Y018095D03*
X021665Y018091D03*
X021665Y018083D03*
X021665Y018075D03*
X021665Y018071D03*
X021665Y018063D03*
X021665Y018055D03*
X021665Y018051D03*
X021665Y018043D03*
X021665Y018035D03*
X021665Y018031D03*
X021665Y018023D03*
X021665Y018015D03*
X021665Y018011D03*
X022837Y018883D03*
X022837Y018891D03*
X022837Y018895D03*
X022837Y018903D03*
X022837Y018911D03*
X022837Y018915D03*
X022837Y018923D03*
X022837Y018931D03*
X022837Y018935D03*
X022837Y018943D03*
X022837Y018951D03*
X022837Y018955D03*
X022817Y019043D03*
X023385Y018811D03*
X023917Y019083D03*
X017285Y018303D03*
X017285Y018295D03*
X017285Y018291D03*
X017297Y018135D03*
X017297Y018131D03*
D58*
X017597Y018007D03*
X018465Y018007D03*
X020877Y019159D03*
D59*
X019281Y018007D03*
D60*
X020203Y018067D03*
X020423Y018007D03*
X022235Y018787D03*
X022235Y019087D03*
D61*
X017597Y018011D03*
D62*
X018469Y018011D03*
X020649Y018063D03*
D63*
X019283Y018011D03*
D64*
X020417Y018011D03*
D65*
X017595Y018015D03*
D66*
X018471Y018015D03*
D67*
X019283Y018015D03*
X017591Y018023D03*
D68*
X020413Y018015D03*
X022525Y019155D03*
D69*
X017591Y018019D03*
D70*
X017591Y018439D03*
X018471Y018019D03*
D71*
X019283Y018019D03*
X022531Y019139D03*
D72*
X020413Y018019D03*
D73*
X018473Y018023D03*
X022529Y019143D03*
D74*
X023659Y019135D03*
X019283Y018023D03*
D75*
X020411Y018023D03*
D76*
X017589Y018027D03*
D77*
X018473Y018027D03*
X018477Y019139D03*
X019285Y019139D03*
X021657Y019139D03*
D78*
X021657Y019127D03*
X019285Y019127D03*
X018477Y019127D03*
X019285Y018027D03*
D79*
X020121Y018747D03*
X020409Y018027D03*
D80*
X020409Y018423D03*
X019285Y019135D03*
X018477Y019135D03*
X018473Y018031D03*
X021657Y019135D03*
D81*
X019283Y018031D03*
X018471Y018411D03*
X017583Y018411D03*
D82*
X020409Y018031D03*
D83*
X020407Y018035D03*
X017587Y018035D03*
D84*
X018473Y018035D03*
X019213Y018255D03*
X022533Y018751D03*
D85*
X021657Y019115D03*
X019285Y019115D03*
X018477Y019115D03*
X019285Y018035D03*
D86*
X020405Y018039D03*
X020409Y018419D03*
X017585Y018039D03*
D87*
X018475Y018039D03*
X021375Y018407D03*
D88*
X019285Y018039D03*
D89*
X020405Y018043D03*
X020405Y018415D03*
X017585Y018043D03*
D90*
X017583Y018051D03*
X018475Y018043D03*
X020403Y018051D03*
X020879Y019111D03*
X023655Y018755D03*
D91*
X019285Y018043D03*
D92*
X017585Y018047D03*
D93*
X018477Y018047D03*
X018477Y018759D03*
X019285Y018759D03*
X021657Y018759D03*
X023657Y018759D03*
D94*
X019285Y018047D03*
D95*
X020403Y018047D03*
X023659Y019127D03*
D96*
X023655Y018763D03*
X021655Y018763D03*
X018475Y018763D03*
X018475Y018051D03*
D97*
X019283Y018051D03*
D98*
X017643Y018055D03*
X022475Y019115D03*
D99*
X020043Y019115D03*
X020043Y019111D03*
X020043Y019103D03*
X020043Y019123D03*
X020043Y019131D03*
X020043Y019135D03*
X020043Y019143D03*
X020043Y019151D03*
X020043Y019155D03*
X018475Y018055D03*
D100*
X019283Y018055D03*
D101*
X019299Y018223D03*
X019251Y018243D03*
X020403Y018403D03*
X020403Y018055D03*
D102*
X020459Y018059D03*
X018467Y018219D03*
X018467Y018227D03*
X018467Y018239D03*
X018467Y018247D03*
X018467Y018259D03*
X018467Y018267D03*
X017639Y018059D03*
D103*
X018475Y018059D03*
D104*
X019285Y018059D03*
D105*
X020421Y018451D03*
X020601Y019095D03*
X017409Y018063D03*
D106*
X017827Y018063D03*
D107*
X018279Y018063D03*
X017343Y019095D03*
D108*
X018667Y018063D03*
X021355Y018451D03*
D109*
X020703Y018383D03*
X020123Y018715D03*
X020583Y019083D03*
X019511Y018063D03*
X017883Y018083D03*
X017883Y018383D03*
X022731Y018775D03*
D110*
X020233Y018063D03*
D111*
X019045Y018399D03*
X017385Y018067D03*
D112*
X017851Y018067D03*
D113*
X018255Y018067D03*
X018695Y018067D03*
X017447Y019107D03*
X021187Y018399D03*
D114*
X019037Y018067D03*
D115*
X020673Y018067D03*
X017421Y018399D03*
D116*
X017373Y018391D03*
X017597Y018455D03*
X017893Y018375D03*
X018461Y018455D03*
X017369Y018071D03*
X017325Y019083D03*
X020189Y018071D03*
X021065Y018375D03*
X020573Y019075D03*
X022225Y018795D03*
D117*
X017863Y018071D03*
D118*
X018711Y018071D03*
X017311Y019063D03*
X021051Y018355D03*
X022211Y018811D03*
D119*
X022775Y018791D03*
X023423Y019095D03*
X021103Y019091D03*
X020559Y019055D03*
X019023Y018071D03*
X017907Y018111D03*
X017343Y018083D03*
D120*
X020685Y018071D03*
D121*
X020719Y018095D03*
X020719Y018371D03*
X019519Y018203D03*
X018683Y018395D03*
X017359Y018075D03*
X017319Y019075D03*
X022219Y019071D03*
X022759Y019095D03*
X022759Y018783D03*
X023655Y019163D03*
D122*
X023843Y018771D03*
X017871Y018075D03*
D123*
X018257Y018395D03*
X020177Y018075D03*
X022217Y018803D03*
D124*
X021845Y018771D03*
X020593Y019091D03*
X019473Y018771D03*
X018665Y018771D03*
X020693Y018075D03*
D125*
X020697Y018387D03*
X017877Y018079D03*
D126*
X017913Y018347D03*
X018225Y018079D03*
X017337Y018087D03*
X020157Y018087D03*
X020161Y018379D03*
X020733Y018347D03*
X020733Y018119D03*
X021045Y018347D03*
X022205Y019047D03*
X022789Y019079D03*
X022789Y018799D03*
X023413Y018787D03*
D127*
X023409Y019087D03*
X023905Y018787D03*
X022797Y018807D03*
X021905Y018787D03*
X021409Y018787D03*
X021625Y018367D03*
X020737Y018339D03*
X020737Y018127D03*
X020313Y018787D03*
X019533Y018787D03*
X019037Y018787D03*
X018725Y018787D03*
X018229Y018787D03*
X018233Y018387D03*
X017917Y018339D03*
X017317Y018359D03*
X019009Y018079D03*
D128*
X018721Y018379D03*
X018213Y018087D03*
X017921Y018147D03*
X017921Y018319D03*
X017921Y018327D03*
X017301Y018339D03*
X017901Y019059D03*
X019033Y019087D03*
X019533Y019087D03*
X020321Y018799D03*
X020741Y018319D03*
X020741Y018147D03*
X021141Y019059D03*
X021133Y019067D03*
X022809Y019059D03*
X022809Y018819D03*
X019549Y018379D03*
X019561Y018079D03*
D129*
X020169Y018079D03*
X020181Y018387D03*
X019513Y018779D03*
X020561Y019059D03*
X021053Y018359D03*
X022213Y018807D03*
X017313Y019067D03*
D130*
X020701Y018079D03*
D131*
X020161Y018083D03*
X023421Y018783D03*
D132*
X021567Y018395D03*
X020707Y018083D03*
X020275Y018771D03*
X019967Y018771D03*
X017827Y019103D03*
D133*
X017887Y018087D03*
D134*
X020711Y018087D03*
D135*
X017891Y018091D03*
D136*
X018185Y018123D03*
X018189Y018115D03*
X018193Y018111D03*
X018177Y018291D03*
X018177Y018295D03*
X018193Y018351D03*
X018197Y018355D03*
X018197Y018823D03*
X018193Y018831D03*
X018193Y018835D03*
X018189Y018843D03*
X018185Y018863D03*
X018185Y018871D03*
X018185Y018875D03*
X018185Y018995D03*
X018185Y019003D03*
X018193Y019043D03*
X018197Y019051D03*
X018209Y019071D03*
X018749Y019063D03*
X018753Y019055D03*
X018765Y019015D03*
X018765Y019011D03*
X018765Y018855D03*
X018765Y018851D03*
X018757Y018831D03*
X018757Y018823D03*
X018749Y018811D03*
X018993Y018863D03*
X018993Y018871D03*
X018993Y018875D03*
X018997Y018843D03*
X019005Y018823D03*
X019009Y018815D03*
X018993Y018995D03*
X018993Y019003D03*
X019005Y019051D03*
X019009Y019063D03*
X019017Y019071D03*
X019557Y019063D03*
X019569Y019035D03*
X019573Y019015D03*
X019573Y019011D03*
X019573Y018855D03*
X019573Y018851D03*
X019569Y018835D03*
X019565Y018831D03*
X019565Y018823D03*
X019557Y018811D03*
X019565Y018363D03*
X019569Y018175D03*
X019573Y018171D03*
X019577Y018095D03*
X019573Y018091D03*
X018977Y018363D03*
X018757Y018315D03*
X018757Y018311D03*
X018757Y018303D03*
X018757Y018295D03*
X018757Y018291D03*
X018753Y018323D03*
X018753Y018331D03*
X018753Y018335D03*
X018749Y018343D03*
X018745Y018351D03*
X018757Y018143D03*
X018757Y018135D03*
X018757Y018131D03*
X018757Y018123D03*
X021369Y018843D03*
X021373Y018835D03*
X021373Y018831D03*
X021377Y018823D03*
X021365Y018863D03*
X021365Y018871D03*
X021365Y018875D03*
X021365Y018995D03*
X021365Y019003D03*
X021373Y019043D03*
X021377Y019051D03*
X021389Y019071D03*
X021929Y019063D03*
X021933Y019055D03*
X021945Y019015D03*
X021945Y019011D03*
X021945Y018855D03*
X021945Y018851D03*
X021937Y018831D03*
X021937Y018823D03*
X021929Y018811D03*
X023365Y018855D03*
X023365Y018863D03*
X023369Y018843D03*
X023373Y018835D03*
X023373Y018831D03*
X023365Y019011D03*
X023365Y019015D03*
X023365Y019023D03*
X023369Y019031D03*
X023369Y019035D03*
X023377Y019051D03*
X023377Y019055D03*
X023933Y019063D03*
X023937Y019051D03*
X023937Y018831D03*
D137*
X020715Y018375D03*
X020715Y018091D03*
X017895Y018095D03*
D138*
X017915Y018343D03*
X017327Y018095D03*
X020735Y018123D03*
X020735Y018343D03*
X022795Y018803D03*
X023407Y018791D03*
D139*
X022201Y019039D03*
X021121Y019079D03*
X019001Y018387D03*
X017321Y018099D03*
D140*
X017899Y018099D03*
X020567Y019067D03*
X021059Y018367D03*
D141*
X021373Y018827D03*
X021369Y018847D03*
X021365Y018867D03*
X021365Y018999D03*
X021365Y019007D03*
X021369Y019027D03*
X021385Y019067D03*
X021925Y019067D03*
X021933Y019059D03*
X021937Y019047D03*
X021945Y019019D03*
X021945Y018859D03*
X021937Y018827D03*
X021933Y018819D03*
X023365Y018859D03*
X023369Y018847D03*
X023365Y019019D03*
X023369Y019039D03*
X023373Y019047D03*
X023929Y019067D03*
X023933Y019059D03*
X023937Y019047D03*
X023937Y018827D03*
X023933Y018819D03*
X019573Y018859D03*
X019569Y018839D03*
X019565Y018827D03*
X019573Y019019D03*
X019565Y019047D03*
X019553Y019067D03*
X019013Y019067D03*
X019009Y019059D03*
X018997Y019027D03*
X018993Y019007D03*
X018993Y018999D03*
X018993Y018867D03*
X018997Y018847D03*
X018765Y018859D03*
X018757Y018827D03*
X018753Y018819D03*
X018765Y019019D03*
X018757Y019047D03*
X018753Y019059D03*
X018745Y019067D03*
X018205Y019067D03*
X018189Y019027D03*
X018185Y019007D03*
X018185Y018999D03*
X018185Y018867D03*
X018189Y018847D03*
X018193Y018827D03*
X018205Y018367D03*
X018753Y018327D03*
X018757Y018319D03*
X018757Y018307D03*
X018757Y018299D03*
X018757Y018287D03*
X018757Y018139D03*
X018757Y018127D03*
X018985Y018099D03*
X018977Y018299D03*
X018977Y018367D03*
X019569Y018359D03*
X019577Y018099D03*
D142*
X019949Y018775D03*
X021093Y019095D03*
X017853Y019095D03*
X017901Y018103D03*
D143*
X018201Y018363D03*
X018201Y018815D03*
X018201Y019063D03*
X018761Y019035D03*
X018761Y018835D03*
X019001Y018835D03*
X019001Y018831D03*
X019001Y019043D03*
X019561Y019055D03*
X018981Y018371D03*
X018981Y018295D03*
X018981Y018103D03*
X021381Y018815D03*
X021381Y019063D03*
X021941Y019035D03*
X021941Y018835D03*
X023361Y018883D03*
X023361Y018891D03*
X023361Y018895D03*
X023361Y018951D03*
X023361Y018955D03*
X023361Y018963D03*
X023361Y018971D03*
X023361Y018975D03*
X023361Y018983D03*
X023361Y018991D03*
X023361Y018995D03*
X023941Y019031D03*
X023941Y019035D03*
X023941Y018855D03*
X023941Y018851D03*
X023941Y018843D03*
D144*
X023943Y018863D03*
X023943Y018871D03*
X023943Y018875D03*
X023943Y018883D03*
X023943Y019011D03*
X023943Y019015D03*
X023943Y019023D03*
X023939Y019043D03*
X023371Y019043D03*
X023363Y019003D03*
X023359Y018943D03*
X023359Y018935D03*
X023359Y018931D03*
X023359Y018923D03*
X023359Y018915D03*
X023359Y018911D03*
X023359Y018903D03*
X023363Y018875D03*
X023363Y018871D03*
X021943Y018843D03*
X021943Y019023D03*
X021943Y019031D03*
X021939Y019043D03*
X021379Y019055D03*
X021371Y019035D03*
X021371Y019031D03*
X021363Y018991D03*
X021363Y018983D03*
X021363Y018975D03*
X021363Y018971D03*
X021363Y018963D03*
X021363Y018955D03*
X021363Y018951D03*
X021363Y018943D03*
X021363Y018935D03*
X021363Y018931D03*
X021363Y018923D03*
X021363Y018915D03*
X021363Y018911D03*
X021363Y018903D03*
X021363Y018895D03*
X021363Y018891D03*
X021363Y018883D03*
X019571Y018843D03*
X019571Y019023D03*
X019571Y019031D03*
X019563Y019051D03*
X018999Y019035D03*
X018999Y019031D03*
X018991Y018991D03*
X018991Y018983D03*
X018991Y018975D03*
X018991Y018971D03*
X018991Y018963D03*
X018991Y018955D03*
X018991Y018951D03*
X018991Y018943D03*
X018991Y018935D03*
X018991Y018931D03*
X018991Y018923D03*
X018991Y018915D03*
X018991Y018911D03*
X018991Y018903D03*
X018991Y018895D03*
X018991Y018891D03*
X018991Y018883D03*
X018763Y018843D03*
X018763Y019023D03*
X018763Y019031D03*
X018759Y019043D03*
X018199Y019055D03*
X018191Y019035D03*
X018191Y019031D03*
X018183Y018991D03*
X018183Y018983D03*
X018183Y018975D03*
X018183Y018971D03*
X018183Y018963D03*
X018183Y018955D03*
X018183Y018951D03*
X018183Y018943D03*
X018183Y018935D03*
X018183Y018931D03*
X018183Y018923D03*
X018183Y018915D03*
X018183Y018911D03*
X018183Y018903D03*
X018183Y018895D03*
X018183Y018891D03*
X018183Y018883D03*
X018191Y018343D03*
X018183Y018331D03*
X018183Y018323D03*
X018179Y018315D03*
X018179Y018311D03*
X018179Y018303D03*
X018179Y018155D03*
X018179Y018151D03*
X018179Y018143D03*
X018183Y018135D03*
X018183Y018131D03*
X018759Y018275D03*
X018759Y018283D03*
X018971Y018315D03*
X018971Y018351D03*
X018971Y018131D03*
X018979Y018111D03*
X019579Y018103D03*
X019583Y018111D03*
X019583Y018115D03*
X019579Y018163D03*
X019579Y018331D03*
X019571Y018355D03*
D145*
X019537Y018791D03*
X019025Y018795D03*
X018217Y018795D03*
X017905Y019055D03*
X017297Y019031D03*
X017297Y019023D03*
X017305Y018343D03*
X017297Y018331D03*
X020137Y018103D03*
X020325Y018803D03*
X020545Y019015D03*
X021137Y019063D03*
X021397Y018795D03*
X021037Y018323D03*
X021037Y018315D03*
X022197Y018843D03*
X022197Y018851D03*
X022197Y019023D03*
X022805Y019063D03*
X022817Y018831D03*
D146*
X020725Y018363D03*
X020725Y018103D03*
X017905Y018363D03*
D147*
X017905Y018107D03*
X018705Y018779D03*
X021885Y018779D03*
D148*
X022191Y018887D03*
X022191Y018899D03*
X022191Y018907D03*
X022191Y018919D03*
X022191Y018927D03*
X022191Y018939D03*
X022191Y018947D03*
X022191Y018959D03*
X022191Y018967D03*
X022191Y018979D03*
X022191Y018987D03*
X022831Y018999D03*
X022831Y019007D03*
X023371Y018839D03*
X020111Y018307D03*
X020111Y018167D03*
X020111Y018159D03*
X018751Y018107D03*
X018751Y018339D03*
X017291Y018147D03*
D149*
X018201Y019059D03*
X018761Y018839D03*
X019001Y018827D03*
X018741Y018359D03*
X018981Y018107D03*
X019561Y018819D03*
X019561Y019059D03*
X021161Y018979D03*
X021381Y019059D03*
X021941Y018839D03*
X023361Y018879D03*
X023361Y018887D03*
X023361Y018899D03*
X023361Y018959D03*
X023361Y018967D03*
X023361Y018979D03*
X023361Y018987D03*
X023361Y018999D03*
X023941Y019039D03*
X023941Y018847D03*
X023941Y018839D03*
D150*
X023943Y018859D03*
X023943Y018867D03*
X023943Y018879D03*
X023943Y018887D03*
X023943Y019007D03*
X023943Y019019D03*
X023943Y019027D03*
X023363Y019007D03*
X023359Y018947D03*
X023359Y018939D03*
X023359Y018927D03*
X023359Y018919D03*
X023359Y018907D03*
X023363Y018867D03*
X021943Y018847D03*
X021943Y019027D03*
X021939Y019039D03*
X021371Y019039D03*
X021363Y018987D03*
X021363Y018979D03*
X021363Y018967D03*
X021363Y018959D03*
X021363Y018947D03*
X021363Y018939D03*
X021363Y018927D03*
X021363Y018919D03*
X021363Y018907D03*
X021363Y018899D03*
X021363Y018887D03*
X021363Y018879D03*
X021371Y018839D03*
X019571Y018847D03*
X019571Y019027D03*
X019003Y019047D03*
X018999Y019039D03*
X018991Y018987D03*
X018991Y018979D03*
X018991Y018967D03*
X018991Y018959D03*
X018991Y018947D03*
X018991Y018939D03*
X018991Y018927D03*
X018991Y018919D03*
X018991Y018907D03*
X018991Y018899D03*
X018991Y018887D03*
X018991Y018879D03*
X018999Y018839D03*
X018763Y018847D03*
X018763Y019027D03*
X018759Y019039D03*
X018191Y019039D03*
X018183Y018987D03*
X018183Y018979D03*
X018183Y018967D03*
X018183Y018959D03*
X018183Y018947D03*
X018183Y018939D03*
X018183Y018927D03*
X018183Y018919D03*
X018183Y018907D03*
X018183Y018899D03*
X018183Y018887D03*
X018183Y018879D03*
X018191Y018839D03*
X018199Y018359D03*
X018191Y018347D03*
X018183Y018327D03*
X018183Y018319D03*
X018179Y018307D03*
X018179Y018299D03*
X018179Y018147D03*
X018179Y018139D03*
X018183Y018127D03*
X018759Y018147D03*
X018759Y018279D03*
X018971Y018347D03*
X019579Y018159D03*
X019583Y018107D03*
D151*
X020111Y018155D03*
X020111Y018163D03*
X020111Y018171D03*
X019551Y018803D03*
X019551Y019071D03*
X019011Y018811D03*
X018751Y018815D03*
X018731Y018371D03*
X018751Y018111D03*
X018211Y018371D03*
X017291Y018155D03*
X017291Y018151D03*
X018211Y019075D03*
X021391Y019075D03*
X021931Y018815D03*
X022191Y018883D03*
X022191Y018891D03*
X022191Y018895D03*
X022191Y018903D03*
X022191Y018911D03*
X022191Y018915D03*
X022191Y018923D03*
X022191Y018931D03*
X022191Y018935D03*
X022191Y018943D03*
X022191Y018951D03*
X022191Y018955D03*
X022191Y018963D03*
X022191Y018971D03*
X022191Y018975D03*
X022191Y018983D03*
X022831Y018995D03*
X022831Y019003D03*
X022831Y019011D03*
X023931Y018815D03*
D152*
X023935Y019055D03*
X023367Y018851D03*
X021947Y018863D03*
X021947Y018871D03*
X021947Y018875D03*
X021947Y018883D03*
X021947Y018891D03*
X021947Y018895D03*
X021947Y018903D03*
X021947Y018911D03*
X021947Y018915D03*
X021947Y018923D03*
X021947Y018931D03*
X021947Y018935D03*
X021947Y018943D03*
X021947Y018951D03*
X021947Y018955D03*
X021947Y018963D03*
X021947Y018971D03*
X021947Y018975D03*
X021947Y018983D03*
X021947Y018991D03*
X021947Y018995D03*
X021947Y019003D03*
X021935Y019051D03*
X021367Y019023D03*
X021367Y019015D03*
X021367Y019011D03*
X021367Y018855D03*
X021367Y018851D03*
X019575Y018863D03*
X019575Y018871D03*
X019575Y018875D03*
X019575Y018883D03*
X019575Y018891D03*
X019575Y018895D03*
X019575Y018903D03*
X019575Y018911D03*
X019575Y018915D03*
X019575Y018923D03*
X019575Y018931D03*
X019575Y018935D03*
X019575Y018943D03*
X019575Y018951D03*
X019575Y018955D03*
X019575Y018963D03*
X019575Y018971D03*
X019575Y018975D03*
X019575Y018983D03*
X019575Y018991D03*
X019575Y018995D03*
X019575Y019003D03*
X019567Y019043D03*
X019007Y019055D03*
X018995Y019023D03*
X018995Y019015D03*
X018995Y019011D03*
X018995Y018855D03*
X018995Y018851D03*
X018767Y018863D03*
X018767Y018871D03*
X018767Y018875D03*
X018767Y018883D03*
X018767Y018891D03*
X018767Y018895D03*
X018767Y018903D03*
X018767Y018911D03*
X018767Y018915D03*
X018767Y018923D03*
X018767Y018931D03*
X018767Y018935D03*
X018767Y018943D03*
X018767Y018951D03*
X018767Y018955D03*
X018767Y018963D03*
X018767Y018971D03*
X018767Y018975D03*
X018767Y018983D03*
X018767Y018991D03*
X018767Y018995D03*
X018767Y019003D03*
X018755Y019051D03*
X018187Y019023D03*
X018187Y019015D03*
X018187Y019011D03*
X018187Y018855D03*
X018187Y018851D03*
X018187Y018335D03*
X018175Y018283D03*
X018175Y018275D03*
X018175Y018215D03*
X018175Y018211D03*
X018175Y018203D03*
X018175Y018195D03*
X018175Y018191D03*
X018175Y018183D03*
X018175Y018175D03*
X018175Y018171D03*
X018175Y018163D03*
X018975Y018115D03*
X018975Y018303D03*
D153*
X019011Y018271D03*
X018243Y018391D03*
X017911Y018351D03*
X017331Y018371D03*
X019523Y018783D03*
X020171Y018383D03*
X020731Y018351D03*
X020731Y018115D03*
X022783Y018795D03*
X022783Y019083D03*
D154*
X021111Y019087D03*
X017911Y018119D03*
D155*
X018175Y018167D03*
X018175Y018179D03*
X018175Y018187D03*
X018175Y018199D03*
X018175Y018207D03*
X018175Y018279D03*
X018175Y018287D03*
X018187Y018339D03*
X018187Y018119D03*
X018975Y018119D03*
X018975Y018307D03*
X018975Y018359D03*
X018995Y018859D03*
X018995Y019019D03*
X018767Y019007D03*
X018767Y018999D03*
X018767Y018987D03*
X018767Y018979D03*
X018767Y018967D03*
X018767Y018959D03*
X018767Y018947D03*
X018767Y018939D03*
X018767Y018927D03*
X018767Y018919D03*
X018767Y018907D03*
X018767Y018899D03*
X018767Y018887D03*
X018767Y018879D03*
X018767Y018867D03*
X018187Y018859D03*
X018187Y019019D03*
X018195Y019047D03*
X019567Y019039D03*
X019575Y019007D03*
X019575Y018999D03*
X019575Y018987D03*
X019575Y018979D03*
X019575Y018967D03*
X019575Y018959D03*
X019575Y018947D03*
X019575Y018939D03*
X019575Y018927D03*
X019575Y018919D03*
X019575Y018907D03*
X019575Y018899D03*
X019575Y018887D03*
X019575Y018879D03*
X019575Y018867D03*
X019575Y018347D03*
X019575Y018167D03*
X021367Y018859D03*
X021367Y019019D03*
X021375Y019047D03*
X021947Y019007D03*
X021947Y018999D03*
X021947Y018987D03*
X021947Y018979D03*
X021947Y018967D03*
X021947Y018959D03*
X021947Y018947D03*
X021947Y018939D03*
X021947Y018927D03*
X021947Y018919D03*
X021947Y018907D03*
X021947Y018899D03*
X021947Y018887D03*
X021947Y018879D03*
X021947Y018867D03*
X023367Y019027D03*
D156*
X019581Y018327D03*
X019581Y018319D03*
X019577Y018339D03*
X019585Y018139D03*
X019585Y018127D03*
X019585Y018119D03*
X018973Y018127D03*
X018969Y018139D03*
X018969Y018147D03*
X018969Y018319D03*
X018969Y018327D03*
X018969Y018339D03*
X018177Y018159D03*
D157*
X018969Y018143D03*
X018969Y018135D03*
X018973Y018123D03*
X018973Y018311D03*
X018969Y018323D03*
X018969Y018331D03*
X018969Y018335D03*
X018969Y018343D03*
X018973Y018355D03*
X019573Y018351D03*
X019577Y018343D03*
X019577Y018335D03*
X019581Y018323D03*
X019581Y018315D03*
X019581Y018155D03*
X019581Y018151D03*
X019585Y018143D03*
X019585Y018135D03*
X019585Y018131D03*
X019585Y018123D03*
D158*
X019583Y018147D03*
D159*
X019551Y018191D03*
X020151Y018371D03*
X019031Y018791D03*
X017891Y019071D03*
X017311Y018351D03*
X021131Y019071D03*
X021631Y018363D03*
D160*
X021609Y018379D03*
X019533Y018199D03*
X017869Y019087D03*
X023889Y019099D03*
D161*
X020233Y018399D03*
X019477Y018399D03*
X019489Y018207D03*
D162*
X019343Y018211D03*
D163*
X019325Y018215D03*
X019265Y018431D03*
X018469Y018415D03*
X017585Y018415D03*
X022533Y018755D03*
D164*
X019311Y018219D03*
D165*
X018467Y018223D03*
X018467Y018231D03*
X018467Y018235D03*
X018467Y018243D03*
X018467Y018251D03*
X018467Y018255D03*
X018467Y018263D03*
X018467Y018271D03*
X022479Y019111D03*
D166*
X019289Y018227D03*
X019261Y018239D03*
D167*
X019279Y018231D03*
X019267Y018423D03*
D168*
X019271Y018235D03*
X018471Y018403D03*
D169*
X019239Y018247D03*
X019267Y018427D03*
X019283Y019119D03*
X018475Y019119D03*
X021655Y019119D03*
X022535Y019119D03*
D170*
X022535Y019123D03*
X021655Y018751D03*
X023655Y018751D03*
X019227Y018251D03*
X018475Y018751D03*
X017635Y019115D03*
D171*
X019187Y018259D03*
D172*
X019045Y018263D03*
D173*
X019041Y019091D03*
X018721Y019091D03*
X017301Y019043D03*
X017321Y018363D03*
X021041Y018335D03*
X021901Y019091D03*
X022201Y019035D03*
X022201Y018835D03*
X022201Y018831D03*
X022801Y018811D03*
D174*
X023433Y019099D03*
X021593Y018387D03*
X020721Y018367D03*
X017901Y018367D03*
D175*
X017897Y018371D03*
X018693Y018775D03*
X018689Y019103D03*
X018265Y019103D03*
X019073Y019103D03*
X019497Y019103D03*
X019069Y018775D03*
X021445Y019103D03*
X021869Y019103D03*
X021873Y018775D03*
X023873Y018775D03*
X023873Y019103D03*
D176*
X021581Y018391D03*
X021441Y018775D03*
X021061Y018371D03*
X019501Y018775D03*
X018261Y018775D03*
D177*
X017889Y018379D03*
X020577Y019079D03*
X020709Y018379D03*
D178*
X021071Y018379D03*
X017331Y019087D03*
D179*
X017337Y019091D03*
X018477Y018715D03*
X019285Y018715D03*
X021077Y018383D03*
X021657Y018715D03*
D180*
X021601Y018383D03*
X022213Y019063D03*
X022769Y019091D03*
X020293Y018775D03*
X019021Y018395D03*
X017861Y019091D03*
D181*
X017841Y019099D03*
X017321Y019079D03*
X017361Y018387D03*
X022221Y018799D03*
D182*
X018287Y018399D03*
X017875Y018387D03*
D183*
X021083Y018387D03*
D184*
X017867Y018391D03*
D185*
X019511Y018395D03*
X020191Y018391D03*
D186*
X020689Y018391D03*
X022249Y019095D03*
D187*
X021091Y018391D03*
D188*
X022733Y019103D03*
X017389Y018395D03*
D189*
X017855Y018395D03*
X019255Y018455D03*
D190*
X020677Y018395D03*
D191*
X021103Y018395D03*
X022263Y018775D03*
X017363Y019103D03*
D192*
X017823Y018399D03*
X020643Y019107D03*
D193*
X021475Y019107D03*
X021835Y019107D03*
X018655Y019107D03*
X018295Y019107D03*
X017615Y019159D03*
X018647Y018399D03*
D194*
X018477Y018719D03*
X019285Y018719D03*
X020653Y018399D03*
X021657Y018719D03*
D195*
X021541Y018399D03*
X023481Y019107D03*
X017801Y019107D03*
D196*
X017641Y018403D03*
D197*
X019269Y018403D03*
D198*
X019285Y018755D03*
X018477Y018755D03*
X017637Y019111D03*
X021377Y018403D03*
X021657Y018755D03*
X023657Y019123D03*
D199*
X017581Y018407D03*
D200*
X018471Y018407D03*
X023659Y019119D03*
D201*
X019267Y018407D03*
D202*
X020405Y018407D03*
D203*
X019269Y018411D03*
D204*
X019285Y019123D03*
X018477Y019123D03*
X020405Y018411D03*
X021657Y019123D03*
D205*
X019267Y018415D03*
D206*
X019265Y018435D03*
X019285Y019131D03*
X018477Y019131D03*
X017633Y019123D03*
X021373Y018415D03*
X021657Y019131D03*
X022533Y019131D03*
D207*
X017585Y018419D03*
D208*
X018469Y018419D03*
D209*
X019267Y018419D03*
D210*
X017631Y019127D03*
X020879Y019127D03*
X021371Y018419D03*
D211*
X021657Y018743D03*
X019285Y018743D03*
X018477Y018743D03*
X018469Y018423D03*
X017585Y018423D03*
D212*
X017629Y019131D03*
X021369Y018423D03*
D213*
X023655Y018739D03*
X018467Y018427D03*
X017587Y018427D03*
D214*
X020411Y018427D03*
D215*
X021369Y018427D03*
X022529Y018739D03*
D216*
X021657Y018735D03*
X020877Y019135D03*
X019285Y018735D03*
X018477Y018735D03*
X018469Y018431D03*
X017589Y018431D03*
X017629Y019135D03*
X023657Y018735D03*
D217*
X020413Y018431D03*
D218*
X021367Y018431D03*
X021655Y018731D03*
X023655Y018731D03*
X019283Y018731D03*
X018475Y018731D03*
D219*
X018469Y018435D03*
X017589Y018435D03*
D220*
X020413Y018435D03*
D221*
X021367Y018435D03*
X020875Y019143D03*
X017627Y019143D03*
D222*
X018477Y018739D03*
X019285Y018739D03*
X019265Y018439D03*
X021657Y018739D03*
D223*
X021657Y018727D03*
X020417Y018439D03*
X019285Y018727D03*
X018477Y018727D03*
D224*
X017623Y019147D03*
X021363Y018439D03*
D225*
X017591Y018443D03*
D226*
X018467Y018443D03*
D227*
X019263Y018443D03*
X023659Y019143D03*
D228*
X022525Y018723D03*
X021361Y018443D03*
X017621Y019151D03*
D229*
X017593Y018447D03*
X018465Y018447D03*
D230*
X019261Y018447D03*
X020121Y018739D03*
D231*
X020419Y018447D03*
D232*
X021359Y018447D03*
X022523Y019159D03*
D233*
X018467Y018451D03*
X017595Y018451D03*
D234*
X019261Y018451D03*
D235*
X022521Y018715D03*
X022521Y019163D03*
D236*
X020123Y018719D03*
D237*
X022525Y018719D03*
D238*
X023657Y018719D03*
D239*
X020121Y018723D03*
D240*
X023655Y018723D03*
D241*
X020121Y018727D03*
D242*
X022525Y018727D03*
D243*
X023655Y018727D03*
D244*
X020121Y018731D03*
D245*
X022529Y018731D03*
D246*
X020121Y018735D03*
D247*
X022527Y018735D03*
D248*
X020121Y018743D03*
D249*
X020121Y018763D03*
X022529Y018743D03*
D250*
X023655Y018743D03*
D251*
X023655Y018747D03*
X021655Y018747D03*
X019283Y018747D03*
X018475Y018747D03*
D252*
X022531Y018747D03*
D253*
X020879Y019115D03*
X019283Y018751D03*
D254*
X020121Y018751D03*
D255*
X020123Y018755D03*
D256*
X020121Y018759D03*
D257*
X019283Y018763D03*
D258*
X022537Y018763D03*
D259*
X021657Y018767D03*
X023657Y018767D03*
X019285Y018767D03*
X018477Y018767D03*
D260*
X020121Y018767D03*
D261*
X022477Y018767D03*
D262*
X021467Y018771D03*
X019095Y018771D03*
X018287Y018771D03*
D263*
X022287Y018771D03*
D264*
X022703Y018771D03*
D265*
X020301Y018779D03*
X019941Y018779D03*
D266*
X022251Y018779D03*
X017351Y019099D03*
D267*
X021081Y019099D03*
X022749Y019099D03*
X022745Y018779D03*
D268*
X022241Y018783D03*
X022241Y019091D03*
D269*
X022207Y018819D03*
X020555Y019047D03*
X017307Y019059D03*
D270*
X018251Y019099D03*
X019511Y019099D03*
X021431Y019099D03*
X022211Y019059D03*
D271*
X022217Y019067D03*
D272*
X022227Y019079D03*
D273*
X022231Y019083D03*
D274*
X020587Y019087D03*
D275*
X020609Y019099D03*
D276*
X022257Y019099D03*
D277*
X020621Y019103D03*
D278*
X022269Y019103D03*
D279*
X023447Y019103D03*
D280*
X019463Y019107D03*
X019103Y019107D03*
D281*
X020043Y019107D03*
X020043Y019119D03*
X020043Y019127D03*
X020043Y019139D03*
X020043Y019147D03*
X020043Y019159D03*
D282*
X021027Y019107D03*
D283*
X022297Y019107D03*
D284*
X022701Y019107D03*
D285*
X023841Y019107D03*
D286*
X023657Y019115D03*
X021657Y019111D03*
X019285Y019111D03*
X018477Y019111D03*
D287*
X023659Y019111D03*
D288*
X022533Y019127D03*
X017633Y019119D03*
D289*
X020879Y019119D03*
D290*
X020879Y019123D03*
D291*
X020877Y019131D03*
D292*
X023657Y019131D03*
D293*
X022531Y019135D03*
D294*
X017627Y019139D03*
D295*
X020877Y019139D03*
D296*
X023657Y019139D03*
D297*
X021655Y019147D03*
X018475Y019147D03*
D298*
X019283Y019147D03*
D299*
X020875Y019147D03*
D300*
X022529Y019147D03*
D301*
X023659Y019147D03*
D302*
X021655Y019151D03*
X018475Y019151D03*
D303*
X019283Y019151D03*
D304*
X020875Y019151D03*
D305*
X022525Y019151D03*
X023657Y019151D03*
D306*
X017619Y019155D03*
D307*
X018475Y019155D03*
X021655Y019155D03*
D308*
X023659Y019155D03*
X019283Y019155D03*
D309*
X020871Y019155D03*
D310*
X023659Y019159D03*
D311*
X023574Y014680D03*
D312*
X024888Y002680D03*
M02*
